<svg xmlns="http://www.w3.org/2000/svg" xmlns:xlink="http://www.w3.org/1999/xlink" width="578.7" height="3495.266"><symbol id="arrow" viewBox="0 0 23 9"><path d="M0 4h15v1H0z"/><path id="Triangle" d="M22.7 4.5L17 9l1-4.5L17 0z"/></symbol><use xlink:href="#arrow" width="23" height="9"/><symbol id="check" viewBox="0 0 8.666 8.666"><path fill="#D41B2C" d="M3.541 8.615a.703.703 0 0 1-.557-.276L.12 4.77a.698.698 0 0 1 1.111-.842L3.485 6.69 7.378.38a.696.696 0 1 1 1.182.736l-4.426 7.17a.701.701 0 0 1-.593.33z"/></symbol><use xlink:href="#check" y="11" width="8.666" height="8.666"/><symbol id="cross" viewBox="0 0 23.69 23.33"><path d="M21.57 23.33l-9.73-9.72-9.72 9.72L0 21.21l9.72-9.72L.35 2.12 2.47 0l9.37 9.37L21.21 0l2.12 2.12-9.37 9.37 9.73 9.72z"/></symbol><use xlink:href="#cross" y="21.666" width="23.69" height="23.33"/><symbol id="dot" viewBox="0 0 4 4"><circle fill="#C00" cx="2" cy="2" r="2"/></symbol><use xlink:href="#dot" y="46.996" width="4" height="4"/><symbol id="download" viewBox="0 0 19 17"><path d="M5.4 7.4L8.7 11c.2.2.5.4.8.4s.6-.1.8-.4l3.3-3.5c.2-.2.3-.4.3-.7 0-.6-.5-1.1-1.1-1.1-.3 0-.6.1-.8.4l-1.4 1.5V1.1c0-.6-.5-1.1-1.1-1.1S8.4.5 8.4 1.1v6.4L7 6c-.2-.2-.5-.3-.8-.3-.6 0-1.1.5-1.1 1.1 0 .2.1.5.3.6zm12.5 2.2c-.6 0-1.1.5-1.1 1.1v4.2H2.2v-4.2c0-.6-.5-1.1-1.1-1.1S0 10 0 10.6v5.3c0 .6.5 1.1 1.1 1.1h16.8c.6 0 1.1-.5 1.1-1.1v-5.3c0-.6-.5-1-1.1-1z"/></symbol><use xlink:href="#download" y="52.996" width="19" height="17"/><symbol id="dropdown-red" viewBox="0 0 9 6"><path fill="#C00" d="M4.5 6L0 0h9z"/></symbol><use xlink:href="#dropdown-red" y="71.996" width="9" height="6"/><symbol id="dropdown" viewBox="0 0 9 6"><path d="M4.5 6L0 0h9z"/></symbol><use xlink:href="#dropdown" y="79.996" width="9" height="6"/><symbol id="facebook-circle" viewBox="0 0 512 512"><defs><style></style></defs><circle class="cls-1" cx="256" cy="256" r="256"/><path d="M301.6 151.2h36.3V97h-51.4c-29.6 0-68.1 19-68.1 74.2v43h-49.1v56.1h49.1v146H277v-146h48.8l8.1-56.1H277v-35.7c0-18.4 9-27.3 24.6-27.3z"/></symbol><use xlink:href="#facebook-circle" y="87.996" width="512" height="512"/><symbol id="facebook" viewBox="0 0 9 16"><path id="Shape" d="M8.7 0H6.5c-2.4 0-4 1.5-4 3.9v1.8H.3c-.1.1-.3.2-.3.4v2.6c0 .2.2.3.3.3h2.2v6.6c0 .2.2.3.3.3h2.8c.3.1.4 0 .4-.2V9h2.5c.2 0 .3-.1.3-.3V6.1c0-.1 0-.2-.1-.2 0-.1-.1-.1-.1-.1H6V4.2c0-.7.2-1.1 1.2-1.1h1.5c.1 0 .3-.1.3-.3V.3c0-.2-.2-.3-.3-.3z"/></symbol><use xlink:href="#facebook" y="601.996" width="9" height="16"/><symbol id="filter" viewBox="0 0 19 18"><path d="M3.1 14.4c.3-1.4 1.5-2.4 3-2.4s2.7 1 3 2.4h9.4c.3 0 .6.3.6.6s-.3.6-.6.6H9C8.8 17 7.5 18 6.1 18s-2.7-1-3-2.4H.6c-.3 0-.6-.3-.6-.6s.3-.6.6-.6h2.5zm3 2.4c-1 0-1.8-.8-1.8-1.8s.8-1.8 1.8-1.8 1.8.8 1.8 1.8-.8 1.8-1.8 1.8zM10 8.4C10.2 7 11.5 6 12.9 6s2.7 1 3 2.4h2.5c.3 0 .6.3.6.6s-.3.6-.6.6h-2.5c-.3 1.4-1.5 2.4-3 2.4s-2.7-1-3-2.4H.6C.3 9.6 0 9.3 0 9s.3-.6.6-.6H10zm2.9 2.4c-1 0-1.8-.8-1.8-1.8s.8-1.8 1.8-1.8 1.9.8 1.9 1.8-.9 1.8-1.9 1.8zM3.1 2.4C3.4 1 4.6 0 6.1 0s2.7 1 3 2.4h9.4c.2 0 .5.3.5.6s-.3.6-.6.6H9C8.8 5 7.5 6 6.1 6s-2.7-1-3-2.4H.6C.3 3.6 0 3.3 0 3s.3-.6.6-.6h2.5zm3 2.4c-1 0-1.9-.8-1.9-1.8S5 1.2 6 1.2 7.9 2 7.9 3s-.8 1.8-1.8 1.8z"/></symbol><use xlink:href="#filter" y="619.996" width="19" height="18"/><symbol id="googlescholar" viewBox="0 0 50 50"><path d="M25 2C12.318 2 2 12.317 2 25s10.318 23 23 23 23-10.317 23-23S37.682 2 25 2zm-7.238 7.03c2.12-.16 4.668.89 7.238 2.88 3.425-2.654 6.81-3.636 9.201-2.308 1.193.663 2.049 1.854 2.475 3.441.433 1.618.424 3.602.03 5.787C40.597 20.273 43 22.462 43 25s-2.402 4.726-6.297 6.17c.395 2.186.404 4.173-.03 5.79-.424 1.588-1.279 2.777-2.472 3.44-.717.398-1.523.588-2.394.588-2.031 0-4.411-1.048-6.809-2.906-2.398 1.858-4.778 2.906-6.809 2.906-.87 0-1.674-.189-2.392-.588-1.193-.663-2.049-1.852-2.475-3.44-.433-1.617-.424-3.604-.029-5.79C9.402 29.726 7 27.538 7 25c0-2.537 2.402-4.726 6.295-6.17-.395-2.186-.404-4.17.03-5.787.424-1.588 1.28-2.778 2.474-3.441a4.725 4.725 0 0 1 1.963-.573zm.478 1.972c-.557 0-1.051.115-1.47.348-.718.399-1.23 1.143-1.514 2.209-.342 1.277-.343 2.875-.043 4.66 1.39-.386 2.914-.69 4.553-.897a31.256 31.256 0 0 1 3.697-4.097c-1.962-1.46-3.794-2.223-5.223-2.223zm13.52 0c-1.43 0-3.264.763-5.225 2.223a31.335 31.335 0 0 1 3.7 4.097c1.638.206 3.162.51 4.552.897.3-1.785.297-3.383-.045-4.66-.286-1.066-.794-1.81-1.512-2.21-.419-.231-.914-.347-1.47-.347zM25 14.486a27.281 27.281 0 0 0-2.494 2.592A43.98 43.98 0 0 1 25 17c.853 0 1.68.032 2.494.078A27.53 27.53 0 0 0 25 14.486zM25 19c-1.466 0-2.854.085-4.168.225a38.032 38.032 0 0 0-1.686 2.562A35.878 35.878 0 0 0 17.436 25a35.862 35.862 0 0 0 1.71 3.213c.547.912 1.116 1.76 1.692 2.562A39.15 39.15 0 0 0 25 31c1.464 0 2.848-.084 4.16-.223a35.849 35.849 0 0 0 3.402-5.775 35.607 35.607 0 0 0-1.71-3.213 37.448 37.448 0 0 0-1.684-2.564A39.247 39.247 0 0 0 25 19zm-6.842.611c-.889.167-1.732.362-2.512.584.208.772.467 1.566.768 2.375.32-.604.657-1.207 1.018-1.81.236-.393.481-.77.726-1.149zm13.682 0c.245.378.49.756.726 1.149.362.603.696 1.206 1.016 1.81.301-.809.562-1.603.77-2.375a28.155 28.155 0 0 0-2.512-.584zm-18.092 1.22C10.759 21.987 9 23.535 9 25c0 1.465 1.76 3.012 4.75 4.17a30.35 30.35 0 0 1 1.488-4.168 30.459 30.459 0 0 1-1.49-4.172zm22.502 0a30.308 30.308 0 0 1-1.488 4.171 30.353 30.353 0 0 1 1.486 4.17C39.238 28.012 41 26.465 41 25c0-1.465-1.76-3.012-4.75-4.17zM25 23a2 2 0 1 1 .001 3.999A2 2 0 0 1 25 23zm-8.584 4.43c-.301.808-.56 1.603-.768 2.375.777.222 1.615.416 2.502.582a38.998 38.998 0 0 1-.716-1.145 38.812 38.812 0 0 1-1.018-1.812zm17.168 0c-.32.604-.657 1.21-1.018 1.812-.234.391-.473.77-.716 1.147a28.081 28.081 0 0 0 2.502-.584 27.269 27.269 0 0 0-.768-2.375zM15.213 31.78c-.3 1.786-.3 3.385.043 4.662.286 1.066.796 1.81 1.514 2.21 1.492.827 3.962.143 6.683-1.878a31.367 31.367 0 0 1-3.693-4.097 31.969 31.969 0 0 1-4.547-.897zm19.574 0c-1.388.385-2.912.69-4.549.897-1.186 1.56-2.431 2.936-3.693 4.097 2.72 2.021 5.192 2.706 6.685 1.877.718-.399 1.227-1.143 1.512-2.209.342-1.277.345-2.876.045-4.662zm-12.273 1.14c.826.973 1.659 1.848 2.484 2.593a27.364 27.364 0 0 0 2.486-2.592c-.81.046-1.635.078-2.484.078a43.76 43.76 0 0 1-2.486-.078z"/></symbol><use xlink:href="#googlescholar" y="639.996" width="50" height="50"/><symbol id="house" viewBox="0 0 12 13"><path class="st0" d="M12 13H0V4.6L6 0l6 4.6V13zM2 11h8V5.6L6 2.5 2 5.6V11z"/></symbol><use xlink:href="#house" y="691.996" width="12" height="13"/><symbol id="instagram-circle" viewBox="0 0 255 255"><defs><style></style></defs><path class="cls-1" d="M167.9 97h6.41a5.19 5.19 0 0 0 5-5.17V79.47a5.24 5.24 0 0 0-5.31-5.28h-12.21a5.25 5.25 0 0 0-5.26 5.29v12.17a5.55 5.55 0 0 0 .31 1.81A5.22 5.22 0 0 0 162 97zm-39.4 5.26a26.27 26.27 0 1 0 26.26 26.85 26.27 26.27 0 0 0-26.26-26.89zm-50.8 14v57.92a5.24 5.24 0 0 0 5.15 5.13h91.28a5.25 5.25 0 0 0 5.17-5.15v-57.91h-12.38a40.57 40.57 0 0 1 1.6 17.06 40.34 40.34 0 0 1-17.41 28.56 40.3 40.3 0 0 1-42.27 1.82 39.37 39.37 0 0 1-15.66-15.78c-5.48-10.09-6.35-20.68-3.14-31.67zm102.67 77.09c.68-.11 1.35-.2 2-.35a14 14 0 0 0 10.66-10.87c.11-.58.19-1.16.28-1.73V76.62c-.09-.56-.17-1.13-.27-1.7a14 14 0 0 0-11.82-11.13l-.72-.12h-104c-.62.11-1.25.2-1.87.34a14 14 0 0 0-10.84 11.75c0 .24-.08.49-.12.73v104c.12.65.21 1.32.36 2a14.06 14.06 0 0 0 11.77 10.72c.28 0 .56.09.83.12zM128.5 256A127.5 127.5 0 1 1 256 128.5 127.51 127.51 0 0 1 128.5 256z" transform="translate(-1 -1)"/></symbol><use xlink:href="#instagram-circle" y="706.996" width="255" height="255"/><symbol id="instagram" viewBox="0 0 18 18"><path id="Shape" d="M17.6 5.2c0-.9-.2-1.6-.4-2.1-.2-.6-.5-1.1-1-1.6s-1-.8-1.6-1C14 .2 13.4.1 12.5 0H8.9C6.5 0 6.1 0 5.2.1c-1 0-1.6.1-2.2.4-.5.2-1 .5-1.5 1s-.8 1-1 1.6C.2 3.6.1 4.2.1 5.2 0 6.1 0 6.4 0 8.8s0 2.7.1 3.6c0 .9.2 1.6.4 2.1.2.6.5 1.1 1 1.6s1 .8 1.6 1c.6.2 1.2.4 2.1.4.9 0 1.2.1 3.6.1s2.7 0 3.6-.1c.9 0 1.6-.2 2.1-.4.6-.2 1.1-.5 1.6-1s.8-1 1-1.6c.2-.6.4-1.2.4-2.1s.1-1.2.1-3.6V5.2zM16 12.4c0 .9-.2 1.3-.3 1.6-.2.4-.4.7-.7 1-.3.3-.6.5-1 .7-.3.1-.8.3-1.6.3-.9 0-1.2.1-3.6.1s-2.6 0-3.6-.1c-.9 0-1.3-.2-1.6-.3-.4-.2-.7-.4-1-.7s-.5-.6-.7-1c-.1-.3-.3-.8-.3-1.6 0-.9-.1-1.2-.1-3.6s0-2.6.1-3.6c0-.9.2-1.3.3-1.6.2-.4.4-.7.7-1s.6-.5 1-.7c.3-.1.8-.3 1.6-.3.9 0 1.2-.1 3.6-.1 2.4 0 2.6 0 3.6.1.9 0 1.3.2 1.6.3.4.2.7.4 1 .7.3.3.5.6.7 1 .1.3.3.8.3 1.7 0 .9.1 1.2.1 3.6s-.1 2.6-.1 3.5z"/><path id="Shape_1_" d="M8.8 4.3c-2.5 0-4.5 2-4.5 4.5s2 4.5 4.5 4.5 4.5-2 4.5-4.5-2-4.5-4.5-4.5zm0 7.5c-1.6 0-2.9-1.3-2.9-2.9S7.2 6 8.8 6s2.9 1.3 2.9 2.9-1.3 2.9-2.9 2.9z"/><ellipse id="Oval" cx="13.5" cy="4.1" rx="1.1" ry="1.1"/></symbol><use xlink:href="#instagram" y="963.996" width="18" height="18"/><symbol id="linkedin-circle" viewBox="0 0 255 255"><path class="cls-1" d="M200.06 188.58v-49.77c0-26.67-14.24-39.08-33.22-39.08-15.32 0-22.18 8.43-26 14.34v-12.3H112c.38 8.14 0 86.81 0 86.81h28.85V140.1a19.61 19.61 0 0 1 1-7c2.08-5.18 6.83-10.55 14.79-10.55 10.45 0 14.62 8 14.62 19.63v46.45h28.86zM81.58 89.92c10.06 0 16.32-6.67 16.32-15-.18-8.51-6.26-15-16.13-15s-16.33 6.47-16.33 15c0 8.34 6.27 15 16 15zM128.5 256A127.5 127.5 0 1 1 256 128.5 127.51 127.51 0 0 1 128.5 256zM96 188.58v-86.81H67.15v86.81z" transform="translate(-1 -1)"/></symbol><use xlink:href="#linkedin-circle" y="983.996" width="255" height="255"/><symbol id="linkedin" viewBox="0 0 16 15"><path id="LinkedIn-Copy-2" d="M3.6 15H.3V5h3.3v10zM1.9 3.6C.9 3.6 0 2.8 0 1.8S.9 0 1.9 0C3 0 3.8.8 3.8 1.8S3 3.6 1.9 3.6zM16 15h-3.3v-4.9c0-1.2 0-2.7-1.7-2.7S9 8.7 9 10v5H5.7V5h3.2v1.4c.4-.8 1.5-1.6 3.1-1.6 3.4 0 4 2.1 4 4.8V15z"/></symbol><use xlink:href="#linkedin" y="1240.996" width="16" height="15"/><symbol id="logo--university" viewBox="0 0 578.7 387.6"><style>.st0{fill:#fff}.st1{fill:url(#SVGID_1_)}.st2{fill:url(#SVGID_2_)}.st3{fill:url(#SVGID_3_)}</style><path class="st0" d="M82.3 140.6c4.5-.3 6.6-.3 11.1-.6 1.5 0 2.4.6 2.4 2.4v2.7c0 1.4-1 2.6-2.4 2.7-6.9.3-10.2.6-17.1.9-1.5 0-2.4-.6-2.4-2.4v-29.1c0-1.4 1-2.6 2.4-2.7 1.1 0 2.2-.1 3.3-.3 1.5 0 2.4.6 2.4 2.4.1 9.6.1 14.4.3 24zM117.7 147.5h-3c-1.6.2-3-.9-3.3-2.4-4.5-12-6.6-17.7-10.8-29.7-.3-1.2.3-2.4 1.5-2.4h3.9c1.8 0 2.4.6 3 2.4l7.5 21c3-8.4 4.5-12.6 7.2-21.3.6-1.8 1.2-2.4 3-2.4h3.3c1.2 0 1.8 1.2 1.5 2.4-4.2 12-6.3 18-10.8 29.7-.6 2.1-1.2 2.7-3 2.7zM144.7 147.5c-1.5 0-3-.1-4.5-.3-.7-.1-1.2-.8-1.1-1.5 0-.2.1-.4.2-.6 4.2-6 6-9 9.9-15.3-3.6-6-5.1-8.7-8.4-14.7-.4-.6-.3-1.5.4-1.9.2-.2.5-.2.8-.2 1.5 0 3 .1 4.5.3 1.8 0 2.4.6 3.6 2.4 1.8 3.6 3 5.1 4.8 8.7 2.1-3.3 3-4.8 4.8-8.1.9-1.8 1.5-2.1 3.6-1.8 1.4-.1 2.8 0 4.2.3.9 0 1.5 1.2 1.2 2.1-3.6 5.4-5.1 8.4-8.7 13.8 3.9 6.6 6 9.6 9.9 16.2.4.6.3 1.4-.4 1.9-.2.2-.5.2-.8.2-1.6 0-3.2-.1-4.8-.3-2.1 0-2.7-.6-3.6-2.4-2.4-4.2-3.6-6.3-6-10.2-2.4 3.9-3.6 5.7-6 9.6-1.2 1.5-1.8 1.8-3.6 1.8zM19.4 215.2c-1.1.2-2.2.3-3.3.3-1.8.3-2.7-.3-3.6-1.8C7.4 202.6 5 197 .2 185.9c-.4-.8-.1-1.8.7-2.2.2-.1.5-.2.8-.2 1.5-.3 2.4-.3 3.9-.6 1.4-.4 2.8.3 3.3 1.7v.1c3.3 7.8 5.1 12 8.4 19.8 2.7-8.7 4.2-13.2 6.9-21.9.6-1.8 1.2-2.4 3-2.7 1.5-.3 2.1-.3 3.6-.6.7-.2 1.5.3 1.7 1 .1.4 0 .8-.2 1.1-3.9 12.3-6 18.6-10.2 30.9-.3 2-.9 2.9-2.7 2.9zM48.2 211.9c-1.5 0-2.4-.6-2.4-2.1 0-11.7-.3-17.4-.3-29.1 0-1.4 1-2.6 2.4-2.7l19.2-1.5c1.5 0 2.4.6 2.4 2.1v2.4c0 1.5-.6 2.4-2.4 2.7-5.4.3-8.1.6-13.5 1.2v6c3.6-.3 5.7-.6 9.3-.9 1.5 0 2.4.6 2.4 2.1v2.1c0 1.4-1 2.6-2.4 2.7-3.6.3-5.7.6-9.3.9v6.6c5.4-.3 8.1-.6 13.5-1.2 1.5 0 2.4.6 2.4 2.1v2.4c0 1.4-1 2.6-2.4 2.7-7.3.3-11.2.6-18.9 1.5zM89.2 208.9h-3.6c-1.5 0-2.4-.6-2.4-2.4v-29.1c-.1-1.2.8-2.3 2-2.4h.4c4.5 0 6.6-.3 11.1-.3 7.2-.3 12 3.9 12 10.2.1 3.8-2 7.3-5.4 9 2.7 4.8 4.2 7.2 6.9 12.3.4.6.3 1.5-.4 1.9-.2.2-.5.2-.8.2h-4.2c-2.1 0-2.7-.3-3.6-2.1-2.1-4.2-3.3-6.3-5.4-10.5h-3.9v10.5c-.3 1.8-1.2 2.7-2.7 2.7zm7.5-27.2c-1.7 0-3.4.1-5.1.3v7.8c1.7 0 3.4-.1 5.1-.3 2.1-.1 3.7-1.8 3.6-3.8v-.1c0-2.4-1.5-3.9-3.6-3.9zM124.6 208.3c-1.2.1-2.3-.8-2.4-2v-29.5c-.1-1.2.8-2.3 2-2.4h4c1.2-.1 2.3.8 2.4 2v29.5c.1 1.2-.8 2.3-2 2.4h-4zM154.3 209.2c-1.2.1-2.3-.8-2.4-2v-.4c0-9.6.3-14.4.3-24-3 0-4.5-.3-7.5-.3-1.2.1-2.3-.8-2.4-2v-3.1c-.1-1.2.8-2.3 2-2.4h.4c9.3.3 14.1.6 23.4 1.2 1.2-.1 2.3.8 2.4 2v3.1c.1 1.2-.8 2.3-2 2.4h-.4c-3 0-4.5-.3-7.5-.3 0 9.6 0 14.4-.3 24 .1 1.2-.8 2.3-2 2.4h-.4c-1.2-.4-2.4-.7-3.6-.6zM179.7 210.4c-1.5 0-2.1-.3-3.6-.3-.9 0-1.7-.7-1.7-1.6 0-.3.1-.6.2-.8 5.1-11.4 7.8-17.1 12.6-28.5.6-1.8 1.5-2.1 3.3-2.1 1.5 0 2.1.3 3.3.3 1.6.1 2.9 1.2 3.3 2.7 4.5 12.3 6.6 18.3 11.1 30.6.4.6.2 1.5-.4 1.9-.3.2-.7.3-1.1.2-1.8 0-2.4-.3-4.2-.3-1.6-.1-2.9-1.2-3.3-2.7l-1.5-4.5c-5.1-.6-7.8-.6-12.9-1.2-.5 1.4-1.1 2.8-1.8 4.2-.6 2.1-1.5 2.4-3.3 2.1zm15.6-11.6c-1.5-4.5-2.4-6.9-3.9-11.4-1.8 4.2-2.4 6.3-4.2 10.5 2.7.4 5.4.7 8.1.9zM36.5 274c-1.5 0-2.1.3-3.3.3-2.1.3-2.7-.3-3.6-1.8-5.1-11.4-7.8-17.1-12.6-28.2-.4-.8-.1-1.8.7-2.2.2-.1.5-.2.8-.2 1.4-.2 2.8-.3 4.2-.3 1.4-.4 2.8.3 3.2 1.7v.1c3.3 8.1 5.1 12 8.7 20.1 3-8.7 4.5-13.2 7.2-21.9.4-1.5 1.7-2.6 3.3-2.7 1.5 0 2.1-.3 3.6-.3.9-.1 1.7.6 1.8 1.5v.6c-4.2 12.3-6.3 18.6-10.5 30.9-.8 1.8-1.7 2.4-3.5 2.4zM66.1 271.6c-1.8 0-2.7-.6-2.7-2.4-.3-11.7-.3-17.4-.6-29.1 0-1.4 1-2.6 2.4-2.7 1.2 0 2.4-.1 3.6-.3 1.5 0 2.4.6 2.4 2.4.3 11.7.3 17.4.6 29.1 0 1.4-1 2.6-2.4 2.7-1.1 0-2.2.1-3.3.3zM93.1 270.1h-3.6c-1.8 0-2.4-.9-2.4-2.4v-29.1c-.1-1.2.8-2.3 2-2.4h.4c4.5 0 6.9-.3 11.4-.3 7.5-.3 12.3 3.9 12.3 10.2 0 3.9-2.2 7.4-5.7 9 2.7 4.8 4.2 7.5 6.9 12.3.4.6.3 1.5-.4 1.9-.2.2-.5.2-.8.2h-4.5c-2.1 0-2.7-.3-3.6-2.1-2.4-4.2-3.3-6.3-5.7-10.5h-3.9v10.5c.3 1.8-.6 2.7-2.4 2.7zm7.8-27.3h-5.4v7.8h5.4c2.1-.1 3.8-1.8 3.9-3.9.1-2.1-1.6-3.8-3.7-3.9h-.2zM134.5 269.8c-1.8 0-2.4-.9-2.4-2.4 0-9.6 0-14.4.3-24h-7.8c-1.2.1-2.3-.8-2.4-2v-3.1c-.1-1.2.8-2.3 2-2.4h.4c9.6.3 14.4.3 24 .3 1.2-.1 2.3.8 2.4 2v3.1c.1 1.2-.8 2.3-2 2.4h-8.2v24c.1 1.2-.8 2.3-2 2.4h-.4c-1.3-.3-2.6-.4-3.9-.3zM177.4 271.9c-1.1 0-2.2-.1-3.3-.3-1.6.2-3-.9-3.3-2.4-4.5-12.3-6.6-18.3-11.1-30.3-.6-1.2.3-2.4 1.8-2.1 1.5 0 2.4.3 4.2.3 1.6-.2 3 .9 3.3 2.4 3 8.7 4.5 12.9 7.5 21.6 3.3-8.1 5.1-12.3 8.4-20.7.6-1.8 1.5-2.1 3.3-2.1 1.2 0 2.4.1 3.6.3.9 0 1.7.7 1.7 1.6 0 .3-.1.6-.2.8-4.8 11.7-7.2 17.4-12.3 28.8-.9 1.8-1.8 2.1-3.6 2.1zM229.2 209.8c2.1.3 3.6-.6 3.6-2.1 0-1.2-.6-2.1-2.1-3-1.2-.9-5.1-3.6-6.6-4.8-3.6-2.4-5.4-5.7-5.1-9.3.3-5.7 5.1-9.6 11.7-9 3.3.3 6.3 1.7 8.7 3.9.9.9.9 2.4 0 3.3-.3.3-1.2 1.5-1.5 1.8-.9 1.2-2.1 1.2-3.3 0-1.1-1-2.4-1.7-3.9-1.8-1.5-.3-2.9.6-3.3 2.1 0 1.2.6 2.1 2.1 3 1.2.9 5.1 3.6 6.6 4.8 3.6 2.7 5.4 5.7 5.1 9.3-.3 6.3-5.4 9.6-12 9-4.1-.4-7.9-2.2-10.8-5.1-1-.8-1.2-2.2-.4-3.2.1-.2.3-.3.4-.4l1.8-1.8c1.2-1.2 2.1-.9 3.3 0 1.4 1.8 3.5 3 5.7 3.3zM211.8 268.3c2.1.3 3.6-.6 3.6-2.1 0-1.2-.6-2.1-2.1-3s-5.1-3.6-6.3-4.5c-3.2-2-5.1-5.5-5.1-9.3.3-5.7 5.1-9.6 11.7-9 3.1.2 6.1 1.5 8.4 3.6.9.9.9 2.4 0 3.3-.3.3-1.2 1.5-1.5 1.8-.9 1.2-2.1 1.2-3.3.3-1.1-1-2.4-1.7-3.9-1.8-1.5-.3-2.9.6-3.3 2.1 0 1.2.6 2.1 2.1 3s5.1 3.6 6.3 4.5c3.6 2.7 5.1 5.7 5.1 9.3-.3 6.3-5.4 9.6-12 9-4-.3-7.7-2-10.5-4.8-1-.7-1.2-2.2-.5-3.1.1-.2.3-.3.5-.5l1.8-1.8c1.2-1.2 2.1-.9 3.3 0 1.6 1.5 3.6 2.5 5.7 3z"/><linearGradient id="SVGID_1_" gradientUnits="userSpaceOnUse" x1="125.931" y1="831.362" x2="108.67" y2="733.466" gradientTransform="translate(-.93 -428.4)"><stop offset=".15" stop-color="#781012"/><stop offset=".16" stop-color="#7b1113"/><stop offset=".37" stop-color="#9c1a1d"/><stop offset=".56" stop-color="#b51e23"/><stop offset=".72" stop-color="#c52026"/><stop offset=".84" stop-color="#cb2026"/></linearGradient><path class="st1" d="M212.1 378v9.6H30.8V378c39.9-15 65.4-33.3 76.4-72.9h28.5c11.4 39.6 36.9 57.9 76.4 72.9z"/><linearGradient id="SVGID_2_" gradientUnits="userSpaceOnUse" x1="135.673" y1="502.59" x2="109.372" y2="430.35" gradientTransform="translate(-.93 -428.4)"><stop offset="0" stop-color="#a32125"/><stop offset=".14" stop-color="#b12126"/><stop offset=".39" stop-color="#c42126"/><stop offset=".56" stop-color="#cb2026"/></linearGradient><path class="st2" d="M113.8 0h15.6v76.1h-15.6z"/><linearGradient id="SVGID_3_" gradientUnits="userSpaceOnUse" x1="512.566" y1="839.889" x2="337.421" y2="358.693" gradientTransform="translate(-.93 -428.4)"><stop offset=".15" stop-color="#670607"/><stop offset=".15" stop-color="#690707"/><stop offset=".25" stop-color="#841215"/><stop offset=".35" stop-color="#9d191c"/><stop offset=".46" stop-color="#b11d21"/><stop offset=".57" stop-color="#c01f24"/><stop offset=".69" stop-color="#c82026"/><stop offset=".84" stop-color="#cb2026"/></linearGradient><path class="st3" d="M560.5 0c1 9.7 1.5 19.4 1.5 29.1v241.6L279 0H145l411 387.6h21.3V29.1c0-9.7.5-19.4 1.5-29.1h-18.3z"/></symbol><use xlink:href="#logo--university" y="1257.996" width="578.7" height="387.6"/><symbol id="logo-mobile" viewBox="0 0 252 40"><style>.st0{fill:#c00}.st1{fill:#d02139}.st2{font-family:&apos;Lato-Regular&apos;}.st3{font-size:14.4px}</style><path id="Fill-1" class="st0" d="M161.9.4V1c-2.6.2-2.6 1.5-2.6 3.7v5c0 2.3 0 3.4-.7 4.7-.9 1.7-3 3-6.1 3-3.6 0-5.2-1.6-5.9-2.6-.9-1.3-.9-2.5-.9-5.5V4.9c0-3.6 0-3.8-2.3-3.8h-.4V.4h7.5V1c-2.6 0-2.7 0-2.7 3.8v4.6c0 2.5 0 3.9.7 5 .6 1 2.1 2.1 4.6 2.1 1.7 0 3.8-.6 4.9-2.4.7-1.1.7-2.4.7-4.6v-5c0-2.1 0-3.3-2.7-3.5V.4h5.9"/><path id="Fill-2" class="st0" d="M164.8 6.1c.2.6.3 1.6.3 2.2 1.3-1.5 2.5-2.2 4.1-2.2 2.4 0 3.3 1.7 3.3 3.5v3.9c0 2.9 0 3 1.7 3v.6h-5.4v-.6c1.8 0 1.8-.2 1.8-3v-3.4c0-2.4-.8-3.2-2.1-3.2-1.5 0-2.5 1.3-3.4 2.3v4.3c0 2.9 0 3 1.7 3v.6h-5.3v-.6c1.7 0 1.7-.2 1.7-3v-3.2c0-2.9 0-3-1.7-3v-.6c1.1-.2 2.4-.4 2.9-.6h.4"/><path id="Fill-3" class="st0" d="M179.1 14.5c0 1.7.2 2 1.4 2h.4v.6h-5.6v-.6h.4c1.3 0 1.6-.2 1.6-2v-4.2c0-2.9-.2-2.9-2.1-2.9v-.6c.8 0 2.4-.4 3.5-.7h.3v8.4"/><path id="Fill-4" class="st0" d="M186.9 17.5L183.2 9c-.7-1.5-.9-1.9-1.9-2v-.5h4.7v.6c-.7 0-1.3 0-1.3.6 0 .1 0 .3.3.9l3.1 6.9 2.6-5.8c.4-.8.6-1.4.6-1.8 0-.8-.8-.9-1.3-.9v-.5h3.6v.6c-1.1.1-1.5 1.1-2.3 2.9l-3.4 7.6h-1"/><path id="Fill-5" class="st0" d="M195.7 10h5.6c0-1.2-.4-3.4-2.6-3.4-2 .1-2.8 2-3 3.4zm0 .6c0 .2-.1.6-.1.8 0 3.4 1.1 5.5 3.6 5.5 1.5 0 2.7-.7 3.4-2.1h.6c-.7 1.7-2.2 2.8-4.3 2.8-2.9 0-5.4-2.2-5.4-5.6 0-3.3 2.1-5.8 5.3-5.8 3 0 4.5 2 4.6 4.5h-7.7z"/><path id="Fill-6" class="st0" d="M208.5 13.5c0 2.7 0 3 1.6 3h.4v.6h-5.6v-.6c1.8 0 1.8-.1 1.8-3v-3c0-2.9 0-3-1.8-3v-.6c1.2-.2 2.6-.6 3-.7l.2-.1c.1.4.4 1.3.4 2.8.8-2 2.7-2.8 4.1-2.8 1.4 0 2 1 2 1.6 0 .5-.3 1-.9 1-.6 0-.9-.4-1-.8-.1-.3-.3-.8-.9-.8-1.1 0-3.1 1.3-3.1 4v2.4"/><path id="Fill-7" class="st0" d="M215.4 14h.5c.3 1.3 1.2 3 3.6 3 2.2 0 2.4-1.3 2.4-1.9 0-1.3-1.4-1.9-3-2.5-2.4-.9-3.5-1.7-3.5-3.5 0-1.4 1-2.9 3.4-2.9 1.2 0 2.1.5 2.7 1.1.2-.2.5-.9.5-.9h.5v3.3h-.5c-.2-1.2-1.3-2.9-3.2-2.9-1.7 0-2.3.8-2.3 1.6 0 1.2 1 1.7 2.9 2.4 2.1.7 3.7 1.6 3.7 3.7 0 1.8-1.3 3.1-3.7 3.1-1.6 0-2.5-.6-3.1-1.2-.3.3-.5.8-.6 1.1h-.5V14"/><path id="Fill-8" class="st0" d="M228.7 14.5c0 1.7.2 2 1.4 2h.4v.6h-5.6v-.6h.4c1.3 0 1.6-.2 1.6-2v-4.2c0-2.9-.2-2.9-2.1-2.9v-.6c.8 0 2.4-.4 3.5-.7h.3v8.4"/><path id="Fill-9" class="st0" d="M234.9 7.1v6.4c0 1.5 0 3.1 1.6 3.1.9 0 1.4-.7 1.6-1.1l.4.2c-.8 1.7-2.5 1.7-2.7 1.7-.7 0-1.3-.2-1.7-.5-.7-.5-1-1.5-1-3.1V7.1h-1.5v-.6c1.2-.1 2.6-.8 2.9-3.3h.4v3.3h3.2v.6h-3.2"/><path id="Fill-10" class="st0" d="M248.5 8.8c.2-.4.4-.8.4-1 0-.6-.9-.7-1.4-.7v-.6h3.7v.6c-1.3.1-1.6.7-2.2 2.3l-4.7 11.4c-.7 1.6-1.3 2.8-2.3 2.8-.4 0-.8-.3-.8-.8 0-.9.9-1.3 1.3-1.5.9-.4 1.2-.6 1.6-1.5l1-2.5-4.1-8.5c-.6-1.3-.8-1.7-2.1-1.7v-.6h4.8v.6c-.7.1-1.3.1-1.3.5 0 .2.3.9.5 1.3l2.9 6.2 2.7-6.3"/><path id="Fill-11" class="st0" d="M179.1 2.7c0 .6-.5 1.1-1.1 1.1-.6 0-1.1-.5-1.1-1.1 0-.6.5-1.1 1.1-1.1.6 0 1.1.5 1.1 1.1"/><path id="Fill-12" class="st0" d="M228.7 2.7c0 .6-.5 1.1-1.1 1.1-.6 0-1.1-.5-1.1-1.1 0-.6.5-1.1 1.1-1.1.6 0 1.1.5 1.1 1.1"/><path id="Fill-13" class="st0" d="M4.2 1.9v11.9c0 1.8.4 2.7 3.1 2.8v.6H.7v-.6c2.9-.1 2.8-1.3 2.8-2.8V4.6C3.6 1.3 3.4 1 1 1V.5h4.7l9.9 13.2V3.6c0-1.4-.2-2.5-3-2.5V.5h6.3V1c-2.6.2-2.7 1.1-2.7 2.7v13.8h-.4L4.2 1.9"/><path id="Fill-14" class="st0" d="M24.3 16.9c2.4 0 3.5-1.7 3.5-5 0-2.9-.8-5.2-3.5-5.2s-3.5 2.3-3.5 5.1c0 3.5 1.1 5.1 3.5 5.1zm0-10.8c3.1 0 5.6 2.4 5.6 5.7 0 3.8-2.8 5.7-5.6 5.7-2.7 0-5.6-1.8-5.6-5.8 0-3.2 2.5-5.6 5.6-5.6z"/><path id="Fill-15" class="st0" d="M34.6 13.5c0 2.7 0 3 1.6 3h.4v.6H31v-.6c1.8 0 1.8-.1 1.8-3v-3c0-2.9 0-3-1.8-3v-.6c1.2-.2 2.6-.6 3-.7l.2-.1c.1.4.4 1.3.4 2.8.8-2 2.7-2.8 4.1-2.8 1.4 0 2 1 2 1.6 0 .5-.3 1-.9 1-.6 0-.9-.4-1-.8-.3-.4-.5-.9-1.1-.9-1.1 0-3.1 1.3-3.1 4v2.5"/><path id="Fill-16" class="st0" d="M44.8 7.1v6.4c0 1.5 0 3.1 1.6 3.1.9 0 1.4-.7 1.6-1.1l.4.2c-.8 1.7-2.5 1.7-2.7 1.7-.7 0-1.3-.2-1.7-.5-.7-.5-1-1.5-1-3.1V7.1h-1.5v-.6c1.2-.1 2.6-.8 2.9-3.3h.4v3.3H48v.6h-3.2"/><path id="Fill-17" class="st0" d="M60.4 13.5c0 2.9 0 3 1.8 3v.6h-5.4v-.6c1.8 0 1.8-.1 1.8-3v-3.4c0-2.5-.7-3.2-2.3-3.2-1.2 0-2.4 1.2-3.2 2.3v4.3c0 2.8 0 3 1.7 3v.6h-5.3v-.6c1.8 0 1.8-.1 1.8-3V3.8c0-1.9 0-2.5-1.7-2.5V.8c1.1 0 2.5-.2 3.4-.6v8.1c1.3-1.4 2.5-2.2 3.8-2.2 2.3 0 3.5 1.2 3.5 3.7v3.7"/><path id="Fill-18" class="st0" d="M64.8 10h5.6c0-1.2-.4-3.4-2.6-3.4-2.1.1-2.9 2-3 3.4zm0 .6c0 .2-.1.6-.1.8 0 3.4 1.1 5.5 3.6 5.5 1.5 0 2.7-.7 3.4-2.1h.6c-.7 1.7-2.2 2.8-4.3 2.8-2.9 0-5.4-2.2-5.4-5.6 0-3.3 2.1-5.8 5.3-5.8 3 0 4.5 2 4.6 4.5h-7.7z"/><path id="Fill-19" class="st0" d="M86 14h.5c.3 1.3 1.2 3 3.6 3 2.2 0 2.4-1.4 2.4-1.9 0-1.3-1.4-1.9-3-2.5-2.4-.9-3.5-1.7-3.5-3.6 0-1.3 1-2.9 3.4-2.9 1.2 0 2.1.5 2.7 1.1.2-.2.5-.9.5-.9h.5v3.3h-.5c-.2-1.2-1.3-2.9-3.2-2.9-1.7 0-2.3.8-2.3 1.6 0 1.2 1 1.7 2.9 2.4 2.1.7 3.7 1.6 3.7 3.7 0 1.8-1.3 3.1-3.7 3.1-1.6 0-2.5-.6-3.1-1.2-.3.3-.5.8-.6 1.1H86V14"/><path id="Fill-20" class="st0" d="M98.6 7.1v6.4c0 1.5 0 3.1 1.6 3.1.9 0 1.4-.7 1.6-1.1l.4.2c-.8 1.7-2.5 1.7-2.7 1.7-.7 0-1.3-.2-1.7-.5-.7-.5-1-1.5-1-3.1V7.1h-1.5v-.6c1.2-.1 2.6-.8 2.9-3.3h.4v3.3h3.2v.6h-3.2"/><path id="Fill-21" class="st0" d="M105 10h5.6c0-1.2-.4-3.4-2.6-3.4-2.1.1-2.9 2-3 3.4zm0 .6c0 .2-.1.6-.1.8 0 3.4 1.1 5.5 3.6 5.5 1.5 0 2.7-.7 3.4-2.1h.6c-.7 1.7-2.2 2.8-4.3 2.8-2.9 0-5.4-2.2-5.4-5.6 0-3.3 2.1-5.8 5.3-5.8 3 0 4.5 2 4.6 4.5H105z"/><path id="Fill-22" class="st0" d="M117.4 13.5c0 2.7 0 3 1.6 3h.4v.6h-5.6v-.6c1.8 0 1.8-.1 1.8-3v-3c0-2.9 0-3-1.8-3v-.6c1.2-.2 2.6-.6 3-.7l.2-.1c.1.4.4 1.3.4 2.8.8-2 2.7-2.8 4.1-2.8 1.4 0 2 1 2 1.6 0 .5-.3 1-.9 1-.6 0-.9-.4-1-.8-.1-.3-.3-.8-.9-.8-1.1 0-3.1 1.3-3.1 4v2.4"/><path id="Fill-23" class="st0" d="M127.5 6.1c.2.6.3 1.6.3 2.2 1.3-1.5 2.5-2.2 4.1-2.2 2.4 0 3.3 1.7 3.3 3.5v3.9c0 2.9 0 3 1.7 3v.6h-5.4v-.6c1.8 0 1.8-.2 1.8-3v-3.4c0-2.4-.8-3.2-2.1-3.2-1.5 0-2.5 1.3-3.4 2.3v4.3c0 2.9 0 3 1.7 3v.6h-5.3v-.6c1.7 0 1.7-.2 1.7-3v-3.2c0-2.9 0-3-1.7-3v-.6c1.1-.2 2.4-.4 2.9-.6h.4"/><path id="Fill-24" class="st1" d="M80.7 14.9c-1.1.9-2.5 1.7-3.5 1.7-1.1 0-1.7-.8-1.7-1.8 0-1.5 1.4-2.8 3.6-3.5l1.5-.5v4.1zm3.7.3c-.2 1.2-.8 1.3-1.1 1.3-.8 0-.8-.6-.8-2.4V9.8c0-1.6-.2-3.7-3.8-3.7-2.6 0-4.2 1.4-4.2 2.4 0 .5.3.8.7.8.7 0 .9-.5 1.1-1.1.2-.7.6-1.5 2.3-1.5 2 0 2.2 1.3 2.2 2.8v.7l-2 .7c-3.7 1.3-4.8 2.8-4.8 4.3s1.2 2.3 2.7 2.3c1.3 0 2.6-.5 4.1-1.9.1.6.5 1.9 2 1.9 1.4 0 2.1-1 2.1-2.2h-.5z"/><text transform="translate(.8 36.4)" class="st2 st3">College of Engineering</text></symbol><use xlink:href="#logo-mobile" y="1647.596" width="252" height="40"/><symbol id="logo-small" viewBox="0 0 191 41"><g id="Symbols" stroke="none" stroke-width="1" fill="none" fill-rule="evenodd"><g id="Dept-Header" transform="translate(-1208 -118)" fill="#FFFFFE"><g id="Group-13" transform="translate(1208 118)"><path d="M12.735 28.674l-3.01.76c-.512-1.255-1.256-1.873-2.584-1.873-1.805 0-2.92 1.396-2.92 3.903 0 2.508 1.045 3.975 2.973 3.975 1.505 0 2.32-.76 2.85-2.155l2.956.882C12.01 36.693 9.743 38 7.088 38 3.956 38 1 36.11 1 31.482 1 26.943 3.956 25 7.124 25c2.372 0 4.567.972 5.611 3.674" id="Fill-49"/><path d="M17.045 32.964c0 1.809.727 2.713 1.955 2.713 1.211 0 1.938-.904 1.938-2.713 0-1.843-.761-2.64-1.938-2.64-1.194 0-1.955.797-1.955 2.64zM24 33c0 2.996-1.938 5-5 5-3.166 0-5-2.074-5-5 0-2.943 1.87-5 5-5 3.08 0 5 2.145 5 5z" id="Fill-50"/><path id="Fill-51" d="M25 38h3V25h-3z"/><path id="Fill-52" d="M30 38h3V25h-3z"/><path d="M37.191 31.954h3.655c-.074-1.312-.76-1.862-1.837-1.862-.964 0-1.724.532-1.818 1.862zM44 33.195v.532h-6.79c.093 1.365.927 2.04 2.17 2.04 1.04 0 1.651-.498 2.097-1.171l2.449 1.117C42.96 37.167 41.42 38 39.214 38 35.986 38 34 35.908 34 33c0-2.925 1.855-5 5.028-5C42.108 28 44 29.986 44 33.195z" id="Fill-53"/><path d="M47.244 30.897c0 .734.533 1.217 1.472 1.217.94 0 1.49-.465 1.49-1.234 0-.77-.532-1.252-1.472-1.252-.957 0-1.49.501-1.49 1.27zm-.3 6.384c-.338.233-.48.5-.48.822 0 .572.39.912 2.11.912 1.49 0 2.057-.34 2.057-.93 0-.608-.461-.804-1.613-.804h-2.075zM54 29.396c-.638 0-.957.036-1.33.16.32.43.443.93.443 1.467 0 1.734-1.383 3.11-4.255 3.11-.71 0-1.294-.107-1.826-.285-.142.16-.248.34-.248.537 0 .392.266.625 1.188.625h1.542c2.82 0 4.166 1.216 4.166 2.915 0 1.894-1.648 3.075-4.999 3.075-3.6 0-4.681-1.037-4.681-2.432 0-.804.479-1.466 1.365-1.86-.674-.393-.94-1-.94-1.609 0-.679.48-1.34 1.207-1.805-.834-.52-1.348-1.36-1.348-2.343 0-1.806 1.436-3.218 4.361-3.218 1.046 0 1.898.214 2.553.519C51.82 27.5 52.706 27.018 54 27v2.396z" id="Fill-54"/><path d="M57.191 31.954h3.655c-.074-1.312-.76-1.862-1.836-1.862-.965 0-1.725.532-1.819 1.862zM64 33.195v.532h-6.79c.093 1.365.927 2.04 2.17 2.04 1.04 0 1.651-.498 2.097-1.171l2.45 1.117C62.96 37.167 61.42 38 59.213 38 55.986 38 54 35.908 54 33c0-2.925 1.855-5 5.029-5C62.108 28 64 29.986 64 33.195z" id="Fill-55"/><path d="M71.045 32.964c0 1.809.727 2.713 1.955 2.713 1.211 0 1.938-.904 1.938-2.713 0-1.843-.761-2.64-1.938-2.64-1.194 0-1.955.797-1.955 2.64zM78 33c0 2.996-1.938 5-5 5-3.166 0-5-2.074-5-5 0-2.943 1.87-5 5-5 3.08 0 5 2.145 5 5z" id="Fill-56"/><path d="M86 25.38v2.116c-.487-.145-1.12-.271-1.678-.271-.703 0-.992.18-.992.795v.542h2.291v2.134H83.33V38h-3.031v-7.304H79v-2.134h1.299v-.777c0-1.663.992-2.785 3.355-2.785a7.97 7.97 0 0 1 2.346.38" id="Fill-57"/><path id="Fill-58" d="M98.835 27.656H93.22v2.433h5.231v2.563H93.22v2.693H99V38h-9V25h8.835v2.656"/><path d="M109 31.654V38h-2.988v-5.473c0-1.327-.32-1.963-1.316-1.963-1.014 0-1.707.855-1.707 2.145V38H100v-9.727h2.864v1.309c.712-1.11 1.744-1.582 3.006-1.582 1.974 0 3.13 1.31 3.13 3.654" id="Fill-59"/><path d="M113.244 30.897c0 .734.532 1.217 1.472 1.217s1.489-.465 1.489-1.234c0-.77-.531-1.252-1.471-1.252-.958 0-1.49.501-1.49 1.27zm-.3 6.384c-.338.233-.48.5-.48.822 0 .572.39.912 2.11.912 1.49 0 2.057-.34 2.057-.93 0-.608-.461-.804-1.613-.804h-2.075zM120 29.396c-.638 0-.958.036-1.33.16.32.43.443.93.443 1.467 0 1.734-1.383 3.11-4.255 3.11-.71 0-1.294-.107-1.826-.285-.143.16-.248.34-.248.537 0 .392.266.625 1.188.625h1.541c2.82 0 4.167 1.216 4.167 2.915 0 1.894-1.648 3.075-5 3.075-3.6 0-4.68-1.037-4.68-2.432 0-.804.479-1.466 1.365-1.86-.674-.393-.94-1-.94-1.609 0-.679.48-1.34 1.206-1.805-.833-.52-1.347-1.36-1.347-2.343 0-1.806 1.436-3.218 4.361-3.218 1.046 0 1.897.214 2.553.519.62-.751 1.508-1.234 2.802-1.252v2.396z" id="Fill-60"/><path d="M121.187 38h2.626v-9.506h-2.626V38zM124 25.616c0 .906-.704 1.617-1.5 1.617-.798 0-1.5-.71-1.5-1.617 0-.906.702-1.616 1.5-1.616.796 0 1.5.71 1.5 1.616z" id="Fill-61"/><path d="M135 31.654V38h-2.988v-5.473c0-1.327-.32-1.963-1.316-1.963-1.014 0-1.708.855-1.708 2.145V38H126v-9.727h2.863v1.309c.712-1.11 1.744-1.582 3.007-1.582 1.974 0 3.13 1.31 3.13 3.654" id="Fill-62"/><path d="M139.191 31.954h3.655c-.073-1.312-.76-1.862-1.836-1.862-.965 0-1.726.532-1.819 1.862zM146 33.195v.532h-6.79c.093 1.365.927 2.04 2.171 2.04 1.038 0 1.65-.498 2.097-1.171l2.448 1.117C144.96 37.167 143.42 38 141.214 38c-3.228 0-5.214-2.092-5.214-5 0-2.925 1.855-5 5.028-5 3.08 0 4.972 1.986 4.972 5.195z" id="Fill-63"/><path d="M149.191 31.954h3.655c-.073-1.312-.76-1.862-1.836-1.862-.965 0-1.726.532-1.819 1.862zM156 33.195v.532h-6.79c.093 1.365.927 2.04 2.17 2.04 1.04 0 1.651-.498 2.098-1.171l2.448 1.117C154.96 37.167 153.42 38 151.214 38c-3.228 0-5.214-2.092-5.214-5 0-2.925 1.855-5 5.029-5 3.079 0 4.971 1.986 4.971 5.195z" id="Fill-64"/><path d="M163 28.055v2.909c-.33-.018-.451-.018-.572-.018-1.406 0-2.515.618-2.515 3.273V38H157v-9.727h2.792v1.564c.641-1.346 1.526-1.837 2.497-1.837.243 0 .468.018.711.055" id="Fill-65"/><path d="M164.187 38h2.625v-9.506h-2.625V38zM167 25.616c0 .906-.704 1.617-1.5 1.617-.798 0-1.5-.71-1.5-1.617 0-.906.702-1.616 1.5-1.616.796 0 1.5.71 1.5 1.616z" id="Fill-66"/><path d="M178 31.654V38h-2.989v-5.473c0-1.327-.32-1.963-1.316-1.963-1.013 0-1.708.855-1.708 2.145V38H169v-9.727h2.863v1.309c.712-1.11 1.744-1.582 3.006-1.582 1.974 0 3.131 1.31 3.131 3.654" id="Fill-67"/><path d="M182.244 30.897c0 .734.533 1.217 1.472 1.217.94 0 1.489-.465 1.489-1.234 0-.77-.531-1.252-1.47-1.252-.958 0-1.49.501-1.49 1.27zm-.3 6.384c-.338.233-.48.5-.48.822 0 .572.39.912 2.11.912 1.49 0 2.057-.34 2.057-.93 0-.608-.461-.804-1.613-.804h-2.075zM189 29.396c-.638 0-.958.036-1.33.16.32.43.443.93.443 1.467 0 1.734-1.382 3.11-4.255 3.11a5.622 5.622 0 0 1-1.826-.285c-.142.16-.248.34-.248.537 0 .392.266.625 1.188.625h1.542c2.82 0 4.166 1.216 4.166 2.915 0 1.894-1.648 3.075-5 3.075-3.598 0-4.68-1.037-4.68-2.432 0-.804.479-1.466 1.365-1.86-.674-.393-.94-1-.94-1.609 0-.679.48-1.34 1.207-1.805-.834-.52-1.348-1.36-1.348-2.343 0-1.806 1.436-3.218 4.361-3.218 1.046 0 1.898.214 2.553.519.62-.751 1.508-1.234 2.802-1.252v2.396z" id="Fill-68"/><path d="M111.382 2.2l.01 4.98c.006 3.22 1.687 5.459 5.923 5.451 4.235-.007 5.908-2.252 5.903-5.406l-.007-4c-.004-1.944.544-2.443 1.49-2.71V0l-4.02.008v.514c.948.264 1.497.76 1.5 2.704l.008 4.001c.004 2.805-1.472 4.103-4.263 4.108-2.773.005-4.27-1.287-4.275-4.093l-.01-5.047c-.002-1.262.364-1.478 1.41-1.63l-.001-.547-5.05.009v.547c1.048.148 1.38.363 1.382 1.625zm18.123 9.73c-.947-.132-1.097-.364-1.099-1.277l-.006-3.835c.828-.75 1.509-1.116 2.107-1.117.814-.001 1.047.414 1.049 1.16l.007 3.786c.001.913-.149 1.146-1.095 1.28l.001.515 4.27-.008-.002-.514c-.947-.131-1.096-.363-1.098-1.277l-.008-3.968c-.002-1.328-.568-2.273-2.246-2.27-1.03.002-2.042.634-3.036 1.483l-.004-1.594-.764.001-2.405 1.581v.366l1.147-.002.007 4.416c.002.913-.147 1.146-1.094 1.28v.515l4.27-.008-.001-.514zm8.372-8.898c.698-.001 1.262-.567 1.26-1.28 0-.632-.484-1.146-1.131-1.144-.731 0-1.279.567-1.277 1.264 0 .647.484 1.161 1.148 1.16zm2.375 8.878c-1.031-.147-1.18-.363-1.182-1.276l-.012-6.359-.813.002-2.44 1.598.002.365 1.178-.003.009 4.4c0 .914-.164 1.13-1.177 1.28v.516l4.435-.008v-.515zm7.581-5.077c.612-1.363.812-1.662 1.458-1.83V4.54l-3.272.006v.465c1.08.23 1.198.777.702 1.942l-1.258 3.006-1.568-3.533c-.333-.78-.284-1.229.863-1.364l-.002-.514-4.368.008v.514c.516.132.732.348 1.166 1.277l2.85 6.154.865-.001 2.564-5.666zm8.711 4.069l-.45-.349a2.529 2.529 0 0 1-1.908.868c-1.528.002-2.394-1.158-2.712-2.669l4.98-1.669c-.102-1.76-1.4-2.72-3.044-2.717-2.309.004-4 1.866-3.995 4.174.004 2.291 1.468 4.032 4.042 4.027 1.579-.002 2.524-.701 3.087-1.665zm-5.205-3.528c-.002-1.344.56-2.143 1.657-2.144.765-.002 1.246.546 1.448 1.624l-3.087 1.068a5.98 5.98 0 0 1-.018-.548zm10.407 4.498c-1.081-.164-1.23-.397-1.233-1.426l-.006-3.42c.332-.598.646-1.03.978-1.33 0 .648.45 1.062 1.015 1.061.565 0 1.112-.45 1.11-1.314-.001-.73-.417-1.177-1.148-1.176-.814.001-1.444.683-2.04 1.647l-.003-1.677-.731.001-2.406 1.582.001.365 1.146-.001.008 4.415c.001.913-.147 1.146-1.094 1.28l.001.516 4.402-.009v-.514zm8.649-1.94c-.003-1.545-1.282-2.024-2.48-2.404-1.18-.38-1.993-.628-1.995-1.49-.001-.466.347-.898 1.029-.9.846 0 1.595.513 2.493 1.524l.432-.2-.634-2.058h-.267l-.298.25a3.974 3.974 0 0 0-1.562-.313c-1.761.004-2.905 1.019-2.902 2.546.002 1.544 1.282 1.99 2.479 2.387 1.18.396 1.994.627 1.996 1.506 0 .549-.413.964-1.212.966-1.113.002-1.96-.727-2.976-2.02l-.448.167.652 2.588h.283l.48-.35a4.184 4.184 0 0 0 1.845.412c1.695-.003 3.088-1.001 3.085-2.612zm2.895-6.962a1.266 1.266 0 0 0 1.26-1.282c-.002-.63-.484-1.144-1.132-1.143a1.256 1.256 0 0 0-1.277 1.264c.002.647.484 1.161 1.149 1.16zm2.374 8.877c-1.031-.147-1.18-.362-1.182-1.276l-.01-6.359-.815.002-2.44 1.598.002.365 1.178-.002.009 4.4c.002.913-.164 1.129-1.177 1.28v.515l4.436-.008-.001-.515zm6.311-.244l-.25-.53c-.448.2-.847.3-1.196.301-.78 0-.98-.397-.98-.945l-.01-4.997 2.11-.004-.002-.946-2.11.003-.002-1.543h-.299l-2.987 1.965.001.53 1.212-.001.01 5.429c.002 1.08.618 1.659 1.831 1.656.947 0 1.876-.318 2.672-.918zm4.438 2.085l3.127-6.93c.613-1.362.811-1.66 1.46-1.827v-.466l-3.274.006v.465c1.08.231 1.199.778.702 1.941l-1.257 3.008-1.568-3.534c-.333-.78-.285-1.228.862-1.363l-.001-.514-4.368.007v.515c.516.132.715.348 1.165 1.276l2.785 5.972-.464.997c-.264.582-.513 1.014-.794 1.263-.201-.68-.584-1.045-1.182-1.043-.599 0-1.112.4-1.11 1.18 0 .78.633 1.36 1.381 1.359 1.063-.002 1.726-.534 2.536-2.312z" id="Fill-69"/><path d="M13.606 3.886c-.004-1.887.544-2.37 1.49-2.631v-.5l-4.024.007.002.5c.947.256 1.498.74 1.5 2.625l.01 5.676-8.493-8.289c-.466-.45-.65-.498-.95-.498L0 .782v.5c.683.062 1.082.32 1.864 1.044.25.225.484.5.485.95l.011 6.466c.004 1.886-.544 2.37-1.491 2.63v.5l4.024-.007-.001-.5c-.948-.256-1.497-.739-1.501-2.625L3.38 3.646l9.56 9.286.682-.001-.016-9.045zm10.848 5.028c-.004-2.112-1.47-3.883-4.147-3.88-2.693.006-4.302 1.895-4.298 4.088.004 2.112 1.47 3.883 4.147 3.878 2.693-.004 4.303-1.893 4.298-4.086zM18.086 8.2c-.004-1.45.644-2.37 2.007-2.374 1.762-.002 2.282 2.093 2.285 4.011.002 1.451-.644 2.372-2.008 2.374-1.762.004-2.28-2.092-2.284-4.01zm12.011 4.124c-1.081-.16-1.231-.385-1.233-1.385l-.006-3.322c.332-.58.647-1 .979-1.291 0 .628.45 1.031 1.016 1.03.565 0 1.113-.437 1.11-1.276 0-.709-.417-1.143-1.148-1.143-.814.002-1.445.664-2.042 1.6l-.003-1.628-.731.002-2.409 1.535.001.355 1.147-.002.008 4.288c.002.888-.148 1.113-1.095 1.244l.001.5 4.406-.007-.001-.5zm8.146-.24l-.25-.516c-.449.194-.848.292-1.198.292-.78.002-.98-.385-.982-.917l-.009-4.853 2.112-.003-.002-.92-2.112.004L35.8 3.67h-.3L32.511 5.58l.001.516 1.214-.002.01 5.272c.002 1.048.618 1.611 1.832 1.609a4.547 4.547 0 0 0 2.675-.891zm4.771.217c-.947-.127-1.098-.352-1.1-1.24l-.005-3.74c.796-.71 1.41-1.067 2.109-1.068.814-.001 1.048.401 1.05 1.128l.006 3.675c.001.887-.148 1.113-1.096 1.244l.001.5 4.274-.008-.002-.5c-.947-.127-1.097-.352-1.099-1.24l-.007-3.853c-.002-1.29-.57-2.208-2.248-2.205-1.014.002-2.011.584-2.99 1.392L41.893 0h-.614L38.606 1.7v.354l1.214-.002.016 9.013c.002.887-.146 1.113-1.094 1.244v.5l4.274-.008-.002-.5zm13.233-.974l-.45-.337c-.447.5-1.128.84-1.91.84-1.53.004-2.396-1.123-2.714-2.59l4.984-1.621c-.103-1.709-1.4-2.642-3.046-2.64-2.312.005-4.004 1.814-4 4.055.003 2.225 1.47 3.915 4.047 3.91 1.579-.002 2.526-.68 3.09-1.617zm-5.21-3.425c-.002-1.306.562-2.081 1.659-2.083.765-.002 1.248.53 1.449 1.578l-3.09 1.037c-.018-.178-.018-.355-.018-.532zm11.796 4.962c.716-.001 1.48-.326 1.978-.665l-.15-.451c-.816.146-1.115.034-1.116-.498l-.007-4.305c-.003-1.29-.586-1.981-2.464-1.979-2.112.004-3.656 1.103-3.654 2.135 0 .5.35.918.949.917.682 0 1.013-.437 1.112-.872.1-.5-.068-.87-.318-1.08a2.96 2.96 0 0 1 1.263-.292c.716-.001 1.065.24 1.066.868l.003 1.613c-2.975.715-4.337 1.346-4.334 2.877.002 1.177.785 1.805 2.015 1.802.781 0 1.678-.325 2.442-.906.117.531.5.837 1.215.836zm-3.661-2.155c-.001-.822.38-1.21 2.324-1.729l.005 2.338c-.465.356-.88.518-1.296.518-.648.001-1.032-.336-1.033-1.127zm12.8-.328c-.002-1.5-1.283-1.964-2.48-2.334-1.181-.368-1.997-.609-1.998-1.447-.001-.452.347-.871 1.029-.873.848-.001 1.597.498 2.496 1.48l.432-.195-.635-1.998h-.266l-.299.243a4.08 4.08 0 0 0-1.563-.304c-1.762.003-2.908.989-2.905 2.472.002 1.5 1.284 1.933 2.481 2.317 1.182.386 1.996.61 1.998 1.464 0 .533-.413.936-1.212.938-1.114.001-1.963-.707-2.98-1.962l-.448.162.653 2.514h.283l.481-.34a4.3 4.3 0 0 0 1.847.4c1.696-.003 3.09-.973 3.087-2.537zm6.288 1.634l-.25-.515c-.448.193-.847.292-1.196.292-.782.001-.982-.386-.983-.918l-.009-4.852 2.112-.004-.002-.92-2.111.005-.003-1.5h-.3L72.53 5.51v.516l1.214-.002.01 5.272c.002 1.049.618 1.611 1.831 1.61a4.54 4.54 0 0 0 2.675-.892zm7.68-.739l-.45-.337c-.447.5-1.128.84-1.91.841-1.529.003-2.396-1.124-2.715-2.59l4.985-1.622c-.102-1.708-1.401-2.642-3.047-2.64-2.311.005-4.003 1.813-4 4.055.005 2.225 1.471 3.916 4.047 3.91 1.58-.002 2.526-.68 3.09-1.617zM80.73 7.85c-.002-1.306.562-2.08 1.66-2.083.764-.001 1.247.53 1.448 1.578l-3.09 1.037a5.642 5.642 0 0 1-.018-.532zm10.416 4.368c-1.08-.16-1.23-.385-1.233-1.385l-.006-3.32c.332-.582.646-1.002.979-1.293 0 .63.45 1.031 1.015 1.03.566 0 1.114-.437 1.112-1.275-.001-.71-.417-1.144-1.149-1.143-.815.001-1.446.663-2.042 1.6l-.003-1.629-.732.002L86.68 6.34v.355l1.148-.002.007 4.288c.002.888-.147 1.114-1.095 1.244v.5l4.407-.007v-.5zm6.617-.012c-.948-.127-1.098-.353-1.1-1.24l-.007-3.724c.83-.727 1.51-1.082 2.11-1.084.814 0 1.048.402 1.049 1.127l.006 3.676c.002.887-.146 1.113-1.094 1.244v.5l4.273-.008v-.5c-.949-.127-1.099-.353-1.1-1.24l-.007-3.853c-.003-1.29-.57-2.208-2.248-2.205-1.031.002-2.044.617-3.04 1.44l-.003-1.547h-.765L93.429 6.33l.001.354 1.147-.001.008 4.288c.002.887-.148 1.113-1.095 1.244v.5l4.273-.008v-.5z" id="Fill-70"/></g></g></g></symbol><use xlink:href="#logo-small" y="1689.596" width="191" height="41"/><symbol id="logo" viewBox="0 0 229 45"><path id="Fill-1" class="st0" d="M14.2 30.7l-3.4.9c-.6-1.4-1.4-2.1-2.9-2.1-2 0-3.3 1.6-3.3 4.4 0 2.8 1.2 4.5 3.4 4.5 1.7 0 2.6-.9 3.2-2.4l3.3 1c-1.1 2.9-3.7 4.3-6.7 4.3-3.5 0-6.9-2.1-6.9-7.4 0-5.1 3.3-7.3 6.9-7.3 2.8-.1 5.3 1 6.4 4.1"/><path id="Fill-2" class="st0" d="M18.9 35.5c0 2 .8 3.1 2.3 3.1 1.4 0 2.2-1 2.2-3.1s-.9-3-2.2-3c-1.4 0-2.3.9-2.3 3zm8 0c0 3.4-2.2 5.6-5.8 5.6-3.7 0-5.8-2.3-5.8-5.6s2.2-5.6 5.8-5.6c3.6 0 5.8 2.4 5.8 5.6z"/><path id="Fill-3" class="st0" d="M28.3 40.9h3.4v-14h-3.4z"/><path id="Fill-4" class="st0" d="M33.6 40.9h3.3v-14h-3.3z"/><path id="Fill-5" class="st0" d="M41.7 34.4h3.9c-.1-1.5-.8-2.1-2-2.1-1 0-1.8.6-1.9 2.1zm7.4 1.4v.6h-7.3c.1 1.5 1 2.3 2.3 2.3 1.1 0 1.8-.6 2.3-1.3l2.6 1.3c-1 1.6-2.7 2.6-5.1 2.6-3.5 0-5.6-2.4-5.6-5.6 0-3.3 2-5.6 5.4-5.6 3.3-.2 5.4 2 5.4 5.7z"/><path id="Fill-6" class="st0" d="M53.4 33.4c0 .8.6 1.4 1.7 1.4s1.7-.5 1.7-1.4c0-.9-.6-1.4-1.7-1.4s-1.7.6-1.7 1.4zm-.4 7.2c-.4.3-.5.6-.5.9 0 .6.4 1 2.4 1 1.7 0 2.3-.4 2.3-1 0-.7-.5-.9-1.8-.9H53zm8-8.8c-.7 0-1.1 0-1.5.2.4.5.5 1 .5 1.6 0 1.9-1.6 3.5-4.8 3.5-.8 0-1.5-.1-2.1-.3-.2.2-.3.4-.3.6 0 .4.3.7 1.3.7h1.7c3.2 0 4.7 1.4 4.7 3.3 0 2.1-1.9 3.4-5.6 3.4-4.1 0-5.3-1.2-5.3-2.7 0-.9.5-1.6 1.5-2.1-.8-.4-1.1-1.1-1.1-1.8 0-.8.5-1.5 1.4-2-.9-.6-1.5-1.5-1.5-2.6 0-2 1.6-3.6 4.9-3.6 1.2 0 2.1.2 2.9.6.7-.8 1.7-1.4 3.2-1.4v2.6z"/><path id="Fill-7" class="st0" d="M64.7 34.4h3.9c-.1-1.5-.8-2.1-2-2.1-1 0-1.8.6-1.9 2.1zm7.3 1.4v.6h-7.3c.1 1.5 1 2.3 2.3 2.3 1.1 0 1.8-.6 2.3-1.3l2.6 1.3c-1 1.6-2.7 2.6-5.1 2.6-3.5 0-5.6-2.4-5.6-5.6 0-3.3 2-5.6 5.4-5.6 3.4-.2 5.4 2 5.4 5.7z"/><path id="Fill-8" class="st0" d="M80.4 35.5c0 2 .8 3.1 2.3 3.1 1.4 0 2.2-1 2.2-3.1s-.9-3-2.2-3c-1.4 0-2.3.9-2.3 3zm8 0c0 3.4-2.2 5.6-5.8 5.6-3.7 0-5.8-2.3-5.8-5.6s2.2-5.6 5.8-5.6c3.6 0 5.8 2.4 5.8 5.6z"/><path id="Fill-9" class="st0" d="M96.6 26.9v2.3c-.6-.1-1.3-.2-1.9-.2-.8 0-1.1.2-1.1.9v.6h2.5v2.4h-2.5V41h-3.4v-8.1h-1.4v-2.4h1.4v-.9c0-1.8 1.1-3.1 3.7-3.1 1.1 0 2 .2 2.7.4"/><path id="Fill-10" class="st0" d="M110.9 29.8h-6.1v2.6h5.7v2.7h-5.7V38h6.3v2.9h-9.9v-14h9.7v2.9"/><path id="Fill-11" class="st0" d="M122.8 33.9v7h-3.4v-6c0-1.5-.4-2.2-1.5-2.2s-1.9.9-1.9 2.4v5.8h-3.4V30.2h3.2v1.4c.8-1.2 2-1.7 3.4-1.7 2.3 0 3.6 1.4 3.6 4"/><path id="Fill-12" class="st0" d="M127.6 33.4c0 .8.6 1.4 1.7 1.4s1.7-.5 1.7-1.4c0-.9-.6-1.4-1.7-1.4s-1.7.6-1.7 1.4zm-.3 7.2c-.4.3-.5.6-.5.9 0 .6.4 1 2.4 1 1.7 0 2.3-.4 2.3-1 0-.7-.5-.9-1.8-.9h-2.4zm8-8.8c-.7 0-1.1 0-1.5.2.4.5.5 1 .5 1.6 0 1.9-1.6 3.5-4.8 3.5-.8 0-1.5-.1-2.1-.3-.2.2-.3.4-.3.6 0 .4.3.7 1.3.7h1.7c3.2 0 4.7 1.4 4.7 3.3 0 2.1-1.9 3.4-5.6 3.4-4.1 0-5.3-1.2-5.3-2.7 0-.9.5-1.6 1.5-2.1-.8-.4-1.1-1.1-1.1-1.8 0-.8.5-1.5 1.4-2-.9-.6-1.5-1.5-1.5-2.6 0-2 1.6-3.6 4.9-3.6 1.2 0 2.1.2 2.9.6.7-.8 1.7-1.4 3.2-1.4v2.6z"/><path id="Fill-13" class="st0" d="M136.2 40.9h3.4V30.2h-3.4v10.7zm3.6-13.9c0 1-.9 1.8-1.9 1.8-1 0-1.9-.8-1.9-1.8s.9-1.8 1.9-1.8c1-.1 1.9.7 1.9 1.8z"/><path id="Fill-14" class="st0" d="M151.6 33.9v7h-3.4v-6c0-1.5-.4-2.2-1.5-2.2s-1.9.9-1.9 2.4v5.8h-3.4V30.2h3.2v1.4c.8-1.2 2-1.7 3.4-1.7 2.3 0 3.6 1.4 3.6 4"/><path id="Fill-15" class="st0" d="M156.3 34.4h3.9c-.1-1.5-.8-2.1-2-2.1-1 0-1.8.6-1.9 2.1zm7.4 1.4v.6h-7.3c.1 1.5 1 2.3 2.3 2.3 1.1 0 1.8-.6 2.3-1.3l2.6 1.3c-1 1.6-2.7 2.6-5.1 2.6-3.5 0-5.6-2.4-5.6-5.6 0-3.3 2-5.6 5.4-5.6 3.3-.2 5.4 2 5.4 5.7z"/><path id="Fill-16" class="st0" d="M167.9 34.4h3.9c-.1-1.5-.8-2.1-2-2.1-.9 0-1.8.6-1.9 2.1zm7.4 1.4v.6H168c.1 1.5 1 2.3 2.3 2.3 1.1 0 1.8-.6 2.3-1.3l2.6 1.3c-1 1.6-2.7 2.6-5.1 2.6-3.5 0-5.6-2.4-5.6-5.6 0-3.3 2-5.6 5.4-5.6 3.3-.2 5.4 2 5.4 5.7z"/><path id="Fill-17" class="st0" d="M183.6 30v3.2h-.7c-1.6 0-2.9.7-2.9 3.6V41h-3.4V30.2h3.2v1.7c.7-1.5 1.8-2 2.9-2 .3 0 .6 0 .9.1"/><path id="Fill-18" class="st0" d="M184.4 40.9h3.4V30.2h-3.4v10.7zm3.7-13.9c0 1-.9 1.8-1.9 1.8-1 0-1.9-.8-1.9-1.8s.9-1.8 1.9-1.8c1-.1 1.9.7 1.9 1.8z"/><path id="Fill-19" class="st0" d="M199.8 33.9v7h-3.4v-6c0-1.5-.4-2.2-1.5-2.2s-1.9.9-1.9 2.4v5.8h-3.4V30.2h3.2v1.4c.8-1.2 2-1.7 3.4-1.7 2.3 0 3.6 1.4 3.6 4"/><path id="Fill-20" class="st0" d="M204.6 33.4c0 .8.6 1.4 1.7 1.4s1.7-.5 1.7-1.4c0-.9-.6-1.4-1.7-1.4s-1.7.6-1.7 1.4zm-.3 7.2c-.4.3-.5.6-.5.9 0 .6.4 1 2.4 1 1.7 0 2.3-.4 2.3-1 0-.7-.5-.9-1.8-.9h-2.4zm7.9-8.8c-.7 0-1.1 0-1.5.2.4.5.5 1 .5 1.6 0 1.9-1.6 3.5-4.8 3.5-.8 0-1.5-.1-2.1-.3-.2.2-.3.4-.3.6 0 .4.3.7 1.3.7h1.7c3.2 0 4.7 1.4 4.7 3.3 0 2.1-1.9 3.4-5.6 3.4-4.1 0-5.3-1.2-5.3-2.7 0-.9.5-1.6 1.5-2.1-.8-.4-1.1-1.1-1.1-1.8 0-.8.5-1.5 1.4-2-.9-.6-1.5-1.5-1.5-2.6 0-2 1.6-3.6 4.9-3.6 1.2 0 2.1.2 2.9.6.7-.8 1.7-1.4 3.2-1.4v2.6z"/><path id="Fill-21" class="st0" d="M133 4.2v5.9c0 3.8 2 6.5 7.1 6.5s7.1-2.7 7-6.5V5.3c0-2.3.6-2.9 1.8-3.2v-.6h-4.8v.6c1.1.3 1.8.9 1.8 3.2v4.8c0 3.4-1.8 4.9-5.1 4.9s-5.1-1.5-5.1-4.9v-6c0-1.5.4-1.8 1.7-1.9v-.7h-6v.7c1.2.2 1.6.5 1.6 2zm21.7 11.6c-1.1-.2-1.3-.4-1.3-1.5V9.7c1-.9 1.8-1.3 2.5-1.3 1 0 1.2.5 1.3 1.4v4.5c0 1.1-.2 1.4-1.3 1.5v.6h5.1v-.6c-1.1-.2-1.3-.4-1.3-1.5V9.6c0-1.6-.7-2.7-2.7-2.7-1.2 0-2.4.8-3.6 1.8V6.8h-.9l-2.9 1.9V9h1.4v5.3c0 1.1-.2 1.4-1.3 1.5v.6h5.1l-.1-.6zm10-10.6c.8 0 1.5-.7 1.5-1.5s-.6-1.4-1.3-1.4c-.9 0-1.5.7-1.5 1.5-.1.7.5 1.4 1.3 1.4zm2.8 10.6c-1.2-.2-1.4-.4-1.4-1.5V6.7h-1l-2.9 1.9V9h1.4v5.3c0 1.1-.2 1.3-1.4 1.5v.6h5.3v-.6zm9-6.1c.7-1.6 1-2 1.7-2.2v-.6h-3.9v.6c1.3.3 1.4.9.8 2.3l-1.5 3.6-1.9-4.2c-.4-.9-.3-1.5 1-1.6V7h-5.2v.6c.6.2.9.4 1.4 1.5l3.4 7.3h1l3.2-6.7zm10.4 4.9l-.5-.4c-.5.6-1.3 1-2.3 1-1.8 0-2.9-1.4-3.2-3.2l5.9-2c-.1-2.1-1.7-3.2-3.6-3.2-2.8 0-4.8 2.2-4.8 5 0 2.7 1.8 4.8 4.8 4.8 1.9-.1 3.1-.9 3.7-2zm-6.2-4.3c0-1.6.7-2.6 2-2.6.9 0 1.5.7 1.7 1.9l-3.7 1.3v-.6zm12.4 5.4c-1.3-.2-1.5-.5-1.5-1.7V9.9c.4-.7.8-1.2 1.2-1.6 0 .8.5 1.3 1.2 1.3s1.3-.5 1.3-1.6c0-.9-.5-1.4-1.4-1.4-1 0-1.7.8-2.4 2v-2h-.9l-2.9 1.9v.4h1.4v5.3c0 1.1-.2 1.4-1.3 1.5v.6h5.3v-.6zm10.4-2.3c0-1.8-1.5-2.4-3-2.9-1.4-.5-2.4-.7-2.4-1.8 0-.6.4-1.1 1.2-1.1 1 0 1.9.6 3 1.8l.5-.2-.8-2.5h-.3l-.4.3c-.6-.2-1.2-.4-1.9-.4-2.1 0-3.5 1.2-3.5 3s1.5 2.4 3 2.8c1.4.5 2.4.8 2.4 1.8 0 .7-.5 1.1-1.4 1.2-1.3 0-2.3-.9-3.6-2.4l-.5.2.8 3.1h.3l.6-.4c.7.3 1.4.5 2.2.5 2.1.1 3.8-1.1 3.8-3zm3.4-8.3c.8 0 1.5-.7 1.5-1.5s-.6-1.4-1.4-1.4c-.9 0-1.5.7-1.5 1.5s.6 1.4 1.4 1.4zm2.9 10.6c-1.2-.2-1.4-.4-1.4-1.5V6.6h-1l-2.9 1.9v.4h1.4v5.3c0 1.1-.2 1.3-1.4 1.5v.6h5.3v-.6zm7.5-.3l-.3-.6c-.5.2-1 .4-1.4.4-.9 0-1.2-.5-1.2-1.1v-6h2.5V7h-2.5V5.2h-.4l-3.6 2.3v.6h1.4v6.5c0 1.3.7 2 2.2 2 1.2-.1 2.3-.5 3.3-1.2zm5.3 2.5l3.7-8.3c.7-1.6 1-2 1.7-2.2v-.6h-3.9v.6c1.3.3 1.4.9.8 2.3l-1.5 3.6-1.9-4.2c-.4-.9-.3-1.5 1-1.6v-.6h-5.2v.6c.6.2.9.4 1.4 1.5l3.3 7.1-.6 1.2c-.3.7-.6 1.2-.9 1.5-.2-.8-.7-1.2-1.4-1.2s-1.3.5-1.3 1.4c0 .9.8 1.6 1.6 1.6 1.4 0 2.2-.6 3.2-2.7z"/><path id="Fill-22" class="st0" d="M16.8 5.6c0-2.3.6-2.9 1.8-3.2v-.6h-4.8v.6c1.1.3 1.8.9 1.8 3.2v7L5.5 2.4c-.6-.5-.8-.6-1.2-.6H.6v.6c.8.1 1.3.4 2.2 1.3.3.3.6.6.6 1.2v7.9c0 2.3-.7 2.9-1.8 3.2v.6h4.8V16c-1.1-.3-1.8-.9-1.8-3.2V5.3L16 16.7h.8V5.6zm12.9 6.2C29.7 9.2 28 7 24.8 7s-5.1 2.3-5.1 5c0 2.6 1.8 4.8 4.9 4.8 3.2 0 5.1-2.3 5.1-5zm-7.6-.9c0-1.8.8-2.9 2.4-2.9 2.1 0 2.7 2.6 2.7 4.9 0 1.8-.8 2.9-2.4 2.9-2 .1-2.6-2.5-2.7-4.9zM36.5 16c-1.3-.2-1.5-.5-1.5-1.7v-4.1c.4-.7.8-1.2 1.2-1.6 0 .8.5 1.3 1.2 1.3s1.3-.5 1.3-1.6c0-.9-.5-1.4-1.4-1.4-1 0-1.7.8-2.4 2v-2H34l-2.9 1.9v.4h1.4v5.3c0 1.1-.2 1.4-1.3 1.5v.6h5.3V16zm9.7-.3l-.3-.6c-.5.2-1 .4-1.4.4-.9 0-1.2-.5-1.2-1.1v-6h2.5V7.3h-2.5V5.5h-.4l-3.6 2.3v.6h1.4v6.5c0 1.3.7 2 2.2 2 1.2-.1 2.3-.5 3.3-1.2zm5.7.3c-1.1-.2-1.3-.4-1.3-1.5V9.9c.9-.9 1.7-1.3 2.5-1.3 1 0 1.2.5 1.3 1.4v4.5c0 1.1-.2 1.4-1.3 1.5v.6h5.1V16c-1.1-.2-1.3-.4-1.3-1.5V9.8c0-1.6-.7-2.7-2.7-2.7-1.2 0-2.4.7-3.6 1.7V.9h-.7L46.7 3v.4h1.4v11.1c0 1.1-.2 1.4-1.3 1.5v.6h5.1V16zm15.8-1.2l-.5-.4c-.5.6-1.3 1-2.3 1-1.8 0-2.9-1.4-3.2-3.2l5.9-2C67.4 8.1 65.9 7 63.9 7c-2.8 0-4.8 2.2-4.8 5 0 2.7 1.8 4.8 4.8 4.8 2 0 3.1-.9 3.8-2zm-6.3-4.2c0-1.6.7-2.6 2-2.6.9 0 1.5.7 1.7 1.9l-3.7 1.3v-.6zm14.1 6.1c.9 0 1.8-.4 2.4-.8l-.2-.6c-1 .2-1.3 0-1.3-.6V9.4c0-1.6-.7-2.4-2.9-2.4C70.9 7 69 8.3 69 9.6c0 .6.4 1.1 1.1 1.1.8 0 1.2-.5 1.3-1.1.1-.6-.1-1.1-.4-1.3.5-.2 1-.4 1.5-.4.9 0 1.3.3 1.3 1.1v2c-3.5.9-5.2 1.7-5.2 3.5 0 1.4.9 2.2 2.4 2.2.9 0 2-.4 2.9-1.1.3.7.8 1.1 1.6 1.1zM71.1 14c0-1 .5-1.5 2.8-2.1v2.9c-.6.4-1.1.6-1.5.6-.8 0-1.3-.4-1.3-1.4zm15.3-.4c0-1.8-1.5-2.4-3-2.9-1.4-.4-2.3-.7-2.3-1.7 0-.6.4-1.1 1.2-1.1 1 0 1.9.6 3 1.8l.5-.2L85 7h-.3l-.4.3c-.6-.2-1.2-.4-1.9-.4-2.1 0-3.5 1.2-3.5 3s1.5 2.4 3 2.8c1.4.5 2.4.7 2.4 1.8 0 .7-.5 1.1-1.4 1.2-1.3 0-2.3-.9-3.6-2.4l-.5.2.8 3.1h.3l.6-.4c.7.3 1.4.5 2.2.5 2 0 3.7-1.2 3.7-3.1zm7.5 2l-.3-.6c-.5.2-1 .4-1.4.4-.9 0-1.2-.5-1.2-1.1v-6h2.5V7.2H91V5.4h-.4L87 7.7v.6h1.4v6.5c0 1.3.7 2 2.2 2 1.2-.1 2.3-.5 3.3-1.2zm9.2-.9l-.5-.4c-.5.6-1.3 1-2.3 1-1.8 0-2.9-1.4-3.2-3.2l5.9-2c-.1-2.1-1.7-3.2-3.6-3.2-2.8 0-4.8 2.2-4.8 5 0 2.7 1.8 4.8 4.8 4.8 1.9 0 3-.8 3.7-2zm-6.3-4.2c0-1.6.7-2.6 2-2.6.9 0 1.5.7 1.7 1.9l-3.7 1.3v-.6zm12.5 5.4c-1.3-.2-1.5-.5-1.5-1.7v-4.1c.4-.7.8-1.2 1.2-1.6 0 .8.5 1.3 1.2 1.3s1.3-.5 1.3-1.6c0-.9-.5-1.4-1.4-1.4-1 0-1.7.8-2.4 2v-2h-.9l-2.9 1.9v.4h1.4v5.3c0 1.1-.2 1.4-1.3 1.5v.6h5.3v-.6zm7.9 0c-1.1-.2-1.3-.4-1.3-1.5V9.8c1-.9 1.8-1.3 2.5-1.3 1 0 1.2.5 1.3 1.4v4.5c0 1.1-.2 1.4-1.3 1.5v.6h5.1v-.6c-1.1-.2-1.3-.4-1.3-1.5V9.7c0-1.6-.7-2.7-2.7-2.7-1.2 0-2.4.8-3.6 1.8V6.9h-.9l-3 1.7V9h1.4v5.3c0 1.1-.2 1.4-1.3 1.5v.6h5.1v-.5z"/></symbol><use xlink:href="#logo" y="1732.596" width="229" height="45"/><symbol id="logotype" viewBox="0 0 252 24"><g id="Mobile" stroke="none" stroke-width="1" fill="none" fill-rule="evenodd"><g id="AM-Northeastern-COE-Mobile" transform="translate(-22 -65)"><g id="NU-Logo" transform="translate(22 65)"><g id="neu_COE_spot_bR" transform="translate(.732)"><path d="M161.167.436v.583c-2.553.186-2.553 1.539-2.553 3.712V9.69c0 2.307 0 3.449-.684 4.72-.922 1.697-3.002 3.023-6.134 3.023-3.606 0-5.21-1.565-5.895-2.572-.87-1.3-.87-2.52-.87-5.49V4.864c0-3.552-.024-3.845-2.34-3.845h-.396V.436h7.527v.583c-2.605 0-2.684 0-2.684 3.793v4.64c0 2.519 0 3.923.657 5.036.606 1.035 2.054 2.069 4.555 2.069 1.684 0 3.763-.61 4.896-2.387.736-1.14.736-2.357.736-4.587V4.495c0-2.123 0-3.29-2.657-3.476V.436h5.842" id="Fill-1" fill="#C00"/><path d="M164.033 6.084c.212.61.316 1.645.345 2.202 1.34-1.486 2.527-2.202 4.052-2.202 2.421 0 3.29 1.698 3.29 3.473v3.925c0 2.89 0 3.048 1.739 3.048v.585h-5.398v-.585c1.816 0 1.816-.158 1.816-3.048v-3.421c0-2.411-.842-3.182-2.13-3.182-1.502 0-2.476 1.274-3.37 2.28v4.323c0 2.864 0 3.048 1.737 3.048v.585h-5.317v-.585c1.738 0 1.738-.158 1.738-3.048v-3.157c0-2.888 0-3.046-1.738-3.046v-.585c1.078-.16 2.447-.425 2.894-.61h.342" id="Fill-2" fill="#C00"/><path d="M178.325 14.515c0 1.697.159 2.015 1.448 2.015h.394v.585h-5.606v-.585h.447c1.344 0 1.605-.212 1.605-2.015v-4.24c0-2.892-.158-2.919-2.052-2.919v-.58c.79-.028 2.395-.373 3.502-.692h.262v8.431" id="Fill-3" fill="#C00"/><path d="M186.14 17.538l-3.736-8.485c-.684-1.538-.947-1.908-1.92-1.961V6.51h4.737v.582c-.685 0-1.341 0-1.341.637 0 .105.025.292.287.9l3.054 6.92 2.554-5.752c.367-.85.605-1.433.605-1.776 0-.796-.817-.903-1.29-.93V6.51h3.553v.582c-1.107.08-1.527 1.061-2.343 2.864l-3.421 7.582h-.738" id="Fill-4" fill="#C00"/><path d="M195.011 10.035h5.633c-.027-1.245-.37-3.368-2.632-3.368-2.081 0-2.87 1.91-3.001 3.368zm-.051.53c-.029.24-.053.61-.053.795 0 3.367 1.05 5.49 3.605 5.49 1.474 0 2.659-.665 3.395-2.123h.605c-.659 1.75-2.21 2.81-4.342 2.81-2.948 0-5.395-2.225-5.395-5.647 0-3.287 2.132-5.806 5.29-5.806 2.974 0 4.475 1.961 4.553 4.482h-7.658z" id="Fill-5" fill="#C00"/><path d="M207.75 13.482c0 2.703 0 3.048 1.552 3.048h.37v.585h-5.582v-.585c1.817 0 1.817-.104 1.817-3.048v-2.995c0-2.945 0-3.05-1.817-3.05v-.584c1.187-.16 2.554-.584 2.976-.716l.183-.053c.133.426.37 1.272.37 2.784.816-1.962 2.71-2.784 4.053-2.784 1.369 0 2.027.98 2.027 1.618 0 .476-.342.955-.898.955-.575 0-.867-.398-1.024-.848-.105-.294-.316-.795-.923-.795-1.053 0-3.103 1.272-3.103 3.975v2.493" id="Fill-6" fill="#C00"/><path d="M214.67 13.96h.5c.264 1.271 1.186 2.993 3.607 2.993 2.185 0 2.447-1.35 2.447-1.88 0-1.299-1.367-1.91-3.025-2.52-2.421-.9-3.503-1.67-3.503-3.527 0-1.351 1.002-2.942 3.37-2.942 1.236 0 2.132.504 2.738 1.114.21-.238.474-.875.5-.929h.474v3.288h-.473c-.238-1.218-1.291-2.89-3.16-2.89-1.711 0-2.289.848-2.289 1.619 0 1.245.998 1.695 2.921 2.384 2.105.743 3.712 1.62 3.712 3.74 0 1.802-1.292 3.128-3.685 3.128-1.554 0-2.475-.609-3.08-1.192-.263.292-.5.846-.553 1.087h-.5v-3.474" id="Fill-7" fill="#C00"/><path d="M227.937 14.515c0 1.697.156 2.015 1.446 2.015h.395v.585h-5.606v-.585h.447c1.344 0 1.607-.212 1.607-2.015v-4.24c0-2.892-.16-2.919-2.054-2.919v-.58c.79-.028 2.396-.373 3.501-.692h.264v8.431" id="Fill-8" fill="#C00"/><path d="M234.147 7.092v6.415c0 1.46 0 3.131 1.578 3.131.897 0 1.37-.716 1.607-1.061l.396.239c-.818 1.722-2.501 1.722-2.687 1.722-.736 0-1.317-.159-1.737-.504-.684-.53-1-1.511-1-3.075V7.092h-1.527V6.51c1.158-.054 2.554-.822 2.947-3.314h.423V6.51h3.185v.582h-3.185" id="Fill-9" fill="#C00"/><path d="M247.807 8.817c.183-.426.369-.823.369-1.035 0-.557-.949-.69-1.422-.69V6.51h3.685v.582c-1.317.08-1.58.742-2.236 2.333l-4.688 11.402c-.683 1.644-1.315 2.809-2.339 2.809-.424 0-.818-.265-.818-.77 0-.875.869-1.272 1.342-1.483.896-.4 1.184-.556 1.552-1.485l1-2.519-3.947-8.538c-.605-1.3-.816-1.723-2.052-1.75V6.51h4.842v.582c-.658.053-1.29.08-1.29.53 0 .212.316.873.502 1.3l2.895 6.205 2.605-6.31" id="Fill-10" fill="#C00"/><path d="M178.346 2.728c0 .635-.512 1.148-1.137 1.148a1.14 1.14 0 0 1-1.137-1.148 1.14 1.14 0 0 1 1.137-1.145c.625 0 1.137.514 1.137 1.145" id="Fill-11" fill="#C00"/><path d="M227.97 2.728c0 .635-.512 1.148-1.138 1.148a1.14 1.14 0 0 1-1.137-1.148 1.14 1.14 0 0 1 1.137-1.145c.626 0 1.137.514 1.137 1.145" id="Fill-12" fill="#C00"/><path d="M3.464 1.857v11.877c0 1.75.367 2.73 3.053 2.81v.584h-6.5v-.585c2.867-.13 2.815-1.323 2.815-2.809V4.64c0-3.366-.184-3.604-2.577-3.604V.452H4.99l9.87 13.203V3.554c0-1.406-.184-2.492-2.974-2.519V.452h6.316v.583c-2.552.238-2.71 1.14-2.71 2.704v13.786h-.367L3.464 1.857" id="Fill-13" fill="#C00"/><path d="M23.571 16.917c2.423 0 3.502-1.671 3.502-5.01 0-2.867-.763-5.173-3.502-5.173-2.656 0-3.472 2.254-3.472 5.145 0 3.393 1.078 5.038 3.472 5.038zm0-10.819c3.106 0 5.633 2.36 5.633 5.727 0 3.767-2.814 5.727-5.633 5.727-2.711 0-5.606-1.83-5.606-5.754 0-3.287 2.474-5.7 5.606-5.7z" id="Fill-14" fill="#C00"/><path d="M33.89 13.497c0 2.702 0 3.046 1.552 3.046h.37v.585h-5.583v-.585c1.819 0 1.819-.105 1.819-3.046v-2.998c0-2.943 0-3.05-1.82-3.05v-.581c1.188-.16 2.555-.584 2.976-.716l.185-.054c.13.425.369 1.274.369 2.784.814-1.963 2.711-2.784 4.053-2.784 1.37 0 2.026.982 2.026 1.616 0 .48-.34.954-.893.954-.58 0-.87-.395-1.028-.846-.105-.292-.316-.796-.92-.796-1.053 0-3.106 1.273-3.106 3.978v2.493" id="Fill-15" fill="#C00"/><path d="M44.1 7.106v6.417c0 1.458 0 3.127 1.58 3.127.895 0 1.368-.715 1.604-1.058l.396.235c-.817 1.725-2.5 1.725-2.683 1.725-.738 0-1.316-.16-1.739-.505-.684-.528-1-1.512-1-3.074V7.106H40.73v-.583c1.16-.054 2.554-.822 2.95-3.314h.42v3.314h3.183v.583h-3.183" id="Fill-16" fill="#C00"/><path d="M59.63 13.497c0 2.916 0 3.046 1.79 3.046v.585h-5.45v-.585c1.816 0 1.816-.13 1.816-3.046v-3.422c0-2.465-.736-3.183-2.288-3.183-1.211 0-2.37 1.25-3.212 2.336v4.269c0 2.837 0 3.046 1.658 3.046v.585H48.6v-.585c1.843 0 1.843-.105 1.843-3.046V3.818c0-1.856 0-2.466-1.736-2.466V.77c1.078 0 2.526-.239 3.368-.557h.184v8.086c1.316-1.407 2.475-2.2 3.843-2.2 2.342 0 3.528 1.246 3.528 3.657v3.74" id="Fill-17" fill="#C00"/><path d="M64.077 10.05h5.633c-.027-1.248-.37-3.367-2.632-3.367-2.081 0-2.87 1.907-3.001 3.366zm-.053.528c-.027.24-.052.612-.052.796 0 3.37 1.052 5.49 3.604 5.49 1.475 0 2.66-.665 3.396-2.12h.606c-.659 1.747-2.21 2.808-4.343 2.808-2.949 0-5.396-2.226-5.396-5.646 0-3.29 2.133-5.808 5.292-5.808 2.973 0 4.475 1.962 4.553 4.48h-7.66z" id="Fill-18" fill="#C00"/><path d="M85.22 13.973h.5c.262 1.273 1.183 2.996 3.606 2.996 2.185 0 2.447-1.353 2.447-1.884 0-1.299-1.369-1.907-3.025-2.518-2.422-.9-3.501-1.67-3.501-3.527 0-1.35 1-2.942 3.368-2.942 1.236 0 2.134.504 2.737 1.115.213-.24.474-.876.501-.93h.472v3.288h-.472c-.237-1.219-1.291-2.888-3.158-2.888-1.712 0-2.29.847-2.29 1.616 0 1.247 1 1.697 2.92 2.387 2.107.743 3.713 1.616 3.713 3.737 0 1.803-1.291 3.129-3.687 3.129-1.552 0-2.472-.61-3.08-1.191-.262.29-.498.846-.55 1.085h-.501v-3.473" id="Fill-19" fill="#C00"/><path d="M97.853 7.106v6.417c0 1.458 0 3.127 1.578 3.127.897 0 1.37-.715 1.606-1.058l.395.235c-.815 1.725-2.5 1.725-2.685 1.725-.735 0-1.316-.16-1.736-.505-.685-.528-1.003-1.512-1.003-3.074V7.106h-1.525v-.583c1.16-.054 2.552-.822 2.948-3.314h.422v3.314h3.184v.583h-3.184" id="Fill-20" fill="#C00"/><path d="M104.276 10.05h5.63c-.026-1.248-.368-3.367-2.631-3.367-2.079 0-2.868 1.907-3 3.366zm-.054.528c-.026.24-.053.612-.053.796 0 3.37 1.054 5.49 3.608 5.49 1.472 0 2.656-.665 3.393-2.12h.605c-.657 1.747-2.21 2.808-4.342 2.808-2.948 0-5.396-2.226-5.396-5.646 0-3.29 2.132-5.808 5.291-5.808 2.974 0 4.473 1.962 4.552 4.48h-7.658z" id="Fill-21" fill="#C00"/><path d="M116.696 13.497c0 2.702 0 3.046 1.554 3.046h.369v.585h-5.58v-.585c1.816 0 1.816-.105 1.816-3.046v-2.998c0-2.943 0-3.05-1.816-3.05v-.581c1.183-.16 2.552-.584 2.974-.716l.185-.054c.13.425.367 1.274.367 2.784.815-1.963 2.71-2.784 4.054-2.784 1.368 0 2.028.982 2.028 1.616 0 .48-.343.954-.896.954-.578 0-.868-.395-1.025-.846-.107-.292-.318-.796-.922-.796-1.054 0-3.108 1.273-3.108 3.978v2.493" id="Fill-22" fill="#C00"/><path d="M126.804 6.098c.209.61.317 1.643.342 2.2 1.341-1.484 2.525-2.2 4.052-2.2 2.421 0 3.291 1.697 3.291 3.473v3.926c0 2.889 0 3.046 1.737 3.046v.585h-5.396v-.585c1.815 0 1.815-.157 1.815-3.046v-3.422c0-2.412-.842-3.183-2.13-3.183-1.5 0-2.475 1.275-3.369 2.283v4.322c0 2.864 0 3.046 1.739 3.046v.585h-5.318v-.585c1.736 0 1.736-.157 1.736-3.046V10.34c0-2.89 0-3.05-1.736-3.05v-.582c1.078-.158 2.447-.424 2.894-.61h.343" id="Fill-23" fill="#C00"/><path d="M80 14.946c-1.061.923-2.491 1.657-3.465 1.657-1.117 0-1.662-.814-1.662-1.794 0-1.464 1.377-2.796 3.607-3.53l1.52-.486v4.153zm3.676.247c-.211 1.244-.751 1.32-1.065 1.32-.816 0-.831-.583-.831-2.408V9.81c0-1.565-.202-3.712-3.834-3.712-2.632 0-4.237 1.352-4.237 2.413 0 .477.289.769.712.769.682 0 .946-.505 1.104-1.086.183-.718.58-1.511 2.263-1.511 1.974 0 2.212 1.27 2.212 2.836v.66l-2.002.693c-3.71 1.272-4.842 2.756-4.842 4.267 0 1.511 1.184 2.253 2.712 2.253 1.262 0 2.578-.528 4.132-1.857.131.637.474 1.857 2.016 1.857 1.449 0 2.08-1.006 2.133-2.199h-.473z" id="Fill-24" fill="#D02139"/></g></g></g></g></symbol><use xlink:href="#logotype" y="1779.596" width="252" height="24"/><symbol id="menu" viewBox="0 0 33 19"><path d="M0 .5h33v3H0zM0 8.2h33v3H0zM0 15.8h33v3H0z"/></symbol><use xlink:href="#menu" y="1805.596" width="33" height="19"/><symbol id="minus" viewBox="0 0 18 4"><path d="M.8.8h16.3v2.5H.8z"/></symbol><use xlink:href="#minus" y="1826.596" width="18" height="4"/><symbol id="play" viewBox="0 0 116 116"><path d="M41.6 31.2l44.2 27.3-44.2 27.4z"/><path d="M58 116C26 116 0 90 0 58S26 0 58 0s58 26 58 58-26 58-58 58zM58 6C29.3 6 6 29.3 6 58s23.3 52 52 52 52-23.3 52-52S86.7 6 58 6z"/></symbol><use xlink:href="#play" y="1832.596" width="116" height="116"/><symbol id="plus" viewBox="0 0 18 18"><path d="M7.8.8h2.5v16.3H7.8z"/><path d="M.8 7.8h16.3v2.5H.8z"/></symbol><use xlink:href="#plus" y="1950.596" width="18" height="18"/><symbol id="search" viewBox="0 0 17 17"><path d="M12.7 10.9l4.3 4.3-1.8 1.8-4.3-4.3c-1.1.8-2.5 1.2-3.9 1.2-3.8 0-7-3.1-7-7s3.1-7 7-7c3.8 0 7 3.1 7 7-.1 1.5-.5 2.8-1.3 4zm-5.7.4c2.4 0 4.3-1.9 4.3-4.3S9.4 2.6 7 2.6 2.6 4.6 2.6 7s2 4.3 4.4 4.3z"/></symbol><use xlink:href="#search" y="1970.596" width="17" height="17"/><symbol id="snapchat-circle" viewBox="0 0 256.01 256"><defs><style></style></defs><path class="cls-1" d="M128.51 0a128 128 0 1 0 128 128 128 128 0 0 0-128-128zm79.59 169.92c-.95 2.23-5.24 5.39-20.25 7.7-1.22.19-1.7 1.79-2.43 5.14-.27 1.22-.54 2.42-.91 3.68a2 2 0 0 1-2.14 1.6h-.19a18.77 18.77 0 0 1-3.36-.42 44.54 44.54 0 0 0-9-1 40.48 40.48 0 0 0-6.51.55c-4.5.75-8.32 3.45-12.37 6.31-5.88 4.16-12 8.45-21.41 8.45h-2.02c-9.46 0-15.53-4.29-21.4-8.44-4-2.86-7.88-5.57-12.38-6.32a40.48 40.48 0 0 0-6.51-.55 44.33 44.33 0 0 0-9 1 19.77 19.77 0 0 1-3.36.48 2.11 2.11 0 0 1-2.33-1.66c-.38-1.28-.65-2.51-.91-3.7-.67-3.07-1.14-5-2.43-5.16-15-2.32-19.3-5.48-20.25-7.72a2.59 2.59 0 0 1-.23-1 1.69 1.69 0 0 1 1.41-1.76c23.06-3.8 33.4-27.37 33.83-28.37a.3.3 0 0 1 0-.08c1.41-2.86 1.68-5.34.82-7.38-1.58-3.73-6.74-5.37-10.16-6.45-.84-.26-1.63-.51-2.25-.76-6.82-2.7-7.39-5.46-7.12-6.87.46-2.41 3.67-4.08 6.26-4.08a4.49 4.49 0 0 1 1.87.37 19.84 19.84 0 0 0 8.22 2.17c3.29 0 4.73-1.39 4.91-1.57a630.4 630.4 0 0 0-.3-4.87c-.68-10.9-1.54-24.45 1.91-32.18 10.34-23.18 32.26-25 38.74-25h3.22c6.48 0 28.45 1.8 38.8 25 3.45 7.74 2.6 21.3 1.91 32.19v.48c-.1 1.51-.19 3-.27 4.4a6.57 6.57 0 0 0 4.48 1.55 20.51 20.51 0 0 0 7.75-2.15 5.84 5.84 0 0 1 2.4-.47 7.39 7.39 0 0 1 2.77.53c2.31.82 3.83 2.44 3.86 4.14s-1.19 4-7.17 6.36c-.62.24-1.41.49-2.25.76-3.42 1.09-8.58 2.72-10.16 6.45-.86 2-.59 4.52.82 7.38a.3.3 0 0 1 0 .08c.43 1 10.76 24.57 33.83 28.37a1.7 1.7 0 0 1 1.42 1.76 2.77 2.77 0 0 1-.16 1.06z" transform="translate(-.51)"/></symbol><use xlink:href="#snapchat-circle" y="1989.596" width="256.01" height="256"/><symbol id="triangle" viewBox="0 0 6 9"><path class="st0" d="M5.7 4.5L0 9l1-4.5L0 0z"/></symbol><use xlink:href="#triangle" y="2247.596" width="6" height="9"/><symbol id="twitter-circle" viewBox="0 0 510.57 510.57"><defs><style></style></defs><path class="cls-1" d="M255.29 1.43C114.3 1.43 0 115.75 0 256.73S114.3 512 255.29 512s255.28-114.28 255.28-255.27S396.28 1.43 255.29 1.43zm128.6 203.82c.13 2.76.19 5.53.19 8.33 0 85-64.72 183-183 183a182.12 182.12 0 0 1-98.62-28.89 131.78 131.78 0 0 0 15.34.89 129.07 129.07 0 0 0 79.9-27.53 64.43 64.43 0 0 1-60.09-44.7 62.61 62.61 0 0 0 12.1 1.15 63.61 63.61 0 0 0 17-2.25A64.39 64.39 0 0 1 115 232.22v-.83a64.25 64.25 0 0 0 29.15 8.06 64.42 64.42 0 0 1-19.92-85.91 182.61 182.61 0 0 0 132.62 67.21 64.38 64.38 0 0 1 109.62-58.68 128.49 128.49 0 0 0 40.86-15.61A64.52 64.52 0 0 1 379 182.05a128.53 128.53 0 0 0 37-10.13 130.11 130.11 0 0 1-32.11 33.33z" transform="translate(0 -1.43)"/></symbol><use xlink:href="#twitter-circle" y="2258.596" width="510.57" height="510.57"/><symbol id="twitter" viewBox="0 0 17 14"><path id="Twitter-Copy-2" d="M17 1.7c-.6.3-1.3.5-2 .6.7-.4 1.3-1.1 1.5-2-.7.4-1.4.7-2.2.9C13.7.4 12.8 0 11.8 0c-2 0-3.5 1.6-3.5 3.5 0 .3 0 .5.1.8C5.5 4.2 2.9 2.8 1.2.6.9 1.2.7 1.8.7 2.4c0 1.2.6 2.3 1.6 2.9-.6 0-1.1-.2-1.6-.4C.7 6.6 1.9 8 3.5 8.4c-.3.1-.6.2-.9.2-.2 0-.4 0-.7-.1.4 1.4 1.7 2.4 3.3 2.5-1.2.9-2.7 1.5-4.3 1.5-.3 0-.6 0-.8-.1 1.5 1 3.4 1.6 5.3 1.6 6.4 0 9.9-5.4 9.9-10.1v-.5c.6-.4 1.2-1 1.7-1.7z"/></symbol><use xlink:href="#twitter" y="2771.166" width="17" height="14"/><symbol id="video" viewBox="0 0 47.4 25.1"><path class="st0" d="M0 22.3V2.8C0 1.2 1.3 0 2.8 0h25.4C29.7 0 31 1.2 31 2.8v19.5c0 1.5-1.3 2.8-2.8 2.8H2.8c-1.5 0-2.8-1.3-2.8-2.8zM45.5 1.9L34.6 6.3v12.6l10.8 4.4c.4.2.9.1 1.3-.1.4-.3.6-.7.6-1.2V3.3c0-.5-.2-.9-.6-1.2-.3-.3-.8-.4-1.2-.2z"/></symbol><use xlink:href="#video" y="2787.166" width="47.4" height="25.1"/><symbol id="weibo" viewBox="0 0 26 21"><path d="M20.9 10.8c-.4-.3-.9-.5-1.5-.7-.1 0-.2-.1-.2-.1s-.1-.1-.2-.1c-.1-.1-.1-.1-.1-.2s0-.2.1-.3c.4-1.1.4-2 0-2.6-.5-.5-1.2-.8-2.2-.8-1 0-2.2.3-3.5.9h-.1c-.1 0-.1 0-.2.1h-.2c-.1 0-.1 0-.1-.1v-.3c.4-1.4.3-2.4-.3-3-.7-.7-1.9-.7-3.6-.1-1.7.6-3.3 1.7-5 3.3C2.6 8.1 1.7 9.3 1 10.5c-.7 1.2-1 2.4-1 3.5 0 1 .3 2 .9 2.9.6.9 1.4 1.6 2.5 2.2 1 .6 2.2 1 3.5 1.3 1.3.3 2.6.5 4 .5s2.7-.1 3.9-.4c1.2-.3 2.3-.7 3.3-1.2.9-.5 1.7-1.1 2.4-1.7.7-.6 1.2-1.3 1.6-2 .4-.7.5-1.4.5-2 0-.6-.2-1.2-.5-1.7-.4-.4-.8-.8-1.2-1.1zm-4.7 6.6c-1.4 1.1-3.2 1.8-5.3 2-1.4.1-2.7 0-4-.3-1.2-.3-2.2-.9-3-1.6-.8-.7-1.2-1.5-1.3-2.5-.1-1.4.5-2.7 1.9-3.8 1.4-1.1 3.2-1.8 5.3-2 1.4-.1 2.7 0 4 .3 1.2.3 2.2.9 3 1.6.8.7 1.2 1.5 1.3 2.5.1 1.4-.5 2.7-1.9 3.8z"/><path d="M11.3 11.4c-1-.3-2-.2-3 .3-1 .4-1.7 1.1-2.2 2-.5.9-.5 1.8-.1 2.7.4.9 1.1 1.5 2.1 1.8 1.1.3 2.1.3 3.2-.2s1.8-1.2 2.3-2.2c.4-1 .4-1.9 0-2.7-.5-.8-1.3-1.4-2.3-1.7zm-1.6 4.7c-.2.3-.5.6-.9.7-.4.1-.7.1-1.1 0-.3-.2-.5-.4-.6-.7-.1-.3 0-.7.2-1 .2-.3.5-.5.9-.7.4-.1.7-.1 1.1 0 .3.1.6.4.6.7.1.3 0 .7-.2 1zm1.4-1.8l-.3.3c-.1.1-.3.1-.4 0-.3-.1-.4-.4-.2-.6l.3-.3c.1-.1.3-.1.4 0 .1 0 .2.1.3.3 0 .1 0 .2-.1.3zM20.6 8c.1.2.3.3.5.4.2.1.4 0 .6-.1.2-.1.3-.3.4-.5.2-.5.2-1.1.1-1.7-.1-.6-.4-1.1-.8-1.6s-.9-.8-1.5-.9c-.6-.2-1.1-.2-1.7-.1-.2 0-.4.2-.5.4-.1.2-.2.4-.1.6 0 .2.2.4.4.5.2.1.4.2.6.1.6-.1 1.1 0 1.5.5.4.5.5 1 .3 1.6.1.4.1.6.2.8z"/><path d="M25.7 5.5c-.2-1.2-.8-2.3-1.6-3.2-.8-.9-1.8-1.6-3-1.9-1.2-.4-2.3-.4-3.5-.2-.3.1-.5.2-.6.4-.1.2-.2.5-.1.7-.1.3.1.5.3.7.2.1.5.2.7.1.8-.2 1.7-.1 2.5.1.9.3 1.6.8 2.2 1.4.6.7 1 1.4 1.2 2.3.2.9.1 1.7-.1 2.5-.1.3-.1.5.1.7.1.2.3.4.6.5.3.1.5.1.7-.1.2-.1.4-.3.5-.6.3-1 .3-2.2.1-3.4z"/></symbol><use xlink:href="#weibo" y="2814.266" width="26" height="21"/><symbol id="wikipedia" viewBox="0 0 128 128"><path d="M120.85 29.21c0 .41-.13.78-.38 1.12-.26.33-.53.5-.84.5-2.49.24-4.54 1.04-6.12 2.41-1.59 1.36-3.22 3.97-4.91 7.81L82.8 99.19c-.17.54-.64.81-1.42.81-.61 0-1.08-.27-1.42-.81L65.49 68.93 48.85 99.19c-.34.54-.81.81-1.42.81-.74 0-1.23-.27-1.47-.81L20.61 41.05c-1.58-3.61-3.25-6.13-5.01-7.56-1.75-1.43-4.2-2.32-7.33-2.66-.27 0-.53-.14-.76-.43-.24-.28-.36-.61-.36-.98 0-.95.27-1.42.81-1.42 2.26 0 4.62.1 7.09.3 2.29.21 4.45.31 6.47.31 2.06 0 4.49-.1 7.29-.31 2.93-.2 5.53-.3 7.79-.3.54 0 .81.47.81 1.42 0 .94-.17 1.41-.5 1.41-2.26.17-4.04.75-5.34 1.72-1.3.98-1.95 2.26-1.95 3.85 0 .81.27 1.82.81 3.03l20.95 47.31 11.89-22.46-11.08-23.23c-1.99-4.14-3.63-6.82-4.91-8.02-1.28-1.19-3.22-1.93-5.82-2.2-.24 0-.46-.14-.68-.43-.22-.28-.33-.61-.33-.98 0-.95.23-1.42.71-1.42 2.26 0 4.33.1 6.22.3 1.82.21 3.76.31 5.82.31 2.02 0 4.16-.1 6.42-.31 2.33-.2 4.62-.3 6.88-.3.54 0 .81.47.81 1.42 0 .94-.16 1.41-.5 1.41-4.52.31-6.78 1.59-6.78 3.85 0 1.01.52 2.58 1.57 4.7l7.33 14.88 7.29-13.61c1.01-1.92 1.52-3.54 1.52-4.86 0-3.1-2.26-4.75-6.78-4.96-.41 0-.61-.47-.61-1.41 0-.34.1-.66.3-.96.21-.31.41-.46.61-.46 1.62 0 3.61.1 5.97.3 2.26.21 4.12.31 5.57.31 1.04 0 2.58-.09 4.6-.26 2.56-.23 4.71-.35 6.43-.35.4 0 .6.4.6 1.21 0 1.08-.37 1.62-1.11 1.62-2.63.27-4.75 1-6.35 2.18-1.6 1.18-3.6 3.86-5.99 8.04l-9.72 17.97 13.16 26.81 19.43-45.18c.67-1.65 1.01-3.17 1.01-4.55 0-3.31-2.26-5.06-6.78-5.27-.41 0-.61-.47-.61-1.41 0-.95.3-1.42.91-1.42 1.65 0 3.61.1 5.87.3 2.09.21 3.85.31 5.26.31 1.49 0 3.21-.1 5.16-.31 2.03-.2 3.85-.3 5.47-.3.47 0 .71.4.71 1.21z"/></symbol><use xlink:href="#wikipedia" y="2837.266" width="128" height="128"/><symbol id="youtube-circle" viewBox="0 0 512 512"><g id="Layer_1" data-name="Layer 1"><path class="cls-1" d="M221.28 308.14L308.19 256l-86.91-52.14v104.28z"/><path class="cls-1" d="M256 0C114.62 0 0 114.61 0 256s114.62 256 256 256 256-114.62 256-256S397.38 0 256 0zm139 267.22a476.39 476.39 0 0 1-2.79 48s-2.72 20.44-11 29.42c-10.57 11.81-22.41 11.87-27.85 12.58-38.91 3-97.33 3.07-97.33 3.07s-72.29-.71-94.53-3c-6.19-1.23-20.06-.88-30.65-12.67-8.34-9-11-29.42-11-29.42a476.12 476.12 0 0 1-2.79-48v-22.5a475.73 475.73 0 0 1 2.79-48s2.72-20.45 11-29.46c10.57-11.82 22.41-11.89 27.85-12.56 38.9-3 97.27-3 97.27-3h.12s58.37 0 97.27 3c5.42.67 17.28.74 27.85 12.54 8.34 9 11 29.46 11 29.46a476.39 476.39 0 0 1 2.79 48z"/></g></symbol><use xlink:href="#youtube-circle" y="2967.266" width="512" height="512"/><symbol id="youtube" viewBox="0 0 20 14"><path id="YouTube-Copy-2" d="M19.8 3s-.2-1.4-.8-2c-.8-.8-1.6-.8-2-.8-2.8-.2-7-.2-7-.2S5.8 0 3 .2C2.6.2 1.8.3 1 1c-.6.6-.8 2-.8 2S0 4.6 0 6.2v1.5C0 9.4.2 11 .2 11s.2 1.4.8 2c.8.8 1.8.8 2.2.9 1.6.1 6.8.1 6.8.1s4.2 0 7-.2c.4 0 1.2-.1 2-.8.6-.6.8-2 .8-2s.2-1.6.2-3.2V6.2c0-1.6-.2-3.2-.2-3.2zM8.7 9.6V4l5.4 2.8-5.4 2.8z"/></symbol><use xlink:href="#youtube" y="3481.266" width="20" height="14"/></svg>