<svg version="1.1" xmlns="http://www.w3.org/2000/svg" xmlns:xlink="http://www.w3.org/1999/xlink" x="0px" y="0px"
	 viewBox="0 0 19 17" xml:space="preserve">
<path d="M5.4,7.4L8.7,11c0.2,0.2,0.5,0.4,0.8,0.4s0.6-0.1,0.8-0.4l3.3-3.5c0.2-0.2,0.3-0.4,0.3-0.7
	c0-0.6-0.5-1.1-1.1-1.1c-0.3,0-0.6,0.1-0.8,0.4l-1.4,1.5V1.1c0-0.6-0.5-1.1-1.1-1.1S8.4,0.5,8.4,1.1v6.4L7,6
	C6.8,5.8,6.5,5.7,6.2,5.7c-0.6,0-1.1,0.5-1.1,1.1C5.1,7,5.2,7.3,5.4,7.4z M17.9,9.6c-0.6,0-1.1,0.5-1.1,1.1v4.2H2.2v-4.2
	c0-0.6-0.5-1.1-1.1-1.1S0,10,0,10.6v5.3C0,16.5,0.5,17,1.1,17h8.4c0,0,0,0,0,0s0,0,0,0h8.4c0.6,0,1.1-0.5,1.1-1.1v-5.3
	C19,10,18.5,9.6,17.9,9.6z"/>
</svg>
