<svg version="1.1" xmlns="http://www.w3.org/2000/svg" xmlns:xlink="http://www.w3.org/1999/xlink" x="0px" y="0px"
	 viewBox="0 0 19 18" xml:space="preserve">
<path d="M3.1,14.4C3.4,13,4.6,12,6.1,12s2.7,1,3,2.4h9.4c0.3,0,0.6,0.3,0.6,0.6s-0.3,0.6-0.6,0.6H9C8.8,17,7.5,18,6.1,18
	s-2.7-1-3-2.4H0.6C0.3,15.6,0,15.3,0,15s0.3-0.6,0.6-0.6H3.1z M6.1,16.8c-1,0-1.8-0.8-1.8-1.8s0.8-1.8,1.8-1.8S7.9,14,7.9,15
	S7.1,16.8,6.1,16.8z M10,8.4C10.2,7,11.5,6,12.9,6s2.7,1,3,2.4h2.5C18.7,8.4,19,8.7,19,9s-0.3,0.6-0.6,0.6h-2.5
	c-0.3,1.4-1.5,2.4-3,2.4s-2.7-1-3-2.4H0.6C0.3,9.6,0,9.3,0,9s0.3-0.6,0.6-0.6H10z M12.9,10.8c-1,0-1.8-0.8-1.8-1.8s0.8-1.8,1.8-1.8
	S14.8,8,14.8,9S13.9,10.8,12.9,10.8z M3.1,2.4C3.4,1,4.6,0,6.1,0s2.7,1,3,2.4h9.4C18.7,2.4,19,2.7,19,3s-0.3,0.6-0.6,0.6H9
	C8.8,5,7.5,6,6.1,6s-2.7-1-3-2.4H0.6C0.3,3.6,0,3.3,0,3s0.3-0.6,0.6-0.6H3.1z M6.1,4.8C5.1,4.8,4.2,4,4.2,3s0.8-1.8,1.8-1.8
	S7.9,2,7.9,3S7.1,4.8,6.1,4.8z"/>
</svg>
