<svg id="Layer_1" data-name="Layer 1" xmlns="http://www.w3.org/2000/svg" viewBox="0 0 255 255"><defs><style>.cls-1{}</style></defs><title>See what we are up to on Instagram</title><path class="cls-1" d="M167.9,97v0c2.14,0,4.27,0,6.41,0a5.19,5.19,0,0,0,5-5.17V79.47A5.24,5.24,0,0,0,174,74.19H161.79a5.25,5.25,0,0,0-5.26,5.29c0,4,0,8.11,0,12.17a5.55,5.55,0,0,0,.31,1.81A5.22,5.22,0,0,0,162,97Zm-39.4,5.26a26.27,26.27,0,1,0,26.26,26.85A26.27,26.27,0,0,0,128.5,102.22Zm-50.8,14v.35q0,28.78,0,57.57a5.24,5.24,0,0,0,5.15,5.13q45.65,0,91.28,0a5.25,5.25,0,0,0,5.17-5.15V116.25H166.92a40.57,40.57,0,0,1,1.6,17.06,40.34,40.34,0,0,1-17.41,28.56,40.3,40.3,0,0,1-42.27,1.82,39.37,39.37,0,0,1-15.66-15.78c-5.48-10.09-6.35-20.68-3.14-31.67Zm102.67,77.09c.68-.11,1.35-.2,2-.35a14,14,0,0,0,10.66-10.87c.11-.58.19-1.16.28-1.73V76.62c-.09-.56-.17-1.13-.27-1.7a14,14,0,0,0-11.82-11.13l-.72-.12h-104c-.62.11-1.25.2-1.87.34A14,14,0,0,0,63.79,75.76c0,.24-.08.49-.12.73v104c.12.65.21,1.32.36,2A14.06,14.06,0,0,0,75.8,193.21c.28,0,.56.09.83.12ZM128.5,256A127.5,127.5,0,1,1,256,128.5,127.51,127.51,0,0,1,128.5,256Z" transform="translate(-1 -1)"></path></svg>