<?xml version="1.0" encoding="utf-8"?>
<!-- Generator: Adobe Illustrator 22.1.0, SVG Export Plug-In . SVG Version: 6.00 Build 0)  -->
<svg version="1.1" id="Layer_1" xmlns="http://www.w3.org/2000/svg" xmlns:xlink="http://www.w3.org/1999/xlink" x="0px" y="0px"
	 viewBox="0 0 18 18" style="enable-background:new 0 0 18 18;" xml:space="preserve">
<path id="Shape" d="M17.6,5.2c0-0.9-0.2-1.6-0.4-2.1c-0.2-0.6-0.5-1.1-1-1.6c-0.5-0.5-1-0.8-1.6-1C14,0.2,13.4,0.1,12.5,0
	c-0.9,0-1.2,0-3.6,0S6.1,0,5.2,0.1C4.2,0.1,3.6,0.2,3,0.5C2.5,0.7,2,1,1.5,1.5s-0.8,1-1,1.6C0.2,3.6,0.1,4.2,0.1,5.2
	C0,6.1,0,6.4,0,8.8s0,2.7,0.1,3.6c0,0.9,0.2,1.6,0.4,2.1c0.2,0.6,0.5,1.1,1,1.6c0.5,0.5,1,0.8,1.6,1c0.6,0.2,1.2,0.4,2.1,0.4
	c0.9,0,1.2,0.1,3.6,0.1s2.7,0,3.6-0.1c0.9,0,1.6-0.2,2.1-0.4c0.6-0.2,1.1-0.5,1.6-1c0.5-0.5,0.8-1,1-1.6c0.2-0.6,0.4-1.2,0.4-2.1
	s0.1-1.2,0.1-3.6S17.6,6.1,17.6,5.2L17.6,5.2z M16,12.4c0,0.9-0.2,1.3-0.3,1.6c-0.2,0.4-0.4,0.7-0.7,1c-0.3,0.3-0.6,0.5-1,0.7
	c-0.3,0.1-0.8,0.3-1.6,0.3c-0.9,0-1.2,0.1-3.6,0.1s-2.6,0-3.6-0.1c-0.9,0-1.3-0.2-1.6-0.3c-0.4-0.2-0.7-0.4-1-0.7s-0.5-0.6-0.7-1
	c-0.1-0.3-0.3-0.8-0.3-1.6c0-0.9-0.1-1.2-0.1-3.6s0-2.6,0.1-3.6c0-0.9,0.2-1.3,0.3-1.6c0.2-0.4,0.4-0.7,0.7-1s0.6-0.5,1-0.7
	c0.3-0.1,0.8-0.3,1.6-0.3c0.9,0,1.2-0.1,3.6-0.1c2.4,0,2.6,0,3.6,0.1c0.9,0,1.3,0.2,1.6,0.3c0.4,0.2,0.7,0.4,1,0.7
	c0.3,0.3,0.5,0.6,0.7,1C15.8,3.9,16,4.4,16,5.3c0,0.9,0.1,1.2,0.1,3.6S16,11.5,16,12.4L16,12.4z"/>
<path id="Shape_1_" d="M8.8,4.3c-2.5,0-4.5,2-4.5,4.5s2,4.5,4.5,4.5s4.5-2,4.5-4.5S11.3,4.3,8.8,4.3L8.8,4.3z M8.8,11.8
	c-1.6,0-2.9-1.3-2.9-2.9s1.3-2.9,2.9-2.9s2.9,1.3,2.9,2.9S10.4,11.8,8.8,11.8L8.8,11.8z"/>
<ellipse id="Oval" cx="13.5" cy="4.1" rx="1.1" ry="1.1"/>
</svg>
