<svg  xmlns="http://www.w3.org/2000/svg" viewBox="0 0 255 255"><title>Connect with us on LinkedIn</title><path class="cls-1" d="M200.06,188.58V138.81c0-26.67-14.24-39.08-33.22-39.08-15.32,0-22.18,8.43-26,14.34v-12.3H112c.38,8.14,0,86.81,0,86.81h28.85V140.1a19.61,19.61,0,0,1,1-7c2.08-5.18,6.83-10.55,14.79-10.55,10.45,0,14.62,8,14.62,19.63v46.45h28.86ZM81.58,89.92c10.06,0,16.32-6.67,16.32-15-.18-8.51-6.26-15-16.13-15s-16.33,6.47-16.33,15c0,8.34,6.27,15,16,15ZM128.5,256A127.5,127.5,0,1,1,256,128.5,127.51,127.51,0,0,1,128.5,256ZM96,188.58V101.77H67.15v86.81Z" transform="translate(-1 -1)"></path></svg>