<?xml version="1.0" encoding="utf-8"?>
<!-- Generator: Adobe Illustrator 22.1.0, SVG Export Plug-In . SVG Version: 6.00 Build 0)  -->
<svg version="1.1" id="Layer_1" xmlns="http://www.w3.org/2000/svg" xmlns:xlink="http://www.w3.org/1999/xlink" x="0px" y="0px"
	 viewBox="0 0 16 15" style="enable-background:new 0 0 16 15;" xml:space="preserve">
<path id="LinkedIn-Copy-2" d="M3.6,15H0.3V5h3.3V15L3.6,15z M1.9,3.6C0.9,3.6,0,2.8,0,1.8S0.9,0,1.9,0C3,0,3.8,0.8,3.8,1.8
	C3.8,2.8,3,3.6,1.9,3.6L1.9,3.6z M16,15h-3.3v-4.9c0-1.2,0-2.7-1.7-2.7c-1.7,0-2,1.3-2,2.6v5H5.7V5h3.2v1.4h0
	c0.4-0.8,1.5-1.6,3.1-1.6c3.4,0,4,2.1,4,4.8L16,15L16,15z"/>
</svg>
