
<svg width="191px" height="41px" viewBox="0 0 191 41" version="1.1" xmlns="http://www.w3.org/2000/svg" xmlns:xlink="http://www.w3.org/1999/xlink">
    <g id="Symbols" stroke="none" stroke-width="1" fill="none" fill-rule="evenodd">
        <g id="Dept-Header" transform="translate(-1208.000000, -118.000000)" fill="#FFFFFE">
            <g id="Group-13" transform="translate(1208.000000, 118.000000)">
                <path d="M12.7353302,28.6738776 L9.72593601,29.4335967 C9.21293397,28.179082 8.46875425,27.5611989 7.14132063,27.5611989 C5.33601089,27.5611989 4.22096664,28.9567344 4.22096664,31.4641334 C4.22096664,33.9723476 5.26575902,35.4388011 7.19441797,35.4388011 C8.69911504,35.4388011 9.51354663,34.679082 10.0445201,33.2835465 L13,34.1663531 C12.0091219,36.6925006 9.74309054,38 7.08822328,38 C3.9562968,38 1,36.1096689 1,31.4820667 C1,26.9433158 3.9562968,25 7.1241661,25 C9.49557522,25 11.6905378,25.9716579 12.7353302,28.6738776" id="Fill-49"></path>
                <path d="M17.0453529,32.9644055 C17.0453529,34.7727682 17.7719578,35.6769495 19,35.6769495 C20.2112744,35.6769495 20.9378793,34.7727682 20.9378793,32.9644055 C20.9378793,31.1208575 20.1769403,30.3230505 19,30.3230505 C17.8062919,30.3230505 17.0453529,31.1208575 17.0453529,32.9644055 Z M24,32.9995909 C24,35.9960723 22.0621207,38 19,38 C15.8340786,38 14,35.9257017 14,32.9995909 C14,30.0571148 15.8692111,28 19,28 C22.079687,28 24,30.1454873 24,32.9995909 Z" id="Fill-50"></path>
                <polygon id="Fill-51" points="25 38 28 38 28 25 25 25"></polygon>
                <polygon id="Fill-52" points="30 38 33 38 33 25 30 25"></polygon>
                <path d="M37.1911979,31.9538499 L40.8464766,31.9538499 C40.7719839,30.6421733 40.0852813,30.0923001 39.0089905,30.0923001 C38.0448669,30.0923001 37.2845278,30.6241715 37.1911979,31.9538499 Z M44,33.1951559 L44,33.7270272 L37.2100351,33.7270272 C37.3025088,35.091891 38.1373405,35.7661403 39.3805977,35.7661403 C40.419214,35.7661403 41.0314239,35.2694542 41.4766675,34.5960232 L43.9255073,35.7129531 C42.9605274,37.1670076 41.4210121,38 39.2136313,38 C35.9856152,38 34,35.9076999 34,32.9995909 C34,30.0751166 35.8554671,28 39.0278277,28 C42.1077147,28 44,29.9859259 44,33.1951559 Z" id="Fill-53"></path>
                <path d="M47.2444154,30.8973241 C47.2444154,31.6309089 47.777105,32.113639 48.7164716,32.113639 C49.6558383,32.113639 50.2057115,31.6490628 50.2057115,30.8799953 C50.2057115,30.1109277 49.6738401,29.6281976 48.7344734,29.6281976 C47.777105,29.6281976 47.2444154,30.1290817 47.2444154,30.8973241 Z M46.9432943,37.2809148 C46.6061697,37.5136155 46.4646101,37.7817989 46.4646101,38.1027938 C46.4646101,38.6754686 46.8549219,39.0146175 48.5740938,39.0146175 C50.0641519,39.0146175 50.6312086,38.6754686 50.6312086,38.085465 C50.6312086,37.4773076 50.1697079,37.2809148 49.0175927,37.2809148 L46.9432943,37.2809148 Z M54,29.3963221 C53.3617544,29.3963221 53.0426315,29.4318048 52.6703216,29.5564069 C52.9894444,29.9855004 53.1130022,30.4863845 53.1130022,31.0227514 C53.1130022,32.7572793 51.7301367,34.1336791 48.8580313,34.1336791 C48.1485967,34.1336791 47.5635382,34.0264058 47.0316668,33.8481669 C46.8901072,34.0082518 46.7837329,34.1873158 46.7837329,34.3845338 C46.7837329,34.7773193 47.0496686,35.01002 47.9718517,35.01002 L49.5142787,35.01002 C52.333197,35.01002 53.6800589,36.2255098 53.6800589,37.924555 C53.6800589,39.8191677 52.0320759,41 48.6812863,41 C45.0817445,41 44,39.962749 44,38.5681952 C44,37.7636449 44.4786842,37.1018508 45.3648638,36.70824 C44.6914328,36.3154544 44.4254971,35.7072969 44.4254971,35.0991395 C44.4254971,34.4200165 44.9041813,33.7582223 45.6316177,33.2936461 C44.7978071,32.774608 44.2839375,31.934575 44.2839375,30.9509607 C44.2839375,29.1454674 45.7199902,27.7327596 48.6452827,27.7327596 C49.6910236,27.7327596 50.5428361,27.9473064 51.1982653,28.2517977 C51.8193274,27.5008841 52.7055069,27.018154 54,27 L54,29.3963221 Z" id="Fill-54"></path>
                <path d="M57.1911979,31.9538499 L60.8464766,31.9538499 C60.7719839,30.6421733 60.0852813,30.0923001 59.0098467,30.0923001 C58.0448669,30.0923001 57.2845278,30.6241715 57.1911979,31.9538499 Z M64,33.1951559 L64,33.7270272 L57.2100351,33.7270272 C57.3025088,35.091891 58.1373405,35.7661403 59.3805977,35.7661403 C60.4200702,35.7661403 61.0314239,35.2694542 61.4766675,34.5960232 L63.9263636,35.7129531 C62.9613837,37.1670076 61.4210121,38 59.2136313,38 C55.9856152,38 54,35.9076999 54,32.9995909 C54,30.0751166 55.8554671,28 59.028684,28 C62.1077147,28 64,29.9859259 64,33.1951559 Z" id="Fill-55"></path>
                <path d="M71.0453529,32.9644055 C71.0453529,34.7727682 71.7719578,35.6769495 73,35.6769495 C74.2112744,35.6769495 74.9378793,34.7727682 74.9378793,32.9644055 C74.9378793,31.1208575 74.1769403,30.3230505 73,30.3230505 C71.8062919,30.3230505 71.0453529,31.1208575 71.0453529,32.9644055 Z M78,32.9995909 C78,35.9960723 76.0621207,38 73,38 C69.8340786,38 68,35.9257017 68,32.9995909 C68,30.0571148 69.8692111,28 73,28 C76.079687,28 78,30.1454873 78,32.9995909 Z" id="Fill-56"></path>
                <path d="M86,25.3796778 L86,27.4958598 C85.5129059,27.3506644 84.8809326,27.2246614 84.3222315,27.2246614 C83.6186511,27.2246614 83.3297252,27.404904 83.3297252,28.0198986 L83.3297252,28.5622954 L85.621149,28.5622954 L85.621149,30.696001 L83.3297252,30.696001 L83.3297252,38 L80.2989176,38 L80.2989176,30.696001 L79,30.696001 L79,28.5622954 L80.2989176,28.5622954 L80.2989176,27.7845818 C80.2989176,26.1215097 81.2914238,25 83.6544546,25 C84.5387177,25 85.3680266,25.1810771 86,25.3796778" id="Fill-57"></path>
                <polyline id="Fill-58" points="98.8353813 27.6562273 93.219773 27.6562273 93.219773 30.0887453 98.451271 30.0887453 98.451271 32.6515461 93.219773 32.6515461 93.219773 35.3446298 99 35.3446298 99 38 90 38 90 25 98.8353813 25 98.8353813 27.6562273"></polyline>
                <path d="M109,31.6544432 L109,38 L106.012039,38 L106.012039,32.5271461 C106.012039,31.2004699 105.691901,30.5644038 104.696188,30.5644038 C103.682415,30.5644038 102.988781,31.4186456 102.988781,32.7092389 L102.988781,38 L100,38 L100,28.2727196 L102.864009,28.2727196 L102.864009,29.5817739 C103.575702,28.4724343 104.607534,28 105.870029,28 C107.844217,28 109,29.3098934 109,31.6544432" id="Fill-59"></path>
                <path d="M113.244415,30.8973241 C113.244415,31.6309089 113.776287,32.113639 114.716472,32.113639 C115.655838,32.113639 116.204893,31.6490628 116.204893,30.8799953 C116.204893,30.1109277 115.67384,29.6281976 114.733655,29.6281976 C113.776287,29.6281976 113.244415,30.1290817 113.244415,30.8973241 Z M112.943294,37.2809148 C112.60617,37.5136155 112.46461,37.7817989 112.46461,38.1027938 C112.46461,38.6754686 112.854104,39.0146175 114.574094,39.0146175 C116.063334,39.0146175 116.631209,38.6754686 116.631209,38.085465 C116.631209,37.4773076 116.169708,37.2809148 115.017593,37.2809148 L112.943294,37.2809148 Z M120,29.3963221 C119.361754,29.3963221 119.041813,29.4318048 118.670322,29.5564069 C118.989444,29.9855004 119.113002,30.4863845 119.113002,31.0227514 C119.113002,32.7572793 117.730137,34.1336791 114.858031,34.1336791 C114.148597,34.1336791 113.564356,34.0264058 113.031667,33.8481669 C112.889289,34.0082518 112.783733,34.1873158 112.783733,34.3845338 C112.783733,34.7773193 113.049669,35.01002 113.971852,35.01002 L115.51346,35.01002 C118.333197,35.01002 119.680059,36.2255098 119.680059,37.924555 C119.680059,39.8191677 118.032076,41 114.680468,41 C111.080926,41 110,39.962749 110,38.5681952 C110,37.7636449 110.478684,37.1018508 111.364864,36.70824 C110.691433,36.3154544 110.425497,35.7072969 110.425497,35.0991395 C110.425497,34.4200165 110.904181,33.7582223 111.630799,33.2936461 C110.797807,32.774608 110.283937,31.934575 110.283937,30.9509607 C110.283937,29.1454674 111.71999,27.7327596 114.645283,27.7327596 C115.691024,27.7327596 116.542018,27.9473064 117.198265,28.2517977 C117.818509,27.5008841 118.705507,27.018154 120,27 L120,29.3963221 Z" id="Fill-60"></path>
                <path d="M121.186779,38 L123.8125,38 L123.8125,28.4944649 L121.186779,28.4944649 L121.186779,38 Z M124,25.6162362 C124,26.5223452 123.296154,27.2332923 122.5,27.2332923 C121.702404,27.2332923 121,26.5223452 121,25.6162362 C121,24.7101271 121.702404,24 122.5,24 C123.296154,24 124,24.7101271 124,25.6162362 Z" id="Fill-61"></path>
                <path d="M135,31.6544432 L135,38 L132.011767,38 L132.011767,32.5271461 C132.011767,31.2004699 131.691599,30.5644038 130.695795,30.5644038 C129.68193,30.5644038 128.988233,31.4186456 128.988233,32.7092389 L128.988233,38 L126,38 L126,28.2727196 L128.86345,28.2727196 L128.86345,29.5817739 C129.575208,28.4724343 130.607133,28 131.869744,28 C133.844112,28 135,29.3098934 135,31.6544432" id="Fill-62"></path>
                <path d="M139.191198,31.9538499 L142.846477,31.9538499 C142.77284,30.6421733 142.086138,30.0923001 141.009847,30.0923001 C140.044867,30.0923001 139.283672,30.6241715 139.191198,31.9538499 Z M146,33.1951559 L146,33.7270272 L139.210035,33.7270272 C139.302509,35.091891 140.137341,35.7661403 141.381454,35.7661403 C142.419214,35.7661403 143.031424,35.2694542 143.477524,34.5960232 L145.925507,35.7129531 C144.961384,37.1670076 143.421012,38 141.213631,38 C137.985615,38 136,35.9076999 136,32.9995909 C136,30.0751166 137.855467,28 141.027828,28 C144.107715,28 146,29.9859259 146,33.1951559 Z" id="Fill-63"></path>
                <path d="M149.191198,31.9538499 L152.846477,31.9538499 C152.77284,30.6421733 152.086138,30.0923001 151.009847,30.0923001 C150.044867,30.0923001 149.283672,30.6241715 149.191198,31.9538499 Z M156,33.1951559 L156,33.7270272 L149.210035,33.7270272 C149.303365,35.091891 150.137341,35.7661403 151.380598,35.7661403 C152.42007,35.7661403 153.031424,35.2694542 153.477524,34.5960232 L155.925507,35.7129531 C154.961384,37.1670076 153.421012,38 151.213631,38 C147.985615,38 146,35.9076999 146,32.9995909 C146,30.0751166 147.855467,28 151.028684,28 C154.107715,28 156,29.9859259 156,33.1951559 Z" id="Fill-64"></path>
                <path d="M163,28.0545439 L163,30.9638332 C162.670268,30.9462113 162.548619,30.9462113 162.427771,30.9462113 C161.022409,30.9462113 159.913165,31.5638164 159.913165,34.218847 L159.913165,38 L157,38 L157,28.2727196 L159.791517,28.2727196 L159.791517,29.8368717 C160.433373,28.4908954 161.317727,28 162.288515,28 C162.531813,28 162.756703,28.018461 163,28.0545439" id="Fill-65"></path>
                <path d="M164.186779,38 L166.811779,38 L166.811779,28.4944649 L164.186779,28.4944649 L164.186779,38 Z M167,25.6162362 C167,26.5223452 166.296154,27.2332923 165.5,27.2332923 C164.702404,27.2332923 164,26.5223452 164,25.6162362 C164,24.7101271 164.702404,24 165.5,24 C166.296154,24 167,24.7101271 167,25.6162362 Z" id="Fill-66"></path>
                <path d="M178,31.6544432 L178,38 L175.011219,38 L175.011219,32.5271461 C175.011219,31.2004699 174.69108,30.5644038 173.694546,30.5644038 C172.681594,30.5644038 171.98714,31.4186456 171.98714,32.7092389 L171.98714,38 L169,38 L169,28.2727196 L171.863189,28.2727196 L171.863189,29.5817739 C172.574881,28.4724343 173.606713,28 174.869208,28 C176.843397,28 178,29.3098934 178,31.6544432" id="Fill-67"></path>
                <path d="M182.244415,30.8973241 C182.244415,31.6309089 182.777105,32.113639 183.716472,32.113639 C184.655838,32.113639 185.204893,31.6490628 185.204893,30.8799953 C185.204893,30.1109277 184.67384,29.6281976 183.734473,29.6281976 C182.777105,29.6281976 182.244415,30.1290817 182.244415,30.8973241 Z M181.943294,37.2809148 C181.60617,37.5136155 181.46461,37.7817989 181.46461,38.1027938 C181.46461,38.6754686 181.854922,39.0146175 183.574094,39.0146175 C185.064152,39.0146175 185.631209,38.6754686 185.631209,38.085465 C185.631209,37.4773076 185.169708,37.2809148 184.017593,37.2809148 L181.943294,37.2809148 Z M189,29.3963221 C188.361754,29.3963221 188.041813,29.4318048 187.670322,29.5564069 C187.989444,29.9855004 188.113002,30.4863845 188.113002,31.0227514 C188.113002,32.7572793 186.730955,34.1336791 183.858031,34.1336791 C183.149415,34.1336791 182.564356,34.0264058 182.031667,33.8481669 C181.890107,34.0082518 181.783733,34.1873158 181.783733,34.3845338 C181.783733,34.7773193 182.049669,35.01002 182.971852,35.01002 L184.514279,35.01002 C187.333197,35.01002 188.680059,36.2255098 188.680059,37.924555 C188.680059,39.8191677 187.032076,41 183.680468,41 C180.081745,41 179,39.962749 179,38.5681952 C179,37.7636449 179.478684,37.1018508 180.364864,36.70824 C179.691433,36.3154544 179.425497,35.7072969 179.425497,35.0991395 C179.425497,34.4200165 179.904181,33.7582223 180.631618,33.2936461 C179.797807,32.774608 179.283937,31.934575 179.283937,30.9509607 C179.283937,29.1454674 180.71999,27.7327596 183.645283,27.7327596 C184.691024,27.7327596 185.542836,27.9473064 186.198265,28.2517977 C186.818509,27.5008841 187.705507,27.018154 189,27 L189,29.3963221 Z" id="Fill-68"></path>
                <path d="M111.382496,2.19909926 L111.391712,7.17931378 C111.397577,10.4000814 113.079195,12.63854 117.314659,12.6310031 C121.550123,12.6243036 123.223361,10.3791456 123.218334,7.2253726 L123.210793,3.22411735 C123.207442,1.28127261 123.754575,0.782162495 124.701375,0.515021343 L124.700537,0 L120.680407,0.0075368977 L120.681245,0.521720807 C121.628883,0.78634966 122.177692,1.28294748 122.181043,3.22579222 L122.188584,7.22704746 C122.192774,10.0324483 120.717274,11.3304695 117.926308,11.3346567 C115.152938,11.3396813 113.655654,10.0475221 113.650626,7.24212126 L113.64141,2.1949121 C113.638896,0.932900449 114.005048,0.716842715 115.050717,0.565267328 L115.049879,0.0175860946 L110,0.0267978585 L110.000838,0.574479091 C111.048183,0.721867313 111.38082,0.937087614 111.382496,2.19909926 Z M129.504919,11.9292342 C128.558119,11.7977572 128.408139,11.5657882 128.406463,10.6529862 L128.39976,6.81754269 C129.22842,6.06887751 129.908775,5.70208183 130.507019,5.70124439 C131.321434,5.69956953 131.554364,6.11493633 131.556039,6.86192664 L131.562742,10.6471242 C131.564418,11.5599262 131.414438,11.7927326 130.468476,11.9267219 L130.469314,12.4417432 L134.738293,12.4342063 L134.737455,11.9200224 C133.789817,11.7885454 133.640675,11.5565765 133.639,10.642937 L133.631459,6.67517906 C133.628945,5.3470102 133.063379,4.40154826 131.385113,4.40489799 C130.355363,4.40657286 129.343209,5.03883483 128.34865,5.88799197 L128.345298,4.29435682 L127.581155,4.29519426 L125.175613,5.87626791 L125.176451,6.24222616 L126.322665,6.23971386 L126.330206,10.6563359 C126.331882,11.569138 126.18274,11.8019444 125.23594,11.9367711 L125.236778,12.450955 L129.505757,12.4434181 L129.504919,11.9292342 Z M137.876977,3.03150774 C138.574928,3.03067031 139.138818,2.46540298 139.137143,1.75107257 C139.136305,1.12048546 138.65285,0.606301548 138.00601,0.607976414 C137.274544,0.608813848 136.727411,1.17491861 136.729087,1.87166293 C136.729925,2.5189987 137.212541,3.03318261 137.876977,3.03150774 Z M140.251518,11.9099732 C139.22093,11.762585 139.071788,11.5465273 139.070113,10.6337252 L139.058382,4.27509586 L138.244805,4.27677073 L135.805747,5.87459304 L135.806585,6.23971386 L136.985477,6.23720156 L136.993856,10.637075 C136.994693,11.5507144 136.829632,11.7667722 135.81664,11.9175101 L135.817477,12.4325315 L140.252356,12.4249946 L140.251518,11.9099732 Z M147.833459,6.83261648 C148.445109,5.47011286 148.644523,5.17114926 149.291364,5.00366264 L149.290526,4.53888728 L146.018619,4.54474931 L146.019457,5.00952467 C147.09948,5.2406562 147.216782,5.7875 146.72076,6.95153198 L145.463108,9.95791673 L143.895441,6.42478657 C143.561967,5.64513638 143.611401,5.19627225 144.757616,5.06144552 L144.75594,4.54726161 L140.388092,4.55479851 L140.38893,5.06898242 C140.904224,5.20129685 141.120396,5.41735458 141.553578,6.34606786 L144.40487,12.5003636 L145.26872,12.4986887 L147.833459,6.83261648 Z M156.54402,10.9017038 L156.094918,10.5533316 C155.647492,11.0691904 154.967137,11.4192374 154.186236,11.4209123 C152.65795,11.4234246 151.792424,10.2627424 151.474031,8.7520131 L156.454367,7.08300897 C156.352146,5.32356208 155.054276,4.36302634 153.409525,4.36553863 C151.101176,4.3697258 149.410342,6.23217696 149.414531,8.54014253 C149.418721,10.8313594 150.883328,12.5723828 153.457284,12.5673582 C155.035842,12.5648459 155.980967,11.8655893 156.54402,10.9017038 Z M151.339133,7.37443568 C151.336619,6.02951816 151.899672,5.23144444 152.996452,5.22976957 C153.760595,5.2280947 154.242374,5.77577594 154.444302,6.85438974 L151.356728,7.92211692 C151.339971,7.7395565 151.339133,7.55699609 151.339133,7.37443568 Z M161.745555,11.8722887 C160.664694,11.7081519 160.515552,11.4753455 160.513039,10.4461402 L160.507174,7.02606352 C160.838973,6.42813631 161.153176,5.99602084 161.484975,5.6962198 C161.485813,6.34355556 161.934915,6.75808494 162.499643,6.7572475 C163.06521,6.75641007 163.611505,6.30670851 163.610667,5.44331501 C163.608991,4.71307336 163.193405,4.2658841 162.461939,4.26672153 C161.648361,4.2683964 161.018278,4.95006692 160.42171,5.9139524 L160.419197,4.23741137 L159.687731,4.23824881 L157.282188,5.82015989 L157.283026,6.18528071 L158.429241,6.18360585 L158.436782,10.5993905 C158.438457,11.5121925 158.290153,11.7449989 157.343353,11.8798256 L157.344191,12.394847 L161.746392,12.3864727 L161.745555,11.8722887 Z M170.39495,9.93111887 C170.392436,8.38689227 169.112999,7.90788055 167.915674,7.52768594 C166.735945,7.14832875 165.921529,6.90044856 165.919854,6.03705506 C165.919016,5.5722797 166.266734,5.14016423 166.948765,5.13848937 C167.79502,5.13765193 168.544082,5.65099841 169.442285,6.66178013 L169.873791,6.46163363 L169.239519,4.40406056 L168.973074,4.40489799 L168.67479,4.65445305 C168.208931,4.45598141 167.677718,4.34041564 167.112989,4.34125308 C165.351774,4.34460281 164.208073,5.3595717 164.210586,6.88704963 C164.2131,8.43127623 165.492537,8.87679062 166.689862,9.2737339 C167.869591,9.66983975 168.684007,9.90097128 168.685683,10.780276 C168.686521,11.3287947 168.27261,11.7441615 167.474114,11.7458363 C166.361414,11.7475112 165.513484,11.0189444 164.497978,9.72594777 L164.049714,9.89259695 L164.702419,12.4811026 L164.984784,12.4802652 L165.465725,12.1310556 C166.013696,12.3956844 166.629535,12.5439101 167.30989,12.5430726 C169.004913,12.5397229 170.398301,11.5415027 170.39495,9.93111887 Z M173.289812,2.96953769 C173.986925,2.96786283 174.550816,2.4025955 174.549978,1.68826508 C174.548302,1.05767798 174.065685,0.544331501 173.418007,0.545168934 C172.687379,0.5468438 172.140246,1.11211113 172.141084,1.80885545 C172.14276,2.45619122 172.625376,2.97037513 173.289812,2.96953769 Z M175.663515,11.8471658 C174.632927,11.6997775 174.483786,11.4845572 174.48211,10.5709177 L174.471217,4.21228838 L173.656802,4.21396325 L171.217744,5.81178556 L171.218582,6.17690638 L172.397474,6.17523152 L172.405853,10.5751049 C172.407528,11.487907 172.241629,11.7039647 171.228637,11.8555401 L171.229475,12.369724 L175.665191,12.3621871 L175.663515,11.8471658 Z M181.975236,11.6034727 L181.724711,11.0725402 C181.277285,11.2726867 180.878456,11.3731786 180.529062,11.3740161 C179.748999,11.3748535 179.549585,10.9770728 179.548747,10.4293916 L179.53953,5.43242838 L181.648464,5.42824121 L181.646789,4.48194183 L179.537854,4.48529156 L179.534503,2.9419024 L179.236219,2.9419024 L176.249191,4.9065204 L176.250028,5.43745297 L177.462435,5.43577811 L177.47249,10.8648568 C177.474165,11.944308 178.090004,12.5238117 179.303249,12.5212994 C180.250049,12.5204619 181.179254,12.2030748 181.975236,11.6034727 Z M186.413466,13.6878437 L189.54042,6.75892237 C190.152907,5.39641875 190.351484,5.09745514 191,4.93080596 L190.999162,4.46519317 L187.72558,4.4710552 L187.726418,4.93583056 C188.80644,5.16696209 188.924581,5.71380589 188.42772,6.87700043 L187.170906,9.88506005 L185.60324,6.35109246 C185.269765,5.57144227 185.318362,5.12257814 186.464576,4.98775141 L186.463739,4.4735675 L182.09589,4.4811044 L182.096728,4.99612574 C182.612022,5.12760274 182.811436,5.34366047 183.261376,6.27237375 L186.045638,12.244109 L185.582293,13.2406544 C185.317524,13.8226704 185.068675,14.2547858 184.787986,14.5043409 C184.586896,13.8243452 184.203987,13.4592244 183.605743,13.4608993 C183.0075,13.4617367 182.493881,13.8611923 182.495557,14.6408425 C182.496395,15.4213301 183.128992,16.0016713 183.877215,15.9999964 C184.939642,15.9983215 185.60324,15.4657141 186.413466,13.6878437 Z" id="Fill-69"></path>
                <path d="M13.6055775,3.8857649 C13.6022229,1.99899752 14.1498677,1.51510674 15.0967146,1.25486296 L15.0958759,0.755520216 L11.0719863,0.762026311 L11.0736636,1.26218232 C12.0213492,1.51835979 12.57151,2.0014373 12.5748646,3.88739142 L12.5849286,9.56314556 L4.09098237,1.27438125 C3.62468754,0.823834208 3.44102105,0.775851761 3.14161951,0.775851761 L0,0.781544594 L0.000838659773,1.2817006 C0.682669055,1.34432176 1.08187111,1.60212575 1.86434067,2.32592876 C2.11426129,2.55120228 2.34824736,2.82527151 2.34908602,3.27663181 L2.3599886,9.74206315 C2.3641819,11.6280173 1.81569841,12.1127213 0.868851525,12.3721518 L0.869690184,12.8723078 L4.89274111,12.8649885 L4.89190245,12.3656457 C3.94421691,12.1094683 3.39489476,11.6263908 3.39070146,9.74043663 L3.37979888,3.64585267 L12.9405203,12.9324892 L13.6223507,12.9308627 L13.6055775,3.8857649 Z M24.4544803,8.91416264 C24.450287,6.80212173 22.9843097,5.03083752 20.3073077,5.03490383 C17.6143712,5.0397834 16.0049831,6.92899057 16.0091764,9.1215444 C16.012531,11.2335853 17.479347,13.0048695 20.156349,12.9999899 C22.8492855,12.9959236 24.4586736,11.1067165 24.4544803,8.91416264 Z M18.085698,8.19930551 C18.0823434,6.74844645 18.7297887,5.82864735 20.0926108,5.8253943 C21.8554737,5.82295452 22.3746041,7.91791693 22.3779587,9.83640152 C22.3804747,11.2872606 21.733868,12.2078729 20.3702072,12.2103127 C18.608183,12.2135658 18.0890526,10.1177901 18.085698,8.19930551 Z M30.0969833,12.3225429 C29.0159508,12.1631435 28.8658307,11.93787 28.8641534,10.937558 L28.8582828,7.6161968 C29.1895534,7.03552787 29.5048895,6.61588478 29.8369987,6.32473705 C29.8378374,6.95338843 30.287359,7.35595302 30.8526157,7.35513976 C31.4178724,7.3543265 31.9655172,6.91760491 31.9638399,6.07913199 C31.9630013,5.36996769 31.5461874,4.93568589 30.814876,4.93649915 C30.0005374,4.93812568 29.3698652,5.60012078 28.7727395,6.53618512 L28.7702235,4.90803499 L28.0389122,4.90966151 L25.6302813,6.4450998 L25.63112,6.79968195 L26.7784065,6.79805542 L26.7859545,11.0863849 C26.7876318,11.9736535 26.6383504,12.1989271 25.6906648,12.3298622 L25.6923421,12.8300182 L30.0978219,12.8226989 L30.0969833,12.3225429 Z M38.2428856,12.0826306 L37.9921264,11.5670226 C37.5442821,11.7613922 37.14508,11.8589836 36.7953589,11.8589836 C36.0145666,11.8606102 35.8141269,11.4743108 35.8132883,10.9424376 L35.804063,6.08889113 L37.9158083,6.08563808 L37.914131,5.16583898 L35.8023857,5.16990529 L35.7998697,3.67106378 L35.5004682,3.67106378 L32.5114848,5.57897598 L32.5123234,6.09458396 L33.7258641,6.09295744 L33.7350894,11.3653337 C33.7376053,12.4128149 34.3540203,12.9764053 35.567561,12.9739656 C36.5152465,12.972339 37.4453202,12.6641128 38.2428856,12.0826306 Z M43.0140211,12.2997715 C42.0671742,12.1729027 41.9162154,11.9476292 41.9145381,11.0603605 L41.9086675,7.3201695 C42.7045556,6.60937868 43.3192932,6.25317001 44.0178968,6.25235675 C44.8322355,6.25073023 45.0662216,6.65329482 45.0670602,7.37953761 L45.0737695,11.055481 C45.0754468,11.9419363 44.9261654,12.1680231 43.9784798,12.2989583 L43.9793185,12.798301 L48.2531287,12.7909817 L48.2514514,12.2908256 C47.3037658,12.1639568 47.1536457,11.9386833 47.1519684,11.0514147 L47.1452591,7.19818023 C47.1427432,5.90834701 46.5758091,4.99017443 44.8968123,4.99342748 C43.8828726,4.995054 42.8857061,5.57653619 41.9061515,6.38491843 L41.8944103,0 L41.2796727,0.000813261804 L38.6060253,1.69890391 L38.606864,2.05348606 L39.8204047,2.05104627 L39.8363392,11.0636136 C39.8380165,11.9508822 39.6895737,12.176969 38.7418882,12.3079041 L38.7427269,12.8072469 L43.0156984,12.7999275 L43.0140211,12.2997715 Z M56.2472336,11.3262971 L55.797712,10.9887935 C55.3498677,11.4889495 54.668876,11.8288929 53.887245,11.8297062 C52.3575296,11.8329593 51.4911941,10.7057784 51.1725034,9.2386541 L56.157497,7.61782332 C56.0543419,5.90916027 54.7560966,4.97634898 53.1106461,4.97878877 C50.7992998,4.98285508 49.1068843,6.79154933 49.110239,9.03289886 C49.1144323,11.2579832 50.5804096,12.9479412 53.157611,12.9438749 C54.7368074,12.9414351 55.6836543,12.2623615 56.2472336,11.3262971 Z M51.0374791,7.90083843 C51.0349632,6.59473997 51.5985425,5.81970147 52.6955095,5.81807495 C53.4612059,5.81644842 53.9442739,6.34832164 54.1447136,7.39580285 L51.055091,8.43271165 C51.0374791,8.25542058 51.0374791,8.0781295 51.0374791,7.90083843 Z M62.8332288,12.8625487 C63.5486056,12.8617354 64.3126247,12.537244 64.8107886,12.1981138 L64.6606685,11.7467535 C63.8454912,11.8931406 63.5460896,11.7809105 63.545251,11.2490373 L63.537703,6.94444255 C63.5351871,5.65460933 62.9523185,4.96252353 61.0737206,4.96496332 C58.9619753,4.96902962 57.4180027,6.06774632 57.41968,7.09977555 C57.4205187,7.59993156 57.7702398,8.01794813 58.3690429,8.01713487 C59.0508733,8.01632161 59.3821439,7.58041328 59.4811057,7.14450495 C59.5800676,6.64434894 59.4131743,6.27431482 59.1632537,6.06449327 C59.5783903,5.87093697 59.9943655,5.77334555 60.4262753,5.77253229 C61.1416521,5.77171903 61.4905345,6.01244452 61.4922119,6.64109589 L61.4947278,8.25379405 C58.5200016,8.96865118 57.1580182,9.59974234 57.1613728,11.1311143 C57.1630501,12.3079041 57.9455197,12.9357423 59.1758336,12.9333025 C59.9574645,12.9324892 60.8539918,12.6079978 61.6180108,12.0265156 C61.7354232,12.5583888 62.1186907,12.8641752 62.8332288,12.8625487 Z M59.1716403,10.7082182 C59.1708016,9.88601049 59.5523918,9.49889787 61.4964052,8.97922358 L61.5005985,11.3173513 C61.0359809,11.6727467 60.6208444,11.8345858 60.2048691,11.835399 C59.5565851,11.8362123 59.1733176,11.4987087 59.1716403,10.7082182 Z M71.972943,10.3804737 C71.9704271,8.8808189 70.6889549,8.41563315 69.4913488,8.04641229 C68.3105158,7.67800469 67.4953385,7.4372792 67.4936612,6.59880628 C67.4928225,6.14744598 67.8408663,5.72780289 68.5226967,5.72617636 C69.3714204,5.72454984 70.1203436,6.22389259 71.0193869,7.20549959 L71.4512967,7.01113002 L70.8164312,5.01294576 L70.5497374,5.01375902 L70.2511745,5.25611104 C69.7857184,5.06336799 69.2531694,4.95113786 68.6879127,4.95195113 C66.9258885,4.95520417 65.7802793,5.94087748 65.7827953,7.42426701 C65.7853112,8.92392178 67.0667834,9.35657706 68.2643895,9.74124989 C69.4460611,10.126736 70.2603998,10.350383 70.2620771,11.2051211 C70.2629158,11.7378076 69.8486178,12.1411855 69.0502137,12.142812 C67.9364736,12.1444385 67.0869112,11.4360875 66.0704556,10.1812245 L65.6217726,10.3430636 L66.2750885,12.8568559 L66.5577169,12.8568559 L67.0391076,12.5169124 C67.5884298,12.7739032 68.204006,12.9178505 68.8858364,12.9170372 C70.5816065,12.9137842 71.9762977,11.9443761 71.972943,10.3804737 Z M78.2603754,12.0135034 L78.0104547,11.4987087 C77.5617718,11.692265 77.1625697,11.7906696 76.8136873,11.7906696 C76.0320563,11.7922962 75.8324553,11.4051835 75.830778,10.8733103 L75.8223914,6.02057714 L77.9341367,6.01651083 L77.9324594,5.09752499 L75.8207141,5.1015913 L75.8181981,3.60193653 L75.5187966,3.60274979 L72.5298131,5.50984872 L72.5306518,6.02626997 L73.7441925,6.02383018 L73.7534177,11.2962065 C73.7559337,12.3445009 74.37151,12.9072781 75.5850507,12.9056516 C76.5327362,12.904025 77.4636486,12.5957988 78.2603754,12.0135034 Z M85.9408216,11.2750617 L85.4904613,10.937558 C85.0426169,11.437714 84.3616252,11.7776575 83.580833,11.779284 C82.0511175,11.7817238 81.1839433,10.6545429 80.8652526,9.18823187 L85.8502463,7.56740109 C85.7479298,5.85873804 84.4488458,4.92511349 82.8033954,4.92755327 C80.492049,4.93161958 78.7996336,6.74031383 78.8038269,8.98166337 C78.8080202,11.2067477 80.2739975,12.897519 82.8503603,12.8926394 C84.4303953,12.8901996 85.3764035,12.211126 85.9408216,11.2750617 Z M80.7302284,7.84960294 C80.7277124,6.54431774 81.2921304,5.76927924 82.3890974,5.76683945 C83.1539551,5.76602619 83.6370232,6.29708615 83.8383015,7.34456735 L80.7478402,8.38228942 C80.7310671,8.20499834 80.7302284,8.02770727 80.7302284,7.84960294 Z M91.1463828,12.2176321 C90.0653503,12.0582328 89.9152302,11.8329593 89.9127142,10.8334605 L89.9068436,7.51209929 C90.2389529,6.9306171 90.5534503,6.51097401 90.8855596,6.21982628 C90.8863982,6.84929092 91.3367585,7.25104225 91.9011766,7.25022899 C92.4672719,7.24941572 93.0149167,6.81269413 93.0132394,5.97503448 C93.0115621,5.26587018 92.5955869,4.83077512 91.8642755,4.83158838 C91.0490982,4.8332149 90.4184261,5.49521001 89.822139,6.43208761 L89.8187844,4.80312422 L89.087473,4.80475074 L86.6796808,6.34018903 L86.6796808,6.69477117 L87.827806,6.69314465 L87.835354,10.9814741 C87.8370313,11.8687428 87.6877499,12.0948296 86.7400643,12.2249514 L86.740903,12.7251075 L91.1472214,12.7177881 L91.1463828,12.2176321 Z M97.7625697,12.2062464 C96.8148842,12.0785643 96.6647641,11.8532908 96.6630868,10.9668354 L96.6563775,7.24209637 C97.485812,6.51504031 98.1668037,6.15964491 98.7656068,6.15801838 C99.5799454,6.15720512 99.8139315,6.55976971 99.8147702,7.28519924 L99.8214795,10.9611426 C99.8231568,11.847598 99.674714,12.0736847 98.7270285,12.2046199 L98.7278671,12.7047759 L103,12.6974566 L102.999161,12.1973005 C102.051476,12.0696184 101.901356,11.8443449 101.899678,10.9578896 L101.892969,7.10384186 C101.890453,5.81400864 101.323519,4.89583606 99.6445222,4.89908911 C98.6138094,4.90071563 97.6007084,5.51554156 96.6043806,6.33937576 L96.6018646,4.79173855 L95.8370069,4.79255181 L93.4292147,6.32880336 L93.4300533,6.68338551 L94.5765012,6.68175898 L94.5848878,10.9700885 C94.5865652,11.8573571 94.4372837,12.0826306 93.4895982,12.2135658 L93.4904368,12.7137218 L97.7634084,12.7055892 L97.7625697,12.2062464 Z" id="Fill-70"></path>
            </g>
        </g>
    </g>
</svg>