<?xml version="1.0" encoding="utf-8"?>
<!-- Generator: Adobe Illustrator 22.1.0, SVG Export Plug-In . SVG Version: 6.00 Build 0)  -->
<svg version="1.1" id="Layer_1" xmlns="http://www.w3.org/2000/svg" xmlns:xlink="http://www.w3.org/1999/xlink" x="0px" y="0px"
	 viewBox="0 0 252 40" style="enable-background:new 0 0 252 40;" xml:space="preserve">
<style type="text/css">
	.st0{fill:#CC0000;}
	.st1{fill:#D02139;}
	.st2{font-family:'Lato-Regular';}
	.st3{font-size:14.4px;}
</style>
<path id="Fill-1" class="st0" d="M161.9,0.4V1c-2.6,0.2-2.6,1.5-2.6,3.7v5c0,2.3,0,3.4-0.7,4.7c-0.9,1.7-3,3-6.1,3
	c-3.6,0-5.2-1.6-5.9-2.6c-0.9-1.3-0.9-2.5-0.9-5.5V4.9c0-3.6,0-3.8-2.3-3.8H143V0.4h7.5V1c-2.6,0-2.7,0-2.7,3.8v4.6
	c0,2.5,0,3.9,0.7,5c0.6,1,2.1,2.1,4.6,2.1c1.7,0,3.8-0.6,4.9-2.4c0.7-1.1,0.7-2.4,0.7-4.6V4.5c0-2.1,0-3.3-2.7-3.5V0.4H161.9"/>
<path id="Fill-2" class="st0" d="M164.8,6.1c0.2,0.6,0.3,1.6,0.3,2.2c1.3-1.5,2.5-2.2,4.1-2.2c2.4,0,3.3,1.7,3.3,3.5v3.9
	c0,2.9,0,3,1.7,3v0.6h-5.4v-0.6c1.8,0,1.8-0.2,1.8-3v-3.4c0-2.4-0.8-3.2-2.1-3.2c-1.5,0-2.5,1.3-3.4,2.3v4.3c0,2.9,0,3,1.7,3v0.6
	h-5.3v-0.6c1.7,0,1.7-0.2,1.7-3v-3.2c0-2.9,0-3-1.7-3V6.7c1.1-0.2,2.4-0.4,2.9-0.6H164.8"/>
<path id="Fill-3" class="st0" d="M179.1,14.5c0,1.7,0.2,2,1.4,2h0.4v0.6h-5.6v-0.6h0.4c1.3,0,1.6-0.2,1.6-2v-4.2
	c0-2.9-0.2-2.9-2.1-2.9V6.8c0.8,0,2.4-0.4,3.5-0.7h0.3V14.5"/>
<path id="Fill-4" class="st0" d="M186.9,17.5l-3.7-8.5c-0.7-1.5-0.9-1.9-1.9-2V6.5h4.7v0.6c-0.7,0-1.3,0-1.3,0.6
	c0,0.1,0,0.3,0.3,0.9l3.1,6.9l2.6-5.8c0.4-0.8,0.6-1.4,0.6-1.8c0-0.8-0.8-0.9-1.3-0.9V6.5h3.6v0.6c-1.1,0.1-1.5,1.1-2.3,2.9
	l-3.4,7.6H186.9"/>
<path id="Fill-5" class="st0" d="M195.7,10h5.6c0-1.2-0.4-3.4-2.6-3.4C196.7,6.7,195.9,8.6,195.7,10z M195.7,10.6
	c0,0.2-0.1,0.6-0.1,0.8c0,3.4,1.1,5.5,3.6,5.5c1.5,0,2.7-0.7,3.4-2.1h0.6c-0.7,1.7-2.2,2.8-4.3,2.8c-2.9,0-5.4-2.2-5.4-5.6
	c0-3.3,2.1-5.8,5.3-5.8c3,0,4.5,2,4.6,4.5H195.7z"/>
<path id="Fill-6" class="st0" d="M208.5,13.5c0,2.7,0,3,1.6,3h0.4v0.6h-5.6v-0.6c1.8,0,1.8-0.1,1.8-3v-3c0-2.9,0-3-1.8-3V6.9
	c1.2-0.2,2.6-0.6,3-0.7l0.2-0.1c0.1,0.4,0.4,1.3,0.4,2.8c0.8-2,2.7-2.8,4.1-2.8c1.4,0,2,1,2,1.6c0,0.5-0.3,1-0.9,1
	c-0.6,0-0.9-0.4-1-0.8c-0.1-0.3-0.3-0.8-0.9-0.8c-1.1,0-3.1,1.3-3.1,4V13.5"/>
<path id="Fill-7" class="st0" d="M215.4,14h0.5c0.3,1.3,1.2,3,3.6,3c2.2,0,2.4-1.3,2.4-1.9c0-1.3-1.4-1.9-3-2.5
	c-2.4-0.9-3.5-1.7-3.5-3.5c0-1.4,1-2.9,3.4-2.9c1.2,0,2.1,0.5,2.7,1.1c0.2-0.2,0.5-0.9,0.5-0.9h0.5v3.3H222
	c-0.2-1.2-1.3-2.9-3.2-2.9c-1.7,0-2.3,0.8-2.3,1.6c0,1.2,1,1.7,2.9,2.4c2.1,0.7,3.7,1.6,3.7,3.7c0,1.8-1.3,3.1-3.7,3.1
	c-1.6,0-2.5-0.6-3.1-1.2c-0.3,0.3-0.5,0.8-0.6,1.1h-0.5V14"/>
<path id="Fill-8" class="st0" d="M228.7,14.5c0,1.7,0.2,2,1.4,2h0.4v0.6h-5.6v-0.6h0.4c1.3,0,1.6-0.2,1.6-2v-4.2
	c0-2.9-0.2-2.9-2.1-2.9V6.8c0.8,0,2.4-0.4,3.5-0.7h0.3V14.5"/>
<path id="Fill-9" class="st0" d="M234.9,7.1v6.4c0,1.5,0,3.1,1.6,3.1c0.9,0,1.4-0.7,1.6-1.1l0.4,0.2c-0.8,1.7-2.5,1.7-2.7,1.7
	c-0.7,0-1.3-0.2-1.7-0.5c-0.7-0.5-1-1.5-1-3.1V7.1h-1.5V6.5c1.2-0.1,2.6-0.8,2.9-3.3h0.4v3.3h3.2v0.6H234.9"/>
<path id="Fill-10" class="st0" d="M248.5,8.8c0.2-0.4,0.4-0.8,0.4-1c0-0.6-0.9-0.7-1.4-0.7V6.5h3.7v0.6c-1.3,0.1-1.6,0.7-2.2,2.3
	l-4.7,11.4c-0.7,1.6-1.3,2.8-2.3,2.8c-0.4,0-0.8-0.3-0.8-0.8c0-0.9,0.9-1.3,1.3-1.5c0.9-0.4,1.2-0.6,1.6-1.5l1-2.5L241,8.8
	c-0.6-1.3-0.8-1.7-2.1-1.7V6.5h4.8v0.6c-0.7,0.1-1.3,0.1-1.3,0.5c0,0.2,0.3,0.9,0.5,1.3l2.9,6.2L248.5,8.8"/>
<path id="Fill-11" class="st0" d="M179.1,2.7c0,0.6-0.5,1.1-1.1,1.1c-0.6,0-1.1-0.5-1.1-1.1c0-0.6,0.5-1.1,1.1-1.1
	C178.6,1.6,179.1,2.1,179.1,2.7"/>
<path id="Fill-12" class="st0" d="M228.7,2.7c0,0.6-0.5,1.1-1.1,1.1c-0.6,0-1.1-0.5-1.1-1.1c0-0.6,0.5-1.1,1.1-1.1
	C228.2,1.6,228.7,2.1,228.7,2.7"/>
<path id="Fill-13" class="st0" d="M4.2,1.9v11.9c0,1.8,0.4,2.7,3.1,2.8v0.6H0.7v-0.6c2.9-0.1,2.8-1.3,2.8-2.8V4.6C3.6,1.3,3.4,1,1,1
	V0.5h4.7l9.9,13.2V3.6c0-1.4-0.2-2.5-3-2.5V0.5h6.3V1c-2.6,0.2-2.7,1.1-2.7,2.7v13.8h-0.4L4.2,1.9"/>
<path id="Fill-14" class="st0" d="M24.3,16.9c2.4,0,3.5-1.7,3.5-5c0-2.9-0.8-5.2-3.5-5.2c-2.7,0-3.5,2.3-3.5,5.1
	C20.8,15.3,21.9,16.9,24.3,16.9z M24.3,6.1c3.1,0,5.6,2.4,5.6,5.7c0,3.8-2.8,5.7-5.6,5.7c-2.7,0-5.6-1.8-5.6-5.8
	C18.7,8.5,21.2,6.1,24.3,6.1z"/>
<path id="Fill-15" class="st0" d="M34.6,13.5c0,2.7,0,3,1.6,3h0.4v0.6H31v-0.6c1.8,0,1.8-0.1,1.8-3v-3c0-2.9,0-3-1.8-3V6.9
	c1.2-0.2,2.6-0.6,3-0.7l0.2-0.1c0.1,0.4,0.4,1.3,0.4,2.8c0.8-2,2.7-2.8,4.1-2.8c1.4,0,2,1,2,1.6c0,0.5-0.3,1-0.9,1
	c-0.6,0-0.9-0.4-1-0.8C38.5,7.5,38.3,7,37.7,7c-1.1,0-3.1,1.3-3.1,4V13.5"/>
<path id="Fill-16" class="st0" d="M44.8,7.1v6.4c0,1.5,0,3.1,1.6,3.1c0.9,0,1.4-0.7,1.6-1.1l0.4,0.2c-0.8,1.7-2.5,1.7-2.7,1.7
	c-0.7,0-1.3-0.2-1.7-0.5c-0.7-0.5-1-1.5-1-3.1V7.1h-1.5V6.5c1.2-0.1,2.6-0.8,2.9-3.3h0.4v3.3H48v0.6H44.8"/>
<path id="Fill-17" class="st0" d="M60.4,13.5c0,2.9,0,3,1.8,3v0.6h-5.4v-0.6c1.8,0,1.8-0.1,1.8-3v-3.4c0-2.5-0.7-3.2-2.3-3.2
	c-1.2,0-2.4,1.2-3.2,2.3v4.3c0,2.8,0,3,1.7,3v0.6h-5.3v-0.6c1.8,0,1.8-0.1,1.8-3V3.8c0-1.9,0-2.5-1.7-2.5V0.8c1.1,0,2.5-0.2,3.4-0.6
	H53v8.1c1.3-1.4,2.5-2.2,3.8-2.2c2.3,0,3.5,1.2,3.5,3.7V13.5"/>
<path id="Fill-18" class="st0" d="M64.8,10h5.6c0-1.2-0.4-3.4-2.6-3.4C65.7,6.7,64.9,8.6,64.8,10z M64.8,10.6c0,0.2-0.1,0.6-0.1,0.8
	c0,3.4,1.1,5.5,3.6,5.5c1.5,0,2.7-0.7,3.4-2.1h0.6c-0.7,1.7-2.2,2.8-4.3,2.8c-2.9,0-5.4-2.2-5.4-5.6c0-3.3,2.1-5.8,5.3-5.8
	c3,0,4.5,2,4.6,4.5H64.8z"/>
<path id="Fill-19" class="st0" d="M86,14h0.5c0.3,1.3,1.2,3,3.6,3c2.2,0,2.4-1.4,2.4-1.9c0-1.3-1.4-1.9-3-2.5
	C87.1,11.7,86,10.9,86,9c0-1.3,1-2.9,3.4-2.9c1.2,0,2.1,0.5,2.7,1.1c0.2-0.2,0.5-0.9,0.5-0.9h0.5v3.3h-0.5c-0.2-1.2-1.3-2.9-3.2-2.9
	c-1.7,0-2.3,0.8-2.3,1.6c0,1.2,1,1.7,2.9,2.4c2.1,0.7,3.7,1.6,3.7,3.7c0,1.8-1.3,3.1-3.7,3.1c-1.6,0-2.5-0.6-3.1-1.2
	c-0.3,0.3-0.5,0.8-0.6,1.1H86V14"/>
<path id="Fill-20" class="st0" d="M98.6,7.1v6.4c0,1.5,0,3.1,1.6,3.1c0.9,0,1.4-0.7,1.6-1.1l0.4,0.2c-0.8,1.7-2.5,1.7-2.7,1.7
	c-0.7,0-1.3-0.2-1.7-0.5c-0.7-0.5-1-1.5-1-3.1V7.1h-1.5V6.5c1.2-0.1,2.6-0.8,2.9-3.3h0.4v3.3h3.2v0.6H98.6"/>
<path id="Fill-21" class="st0" d="M105,10h5.6c0-1.2-0.4-3.4-2.6-3.4C105.9,6.7,105.1,8.6,105,10z M105,10.6c0,0.2-0.1,0.6-0.1,0.8
	c0,3.4,1.1,5.5,3.6,5.5c1.5,0,2.7-0.7,3.4-2.1h0.6c-0.7,1.7-2.2,2.8-4.3,2.8c-2.9,0-5.4-2.2-5.4-5.6c0-3.3,2.1-5.8,5.3-5.8
	c3,0,4.5,2,4.6,4.5H105z"/>
<path id="Fill-22" class="st0" d="M117.4,13.5c0,2.7,0,3,1.6,3h0.4v0.6h-5.6v-0.6c1.8,0,1.8-0.1,1.8-3v-3c0-2.9,0-3-1.8-3V6.9
	c1.2-0.2,2.6-0.6,3-0.7l0.2-0.1c0.1,0.4,0.4,1.3,0.4,2.8c0.8-2,2.7-2.8,4.1-2.8c1.4,0,2,1,2,1.6c0,0.5-0.3,1-0.9,1
	c-0.6,0-0.9-0.4-1-0.8c-0.1-0.3-0.3-0.8-0.9-0.8c-1.1,0-3.1,1.3-3.1,4V13.5"/>
<path id="Fill-23" class="st0" d="M127.5,6.1c0.2,0.6,0.3,1.6,0.3,2.2c1.3-1.5,2.5-2.2,4.1-2.2c2.4,0,3.3,1.7,3.3,3.5v3.9
	c0,2.9,0,3,1.7,3v0.6h-5.4v-0.6c1.8,0,1.8-0.2,1.8-3v-3.4c0-2.4-0.8-3.2-2.1-3.2c-1.5,0-2.5,1.3-3.4,2.3v4.3c0,2.9,0,3,1.7,3v0.6
	h-5.3v-0.6c1.7,0,1.7-0.2,1.7-3v-3.2c0-2.9,0-3-1.7-3V6.7c1.1-0.2,2.4-0.4,2.9-0.6H127.5"/>
<path id="Fill-24" class="st1" d="M80.7,14.9c-1.1,0.9-2.5,1.7-3.5,1.7c-1.1,0-1.7-0.8-1.7-1.8c0-1.5,1.4-2.8,3.6-3.5l1.5-0.5V14.9z
	 M84.4,15.2c-0.2,1.2-0.8,1.3-1.1,1.3c-0.8,0-0.8-0.6-0.8-2.4V9.8c0-1.6-0.2-3.7-3.8-3.7c-2.6,0-4.2,1.4-4.2,2.4
	c0,0.5,0.3,0.8,0.7,0.8c0.7,0,0.9-0.5,1.1-1.1c0.2-0.7,0.6-1.5,2.3-1.5c2,0,2.2,1.3,2.2,2.8v0.7l-2,0.7c-3.7,1.3-4.8,2.8-4.8,4.3
	s1.2,2.3,2.7,2.3c1.3,0,2.6-0.5,4.1-1.9c0.1,0.6,0.5,1.9,2,1.9c1.4,0,2.1-1,2.1-2.2H84.4z"/>
<text transform="matrix(1 0 0 1 0.8 36.4)" class="st2 st3">College of Engineering</text>
</svg>
