<svg version="1.1" id="Layer_1" xmlns="http://www.w3.org/2000/svg" xmlns:xlink="http://www.w3.org/1999/xlink" x="0px" y="0px"
	 viewBox="0 0 578.7 387.6" style="enable-background:new 0 0 578.7 387.6;" xml:space="preserve">
<style type="text/css">
	.st0{fill:#FFFFFF;}
	.st1{fill:url(#SVGID_1_);}
	.st2{fill:url(#SVGID_2_);}
	.st3{fill:url(#SVGID_3_);}
</style>
<path class="st0" d="M82.3,140.6c4.5-0.3,6.6-0.3,11.1-0.6c1.5,0,2.4,0.6,2.4,2.4v2.7c0,1.4-1,2.6-2.4,2.7
	c-6.9,0.3-10.2,0.6-17.1,0.9c-1.5,0-2.4-0.6-2.4-2.4v-29.1c0-1.4,1-2.6,2.4-2.7c1.1,0,2.2-0.1,3.3-0.3c1.5,0,2.4,0.6,2.4,2.4
	C82.1,126.2,82.1,131,82.3,140.6z"/>
<path class="st0" d="M117.7,147.5h-3c-1.6,0.2-3-0.9-3.3-2.4c-4.5-12-6.6-17.7-10.8-29.7c-0.3-1.2,0.3-2.4,1.5-2.4h3.9
	c1.8,0,2.4,0.6,3,2.4c3,8.4,4.5,12.6,7.5,21c3-8.4,4.5-12.6,7.2-21.3c0.6-1.8,1.2-2.4,3-2.4h3.3c1.2,0,1.8,1.2,1.5,2.4
	c-4.2,12-6.3,18-10.8,29.7C120.1,146.9,119.5,147.5,117.7,147.5z"/>
<path class="st0" d="M144.7,147.5c-1.5,0-3-0.1-4.5-0.3c-0.7-0.1-1.2-0.8-1.1-1.5c0-0.2,0.1-0.4,0.2-0.6c4.2-6,6-9,9.9-15.3
	c-3.6-6-5.1-8.7-8.4-14.7c-0.4-0.6-0.3-1.5,0.4-1.9c0.2-0.2,0.5-0.2,0.8-0.2c1.5,0,3,0.1,4.5,0.3c1.8,0,2.4,0.6,3.6,2.4
	c1.8,3.6,3,5.1,4.8,8.7c2.1-3.3,3-4.8,4.8-8.1c0.9-1.8,1.5-2.1,3.6-1.8c1.4-0.1,2.8,0,4.2,0.3c0.9,0,1.5,1.2,1.2,2.1
	c-3.6,5.4-5.1,8.4-8.7,13.8c3.9,6.6,6,9.6,9.9,16.2c0.4,0.6,0.3,1.4-0.4,1.9c-0.2,0.2-0.5,0.2-0.8,0.2c-1.6,0-3.2-0.1-4.8-0.3
	c-2.1,0-2.7-0.6-3.6-2.4c-2.4-4.2-3.6-6.3-6-10.2c-2.4,3.9-3.6,5.7-6,9.6C147.1,147.2,146.5,147.5,144.7,147.5z"/>
<path class="st0" d="M19.4,215.2c-1.1,0.2-2.2,0.3-3.3,0.3c-1.8,0.3-2.7-0.3-3.6-1.8C7.4,202.6,5,197,0.2,185.9
	c-0.4-0.8-0.1-1.8,0.7-2.2c0.2-0.1,0.5-0.2,0.8-0.2c1.5-0.3,2.4-0.3,3.9-0.6c1.4-0.4,2.8,0.3,3.3,1.7c0,0,0,0.1,0,0.1
	c3.3,7.8,5.1,12,8.4,19.8c2.7-8.7,4.2-13.2,6.9-21.9c0.6-1.8,1.2-2.4,3-2.7c1.5-0.3,2.1-0.3,3.6-0.6c0.7-0.2,1.5,0.3,1.7,1
	c0.1,0.4,0,0.8-0.2,1.1c-3.9,12.3-6,18.6-10.2,30.9C21.8,214.3,21.2,215.2,19.4,215.2z"/>
<path class="st0" d="M48.2,211.9c-1.5,0-2.4-0.6-2.4-2.1c0-11.7-0.3-17.4-0.3-29.1c0-1.4,1-2.6,2.4-2.7l19.2-1.5
	c1.5,0,2.4,0.6,2.4,2.1v2.4c0,1.5-0.6,2.4-2.4,2.7c-5.4,0.3-8.1,0.6-13.5,1.2v6c3.6-0.3,5.7-0.6,9.3-0.9c1.5,0,2.4,0.6,2.4,2.1v2.1
	c0,1.4-1,2.6-2.4,2.7c-3.6,0.3-5.7,0.6-9.3,0.9v6.6c5.4-0.3,8.1-0.6,13.5-1.2c1.5,0,2.4,0.6,2.4,2.1v2.4c0,1.4-1,2.6-2.4,2.7
	C59.8,210.7,55.9,211,48.2,211.9z"/>
<path class="st0" d="M89.2,208.9h-3.6c-1.5,0-2.4-0.6-2.4-2.4v-29.1c-0.1-1.2,0.8-2.3,2-2.4c0.1,0,0.3,0,0.4,0
	c4.5,0,6.6-0.3,11.1-0.3c7.2-0.3,12,3.9,12,10.2c0.1,3.8-2,7.3-5.4,9c2.7,4.8,4.2,7.2,6.9,12.3c0.4,0.6,0.3,1.5-0.4,1.9
	c-0.2,0.2-0.5,0.2-0.8,0.2h-4.2c-2.1,0-2.7-0.3-3.6-2.1c-2.1-4.2-3.3-6.3-5.4-10.5h-3.9v10.5C91.6,208,90.7,208.9,89.2,208.9z
	 M96.7,181.7c-1.7,0-3.4,0.1-5.1,0.3v7.8c1.7,0,3.4-0.1,5.1-0.3c2.1-0.1,3.7-1.8,3.6-3.8c0,0,0,0,0-0.1
	C100.3,183.2,98.8,181.7,96.7,181.7z"/>
<path class="st0" d="M124.6,208.3c-1.2,0.1-2.3-0.8-2.4-2c0-0.1,0-0.3,0-0.4v-29.1c-0.1-1.2,0.8-2.3,2-2.4c0.1,0,0.3,0,0.4,0h3.6
	c1.2-0.1,2.3,0.8,2.4,2c0,0.1,0,0.3,0,0.4v29.1c0.1,1.2-0.8,2.3-2,2.4c-0.1,0-0.3,0-0.4,0L124.6,208.3z"/>
<path class="st0" d="M154.3,209.2c-1.2,0.1-2.3-0.8-2.4-2c0-0.1,0-0.3,0-0.4c0-9.6,0.3-14.4,0.3-24c-3,0-4.5-0.3-7.5-0.3
	c-1.2,0.1-2.3-0.8-2.4-2c0-0.1,0-0.3,0-0.4v-2.7c-0.1-1.2,0.8-2.3,2-2.4c0.1,0,0.3,0,0.4,0c9.3,0.3,14.1,0.6,23.4,1.2
	c1.2-0.1,2.3,0.8,2.4,2c0,0.1,0,0.3,0,0.4v2.7c0.1,1.2-0.8,2.3-2,2.4c-0.1,0-0.3,0-0.4,0c-3,0-4.5-0.3-7.5-0.3c0,9.6,0,14.4-0.3,24
	c0.1,1.2-0.8,2.3-2,2.4c-0.1,0-0.3,0-0.4,0C156.7,209.4,155.5,209.1,154.3,209.2z"/>
<path class="st0" d="M179.7,210.4c-1.5,0-2.1-0.3-3.6-0.3c-0.9,0-1.7-0.7-1.7-1.6c0-0.3,0.1-0.6,0.2-0.8
	c5.1-11.4,7.8-17.1,12.6-28.5c0.6-1.8,1.5-2.1,3.3-2.1c1.5,0,2.1,0.3,3.3,0.3c1.6,0.1,2.9,1.2,3.3,2.7c4.5,12.3,6.6,18.3,11.1,30.6
	c0.4,0.6,0.2,1.5-0.4,1.9c-0.3,0.2-0.7,0.3-1.1,0.2c-1.8,0-2.4-0.3-4.2-0.3c-1.6-0.1-2.9-1.2-3.3-2.7l-1.5-4.5
	c-5.1-0.6-7.8-0.6-12.9-1.2c-0.5,1.4-1.1,2.8-1.8,4.2C182.4,210.4,181.5,210.7,179.7,210.4z M195.3,198.8c-1.5-4.5-2.4-6.9-3.9-11.4
	c-1.8,4.2-2.4,6.3-4.2,10.5C189.9,198.3,192.6,198.6,195.3,198.8L195.3,198.8z"/>
<path class="st0" d="M36.5,274c-1.5,0-2.1,0.3-3.3,0.3c-2.1,0.3-2.7-0.3-3.6-1.8c-5.1-11.4-7.8-17.1-12.6-28.2
	c-0.4-0.8-0.1-1.8,0.7-2.2c0.2-0.1,0.5-0.2,0.8-0.2c1.4-0.2,2.8-0.3,4.2-0.3c1.4-0.4,2.8,0.3,3.2,1.7c0,0,0,0.1,0,0.1
	c3.3,8.1,5.1,12,8.7,20.1c3-8.7,4.5-13.2,7.2-21.9c0.4-1.5,1.7-2.6,3.3-2.7c1.5,0,2.1-0.3,3.6-0.3c0.9-0.1,1.7,0.6,1.8,1.5
	c0,0.2,0,0.4,0,0.6c-4.2,12.3-6.3,18.6-10.5,30.9C39.2,273.4,38.3,274,36.5,274z"/>
<path class="st0" d="M66.1,271.6c-1.8,0-2.7-0.6-2.7-2.4c-0.3-11.7-0.3-17.4-0.6-29.1c0-1.4,1-2.6,2.4-2.7c1.2,0,2.4-0.1,3.6-0.3
	c1.5,0,2.4,0.6,2.4,2.4c0.3,11.7,0.3,17.4,0.6,29.1c0,1.4-1,2.6-2.4,2.7C68.3,271.3,67.2,271.4,66.1,271.6z"/>
<path class="st0" d="M93.1,270.1h-3.6c-1.8,0-2.4-0.9-2.4-2.4v-29.1c-0.1-1.2,0.8-2.3,2-2.4c0.1,0,0.3,0,0.4,0
	c4.5,0,6.9-0.3,11.4-0.3c7.5-0.3,12.3,3.9,12.3,10.2c0,3.9-2.2,7.4-5.7,9c2.7,4.8,4.2,7.5,6.9,12.3c0.4,0.6,0.3,1.5-0.4,1.9
	c-0.2,0.2-0.5,0.2-0.8,0.2h-4.5c-2.1,0-2.7-0.3-3.6-2.1c-2.4-4.2-3.3-6.3-5.7-10.5h-3.9v10.5C95.8,269.2,94.9,270.1,93.1,270.1z
	 M100.9,242.8h-5.4v7.8h5.4c2.1-0.1,3.8-1.8,3.9-3.9c0.1-2.1-1.6-3.8-3.7-3.9C101.1,242.8,101,242.8,100.9,242.8L100.9,242.8z"/>
<path class="st0" d="M134.5,269.8c-1.8,0-2.4-0.9-2.4-2.4c0-9.6,0-14.4,0.3-24h-7.8c-1.2,0.1-2.3-0.8-2.4-2c0-0.1,0-0.3,0-0.4v-2.7
	c-0.1-1.2,0.8-2.3,2-2.4c0.1,0,0.3,0,0.4,0c9.6,0.3,14.4,0.3,24,0.3c1.2-0.1,2.3,0.8,2.4,2c0,0.1,0,0.3,0,0.4v2.7
	c0.1,1.2-0.8,2.3-2,2.4c-0.1,0-0.3,0-0.4,0h-7.8v24c0.1,1.2-0.8,2.3-2,2.4c-0.1,0-0.3,0-0.4,0C137.1,269.8,135.8,269.7,134.5,269.8z
	"/>
<path class="st0" d="M177.4,271.9c-1.1,0-2.2-0.1-3.3-0.3c-1.6,0.2-3-0.9-3.3-2.4c-4.5-12.3-6.6-18.3-11.1-30.3
	c-0.6-1.2,0.3-2.4,1.8-2.1c1.5,0,2.4,0.3,4.2,0.3c1.6-0.2,3,0.9,3.3,2.4c3,8.7,4.5,12.9,7.5,21.6c3.3-8.1,5.1-12.3,8.4-20.7
	c0.6-1.8,1.5-2.1,3.3-2.1c1.2,0,2.4,0.1,3.6,0.3c0.9,0,1.7,0.7,1.7,1.6c0,0.3-0.1,0.6-0.2,0.8c-4.8,11.7-7.2,17.4-12.3,28.8
	C180.1,271.6,179.2,271.9,177.4,271.9z"/>
<path class="st0" d="M229.2,209.8c2.1,0.3,3.6-0.6,3.6-2.1c0-1.2-0.6-2.1-2.1-3c-1.2-0.9-5.1-3.6-6.6-4.8c-3.6-2.4-5.4-5.7-5.1-9.3
	c0.3-5.7,5.1-9.6,11.7-9c3.3,0.3,6.3,1.7,8.7,3.9c0.9,0.9,0.9,2.4,0,3.3c-0.3,0.3-1.2,1.5-1.5,1.8c-0.9,1.2-2.1,1.2-3.3,0
	c-1.1-1-2.4-1.7-3.9-1.8c-1.5-0.3-2.9,0.6-3.3,2.1c0,1.2,0.6,2.1,2.1,3c1.2,0.9,5.1,3.6,6.6,4.8c3.6,2.7,5.4,5.7,5.1,9.3
	c-0.3,6.3-5.4,9.6-12,9c-4.1-0.4-7.9-2.2-10.8-5.1c-1-0.8-1.2-2.2-0.4-3.2c0.1-0.2,0.3-0.3,0.4-0.4l1.8-1.8c1.2-1.2,2.1-0.9,3.3,0
	C224.9,208.3,227,209.5,229.2,209.8z"/>
<path class="st0" d="M211.8,268.3c2.1,0.3,3.6-0.6,3.6-2.1c0-1.2-0.6-2.1-2.1-3s-5.1-3.6-6.3-4.5c-3.2-2-5.1-5.5-5.1-9.3
	c0.3-5.7,5.1-9.6,11.7-9c3.1,0.2,6.1,1.5,8.4,3.6c0.9,0.9,0.9,2.4,0,3.3c-0.3,0.3-1.2,1.5-1.5,1.8c-0.9,1.2-2.1,1.2-3.3,0.3
	c-1.1-1-2.4-1.7-3.9-1.8c-1.5-0.3-2.9,0.6-3.3,2.1c0,1.2,0.6,2.1,2.1,3s5.1,3.6,6.3,4.5c3.6,2.7,5.1,5.7,5.1,9.3
	c-0.3,6.3-5.4,9.6-12,9c-4-0.3-7.7-2-10.5-4.8c-1-0.7-1.2-2.2-0.5-3.1c0.1-0.2,0.3-0.3,0.5-0.5l1.8-1.8c1.2-1.2,2.1-0.9,3.3,0
	C207.7,266.8,209.7,267.8,211.8,268.3z"/>
<linearGradient id="SVGID_1_" gradientUnits="userSpaceOnUse" x1="125.9315" y1="831.3621" x2="108.6704" y2="733.466" gradientTransform="matrix(1 0 0 1 -0.93 -428.4)">
	<stop  offset="0.15" style="stop-color:#781012"/>
	<stop  offset="0.16" style="stop-color:#7B1113"/>
	<stop  offset="0.37" style="stop-color:#9C1A1D"/>
	<stop  offset="0.56" style="stop-color:#B51E23"/>
	<stop  offset="0.72" style="stop-color:#C52026"/>
	<stop  offset="0.84" style="stop-color:#CB2026"/>
</linearGradient>
<path class="st1" d="M212.1,378v9.6H30.8V378c39.9-15,65.4-33.3,76.4-72.9h28.5C147.1,344.7,172.6,363,212.1,378z"/>
<linearGradient id="SVGID_2_" gradientUnits="userSpaceOnUse" x1="135.6725" y1="502.5904" x2="109.3723" y2="430.3496" gradientTransform="matrix(1 0 0 1 -0.93 -428.4)">
	<stop  offset="0" style="stop-color:#A32125"/>
	<stop  offset="0.14" style="stop-color:#B12126"/>
	<stop  offset="0.39" style="stop-color:#C42126"/>
	<stop  offset="0.56" style="stop-color:#CB2026"/>
</linearGradient>
<rect x="113.8" class="st2" width="15.6" height="76.1"/>
<linearGradient id="SVGID_3_" gradientUnits="userSpaceOnUse" x1="512.5661" y1="839.8885" x2="337.4205" y2="358.6931" gradientTransform="matrix(1 0 0 1 -0.93 -428.4)">
	<stop  offset="0.15" style="stop-color:#670607"/>
	<stop  offset="0.15" style="stop-color:#690707"/>
	<stop  offset="0.25" style="stop-color:#841215"/>
	<stop  offset="0.35" style="stop-color:#9D191C"/>
	<stop  offset="0.46" style="stop-color:#B11D21"/>
	<stop  offset="0.57" style="stop-color:#C01F24"/>
	<stop  offset="0.69" style="stop-color:#C82026"/>
	<stop  offset="0.84" style="stop-color:#CB2026"/>
</linearGradient>
<path class="st3" d="M560.5,0c1,9.7,1.5,19.4,1.5,29.1v241.6L279,0H145l411,387.6h21.3V29.1c0-9.7,0.5-19.4,1.5-29.1H560.5z"/>
</svg>
