
<svg width="252px" height="24px" viewBox="0 0 252 24" version="1.1" xmlns="http://www.w3.org/2000/svg" xmlns:xlink="http://www.w3.org/1999/xlink">
    <g id="Mobile" stroke="none" stroke-width="1" fill="none" fill-rule="evenodd">
        <g id="AM-Northeastern-COE-Mobile" transform="translate(-22.000000, -65.000000)">
            <g id="NU-Logo" transform="translate(22.000000, 65.000000)">
                <g id="neu_COE_spot_bR" transform="translate(0.732269, 0.000000)">
                    <path d="M161.167116,0.436166038 L161.167116,1.01941132 C158.613703,1.20489057 158.613703,2.55758491 158.613703,4.73116981 L158.613703,9.68984151 C158.613703,11.9974642 158.613703,13.1385962 157.930395,14.4094189 C157.008289,16.1069887 154.928157,17.4328755 151.79573,17.4328755 C148.190023,17.4328755 146.585329,15.8678943 145.900583,14.8608 C145.031703,13.5617208 145.031703,12.340166 145.031703,9.37104906 L145.031703,4.86448302 C145.031703,1.31212075 145.007248,1.01941132 142.690475,1.01941132 L142.294876,1.01941132 L142.294876,0.436166038 L149.82205,0.436166038 L149.82205,1.01941132 C147.216849,1.01941132 147.138449,1.01941132 147.138449,4.81231698 L147.138449,9.45219623 C147.138449,11.9706566 147.138449,13.3747925 147.795143,14.4883925 C148.40077,15.5230189 149.848663,16.5569208 152.349569,16.5569208 C154.034102,16.5569208 156.112796,15.9475925 157.246368,14.1703245 C157.982182,13.0306415 157.982182,11.8127094 157.982182,9.58333585 L157.982182,4.49497358 C157.982182,2.37210566 157.982182,1.20489057 155.325194,1.01941132 L155.325194,0.436166038 L161.167116,0.436166038" id="Fill-1" fill="#CC0000"></path>
                    <path d="M164.033412,6.08386415 C164.244877,6.69391698 164.349172,7.7285434 164.377943,8.28570566 C165.717945,6.80042264 166.905462,6.08386415 168.430317,6.08386415 C170.851384,6.08386415 171.720264,7.78215849 171.720264,9.5565283 L171.720264,13.4820226 C171.720264,16.372166 171.720264,16.5301132 173.458743,16.5301132 L173.458743,17.1148075 L168.061331,17.1148075 L168.061331,16.5301132 C169.877491,16.5301132 169.877491,16.372166 169.877491,13.4820226 L169.877491,10.0608 C169.877491,7.64956981 169.035224,6.87939623 167.747729,6.87939623 C166.245171,6.87939623 165.271278,8.15311698 164.377943,9.15948679 L164.377943,13.4820226 C164.377943,16.346083 164.377943,16.5301132 166.113544,16.5301132 L166.113544,17.1148075 L160.796691,17.1148075 L160.796691,16.5301132 C162.53517,16.5301132 162.53517,16.372166 162.53517,13.4820226 L162.53517,10.3252528 C162.53517,7.43728302 162.53517,7.27861132 160.796691,7.27861132 L160.796691,6.69391698 C161.874879,6.53452075 163.244371,6.2693434 163.691039,6.08386415 L164.033412,6.08386415" id="Fill-2" fill="#CC0000"></path>
                    <path d="M178.325332,14.5152 C178.325332,16.2120453 178.483572,16.5301132 179.772506,16.5301132 L180.167386,16.5301132 L180.167386,17.1148075 L174.561385,17.1148075 L174.561385,16.5301132 L175.008053,16.5301132 C176.351652,16.5301132 176.613466,16.3178264 176.613466,14.5152 L176.613466,10.2745358 C176.613466,7.3829434 176.455227,7.35613585 174.561385,7.35613585 L174.561385,6.77506415 C175.350426,6.74753208 176.95584,6.4026566 178.062798,6.08386415 L178.325332,6.08386415 L178.325332,14.5152" id="Fill-3" fill="#CC0000"></path>
                    <path d="M186.140934,17.5379321 L182.404319,9.05298113 C181.720292,7.51480755 181.457039,7.14529811 180.483865,7.09168302 L180.483865,6.50988679 L185.220986,6.50988679 L185.220986,7.09168302 C184.53624,7.09168302 183.879545,7.09168302 183.879545,7.7285434 C183.879545,7.83432453 183.904719,8.02125283 184.167253,8.62840755 L187.221279,15.5498264 L189.775412,9.7970717 C190.14224,8.94792453 190.380319,8.36395472 190.380319,8.02125283 C190.380319,7.22499623 189.562507,7.11849057 189.089227,7.09168302 L189.089227,6.50988679 L192.643146,6.50988679 L192.643146,7.09168302 C191.536188,7.17210566 191.116133,8.15311698 190.30048,9.9557434 L186.878906,17.5379321 L186.140934,17.5379321" id="Fill-4" fill="#CC0000"></path>
                    <path d="M195.010987,10.034717 L200.643601,10.034717 C200.616988,8.78997736 200.274614,6.66710943 198.011787,6.66710943 C195.930935,6.66710943 195.142614,8.57624151 195.010987,10.034717 Z M194.959919,10.5657962 C194.931148,10.8048906 194.906693,11.1744 194.906693,11.3598792 C194.906693,14.7274868 195.957548,16.8503547 198.51168,16.8503547 C199.986187,16.8503547 201.170826,16.1852377 201.906641,14.7274868 L202.511548,14.7274868 C201.853415,16.4764981 200.301947,17.5379321 198.170027,17.5379321 C195.221734,17.5379321 192.774773,15.3121811 192.774773,11.890234 C192.774773,8.60304906 194.906693,6.08386415 198.065013,6.08386415 C201.0392,6.08386415 202.540319,8.04516226 202.618,10.5657962 L194.959919,10.5657962 Z" id="Fill-5" fill="#CC0000"></path>
                    <path d="M207.75072,13.4820226 C207.75072,16.1852377 207.75072,16.5301132 209.302188,16.5301132 L209.671174,16.5301132 L209.671174,17.1148075 L204.089629,17.1148075 L204.089629,16.5301132 C205.907228,16.5301132 205.907228,16.4257811 205.907228,13.4820226 L205.907228,10.4868226 C205.907228,7.54161509 205.907228,7.43728302 204.089629,7.43728302 L204.089629,6.85258868 C205.277146,6.69391698 206.643762,6.2693434 207.065974,6.13675472 L207.248669,6.08386415 C207.381734,6.50988679 207.619093,7.35613585 207.619093,8.86750189 C208.435466,6.90620377 210.329308,6.08386415 211.672187,6.08386415 C213.04096,6.08386415 213.699094,7.06487547 213.699094,7.70173585 C213.699094,8.17847547 213.35744,8.65666415 212.801443,8.65666415 C212.226026,8.65666415 211.934002,8.25889811 211.777201,7.80896604 C211.672187,7.51480755 211.460721,7.01415849 210.853656,7.01415849 C209.801362,7.01415849 207.75072,8.28570566 207.75072,10.9889208 L207.75072,13.4820226" id="Fill-6" fill="#CC0000"></path>
                    <path d="M214.670829,13.9594868 L215.170723,13.9594868 C215.433976,15.231034 216.356082,16.9532377 218.777149,16.9532377 C220.962295,16.9532377 221.22411,15.6034415 221.22411,15.0730868 C221.22411,13.7740075 219.857494,13.1625057 218.198855,12.5539019 C215.777788,11.6525887 214.696004,10.8824151 214.696004,9.02617358 C214.696004,7.6749283 215.697948,6.08386415 218.065789,6.08386415 C219.302217,6.08386415 220.19771,6.58813585 220.804055,7.19818868 C221.013363,6.95981887 221.278055,6.32295849 221.304668,6.2693434 L221.777949,6.2693434 L221.777949,9.5565283 L221.304668,9.5565283 C221.066589,8.33859623 220.013576,6.66710943 218.145629,6.66710943 C216.433763,6.66710943 215.856188,7.51480755 215.856188,8.28570566 C215.856188,9.53116981 216.853817,9.98110189 218.777149,10.6701283 C220.882456,11.4134943 222.489308,12.2894491 222.489308,14.4094189 C222.489308,16.2120453 221.197497,17.5379321 218.803762,17.5379321 C217.250136,17.5379321 216.329469,16.9293283 215.724561,16.346083 C215.460589,16.6380679 215.223229,17.1923321 215.170723,17.4328755 L214.670829,17.4328755 L214.670829,13.9594868" id="Fill-7" fill="#CC0000"></path>
                    <path d="M227.937069,14.5152 C227.937069,16.2120453 228.09315,16.5301132 229.382804,16.5301132 L229.778403,16.5301132 L229.778403,17.1148075 L224.172403,17.1148075 L224.172403,16.5301132 L224.61907,16.5301132 C225.963388,16.5301132 226.225922,16.3178264 226.225922,14.5152 L226.225922,10.2745358 C226.225922,7.3829434 226.066244,7.35613585 224.172403,7.35613585 L224.172403,6.77506415 C224.961443,6.74753208 226.568295,6.4026566 227.673096,6.08386415 L227.937069,6.08386415 L227.937069,14.5152" id="Fill-8" fill="#CC0000"></path>
                    <path d="M234.146537,7.09168302 L234.146537,13.5073811 C234.146537,14.9665811 234.146537,16.6380679 235.725338,16.6380679 C236.62155,16.6380679 237.09483,15.9215094 237.33219,15.576634 L237.727789,15.8157283 C236.909978,17.5379321 235.226883,17.5379321 235.040592,17.5379321 C234.304777,17.5379321 233.724325,17.3792604 233.304271,17.0343849 C232.619525,16.5033057 232.304484,15.5230189 232.304484,13.9594868 L232.304484,7.09168302 L230.777471,7.09168302 L230.777471,6.50988679 C231.934778,6.4562717 233.330884,5.6882717 233.724325,3.19589434 L234.146537,3.19589434 L234.146537,6.50988679 L237.33219,6.50988679 L237.33219,7.09168302 L234.146537,7.09168302" id="Fill-9" fill="#CC0000"></path>
                    <path d="M247.806938,8.81678491 C247.989633,8.39076226 248.175924,7.99444528 248.175924,7.78215849 C248.175924,7.22499623 247.227205,7.09168302 246.753924,7.09168302 L246.753924,6.50988679 L250.439471,6.50988679 L250.439471,7.09168302 C249.122485,7.17210566 248.858512,7.83432453 248.202537,9.42538868 L243.515046,20.826566 C242.831738,22.4712453 242.200218,23.6355623 241.175976,23.6355623 C240.751606,23.6355623 240.358164,23.3711094 240.358164,22.8668377 C240.358164,21.990883 241.227044,21.5938415 241.700324,21.3830038 C242.595817,20.9837887 242.883526,20.826566 243.251793,19.8984453 L244.252299,17.3792604 L240.304938,8.84069434 C239.700031,7.54161509 239.488565,7.11849057 238.252857,7.09168302 L238.252857,6.50988679 L243.094991,6.50988679 L243.094991,7.09168302 C242.436858,7.14529811 241.805338,7.17210566 241.805338,7.62203774 C241.805338,7.83432453 242.121098,8.49509434 242.307389,8.92111698 L245.201737,15.1267019 L247.806938,8.81678491" id="Fill-10" fill="#CC0000"></path>
                    <path d="M178.346191,2.72784906 C178.346191,3.36326038 177.83407,3.87550189 177.209023,3.87550189 C176.578941,3.87550189 176.071855,3.36326038 176.071855,2.72784906 C176.071855,2.09678491 176.578941,1.58309434 177.209023,1.58309434 C177.83407,1.58309434 178.346191,2.09678491 178.346191,2.72784906" id="Fill-11" fill="#CC0000"></path>
                    <path d="M227.969436,2.72784906 C227.969436,3.36326038 227.458034,3.87550189 226.832268,3.87550189 C226.202905,3.87550189 225.6951,3.36326038 225.6951,2.72784906 C225.6951,2.09678491 226.202905,1.58309434 226.832268,1.58309434 C227.458034,1.58309434 227.969436,2.09678491 227.969436,2.72784906" id="Fill-12" fill="#CC0000"></path>
                    <path d="M3.46401048,1.85696604 L3.46401048,13.7341585 C3.46401048,15.4846189 3.83083884,16.4649057 6.51731707,16.5431547 L6.51731707,17.1278491 L0.0165432394,17.1278491 L0.0165432394,16.5431547 C2.88427783,16.4127396 2.8324903,15.220166 2.8324903,13.7341585 L2.8324903,4.63915472 C2.8324903,1.27299623 2.64835685,1.03535094 0.254622033,1.03535094 L0.254622033,0.45210566 L4.99102341,0.45210566 L14.8615832,13.6551849 L14.8615832,3.55381132 C14.8615832,2.14750189 14.6767305,1.06215849 11.8873964,1.03535094 L11.8873964,0.45210566 L18.2025983,0.45210566 L18.2025983,1.03535094 C15.651343,1.27299623 15.4923841,2.17430943 15.4923841,3.73929057 L15.4923841,17.5248906 L15.1255557,17.5248906 L3.46401048,1.85696604" id="Fill-13" fill="#CC0000"></path>
                    <path d="M23.5712391,16.9170113 C25.994464,16.9170113 27.0726517,15.2455245 27.0726517,11.9061736 C27.0726517,9.03993962 26.3095049,6.73376604 23.5712391,6.73376604 C20.9149703,6.73376604 20.0985974,8.98777358 20.0985974,11.8786415 C20.0985974,15.2723321 21.176785,16.9170113 23.5712391,16.9170113 Z M23.5712391,6.09835472 C26.6770525,6.09835472 29.2038525,8.45741887 29.2038525,11.8250264 C29.2038525,15.5918491 26.3900633,17.5516981 23.5712391,17.5516981 C20.8595864,17.5516981 17.9652388,15.7222642 17.9652388,11.7982189 C17.9652388,8.51103396 20.4388127,6.09835472 23.5712391,6.09835472 Z" id="Fill-14" fill="#CC0000"></path>
                    <path d="M33.8899049,13.4965132 C33.8899049,16.1990038 33.8899049,16.5431547 35.4420923,16.5431547 L35.8110785,16.5431547 L35.8110785,17.1278491 L30.2288141,17.1278491 L30.2288141,16.5431547 C32.0478511,16.5431547 32.0478511,16.4380981 32.0478511,13.4965132 L32.0478511,10.4991396 C32.0478511,7.55610566 32.0478511,7.4496 30.2288141,7.4496 L30.2288141,6.86780377 C31.416331,6.70840755 32.7829464,6.28383396 33.2037201,6.15196981 L33.3885728,6.09835472 C33.5194802,6.5229283 33.757559,7.37207547 33.757559,8.88199245 C34.5724933,6.91924528 36.4692117,6.09835472 37.8113719,6.09835472 C39.1808644,6.09835472 39.8368398,7.08009057 39.8368398,7.71405283 C39.8368398,8.19369057 39.4966245,8.6682566 38.9435049,8.6682566 C38.363053,8.6682566 38.0746252,8.27338868 37.9163855,7.82200755 C37.8113719,7.53002264 37.5999061,7.02647547 36.9964375,7.02647547 C35.9427051,7.02647547 33.8899049,8.29874717 33.8899049,11.0041358 L33.8899049,13.4965132" id="Fill-15" fill="#CC0000"></path>
                    <path d="M44.10068,7.10617358 L44.10068,13.5233208 C44.10068,14.9810717 44.10068,16.6503849 45.6794804,16.6503849 C46.5749732,16.6503849 47.0482537,15.9345509 47.2841747,15.5918491 L47.6797739,15.8273208 C46.863401,17.5516981 45.1795869,17.5516981 44.996892,17.5516981 C44.2589197,17.5516981 43.6806255,17.3923019 43.2584133,17.0467019 C42.573667,16.5192453 42.257907,15.5353358 42.257907,13.9732528 L42.257907,7.10617358 L40.730894,7.10617358 L40.730894,6.5229283 C41.8903593,6.46931321 43.2850263,5.70058868 43.6806255,3.20893585 L44.10068,3.20893585 L44.10068,6.5229283 L47.2841747,6.5229283 L47.2841747,7.10617358 L44.10068,7.10617358" id="Fill-16" fill="#CC0000"></path>
                    <path d="M59.6304662,13.4965132 C59.6304662,16.4127396 59.6304662,16.5431547 61.4200131,16.5431547 L61.4200131,17.1278491 L55.9700946,17.1278491 L55.9700946,16.5431547 C57.7862546,16.5431547 57.7862546,16.4127396 57.7862546,13.4965132 L57.7862546,10.074566 C57.7862546,7.60972075 57.0497208,6.89243774 55.4975334,6.89243774 C54.2869998,6.89243774 53.1282538,8.14152453 52.2859871,9.22831698 L52.2859871,13.4965132 C52.2859871,16.333766 52.2859871,16.5431547 53.9439074,16.5431547 L53.9439074,17.1278491 L48.5997218,17.1278491 L48.5997218,16.5431547 C50.4432141,16.5431547 50.4432141,16.4380981 50.4432141,13.4965132 L50.4432141,3.81826415 C50.4432141,1.96202264 50.4432141,1.35196981 48.7068932,1.35196981 L48.7068932,0.770173585 C49.7850809,0.770173585 51.232974,0.531079245 52.0745214,0.213011321 L52.2593741,0.213011321 L52.2593741,8.29874717 C53.5749213,6.89243774 54.7336673,6.09835472 56.1024405,6.09835472 C58.4436686,6.09835472 59.6304662,7.34526792 59.6304662,9.75649811 L59.6304662,13.4965132" id="Fill-17" fill="#CC0000"></path>
                    <path d="M64.0770012,10.0492075 L69.7096146,10.0492075 C69.6830016,8.80229434 69.3406284,6.68304906 67.077801,6.68304906 C64.9969492,6.68304906 64.2079086,8.59000755 64.0770012,10.0492075 Z M64.0237751,10.5781132 C63.9971621,10.8179321 63.9719876,11.1896151 63.9719876,11.3736453 C63.9719876,14.7434264 65.0235622,16.8641208 67.5755367,16.8641208 C69.0514814,16.8641208 70.2361212,16.1990038 70.9719357,14.7434264 L71.5775621,14.7434264 C70.9194289,16.4909887 69.3672415,17.5516981 67.2353214,17.5516981 C64.2863092,17.5516981 61.838629,15.3259472 61.838629,11.9061736 C61.838629,8.61681509 63.9719876,6.09835472 67.1310271,6.09835472 C70.1037753,6.09835472 71.6056137,8.05965283 71.6840143,10.5781132 L64.0237751,10.5781132 Z" id="Fill-18" fill="#CC0000"></path>
                    <path d="M85.2199805,13.9732528 L85.7205933,13.9732528 C85.982408,15.2455245 86.9030753,16.9691774 89.325581,16.9691774 C91.5114464,16.9691774 91.7732611,15.616483 91.7732611,15.0854038 C91.7732611,13.7863245 90.4044879,13.1777208 88.7480061,12.5669434 C86.3255004,11.6663547 85.2465935,10.8969057 85.2465935,9.03993962 C85.2465935,7.6901434 86.2470999,6.09835472 88.6149409,6.09835472 C89.8513683,6.09835472 90.7490188,6.60190189 91.3517681,7.21340377 C91.5646724,6.97286038 91.8264872,6.33744906 91.8531002,6.28383396 L92.3249422,6.28383396 L92.3249422,9.57101887 L91.8531002,9.57101887 C91.6157407,8.35236226 90.5620083,6.68304906 88.6954993,6.68304906 C86.9829144,6.68304906 86.4053396,7.53002264 86.4053396,8.29874717 C86.4053396,9.54566038 87.4058459,9.99559245 89.325581,10.6860679 C91.4316073,11.4287094 93.0384593,12.301766 93.0384593,14.4231849 C93.0384593,16.2258113 91.7466481,17.5516981 89.3514747,17.5516981 C87.798568,17.5516981 86.8786201,16.9423698 86.2715551,16.3605736 C86.0090211,16.6503849 85.7731001,17.2068226 85.7205933,17.445917 L85.2199805,17.445917 L85.2199805,13.9732528" id="Fill-19" fill="#CC0000"></path>
                    <path d="M97.8532612,7.10617358 L97.8532612,13.5233208 C97.8532612,14.9810717 97.8532612,16.6503849 99.4313424,16.6503849 C100.327554,16.6503849 100.801554,15.9345509 101.037475,15.5918491 L101.432355,15.8273208 C100.616702,17.5516981 98.9314489,17.5516981 98.7473154,17.5516981 C98.0115009,17.5516981 97.431049,17.3923019 97.0109946,17.0467019 C96.3262483,16.5192453 96.0083304,15.5353358 96.0083304,13.9732528 L96.0083304,7.10617358 L94.482756,7.10617358 L94.482756,6.5229283 C95.6422213,6.46931321 97.0354498,5.70058868 97.431049,3.20893585 L97.8532612,3.20893585 L97.8532612,6.5229283 L101.037475,6.5229283 L101.037475,7.10617358 L97.8532612,7.10617358" id="Fill-20" fill="#CC0000"></path>
                    <path d="M104.275635,10.0492075 L109.906809,10.0492075 C109.880196,8.80229434 109.537823,6.68304906 107.274996,6.68304906 C105.196302,6.68304906 104.406542,8.59000755 104.275635,10.0492075 Z M104.221689,10.5781132 C104.195795,10.8179321 104.169182,11.1896151 104.169182,11.3736453 C104.169182,14.7434264 105.222915,16.8641208 107.777047,16.8641208 C109.248676,16.8641208 110.433316,16.1990038 111.16985,14.7434264 L111.775476,14.7434264 C111.118062,16.4909887 109.564436,17.5516981 107.432516,17.5516981 C104.484942,17.5516981 102.037262,15.3259472 102.037262,11.9061736 C102.037262,8.61681509 104.169182,6.09835472 107.328222,6.09835472 C110.302409,6.09835472 111.80137,8.05965283 111.88049,10.5781132 L104.221689,10.5781132 Z" id="Fill-21" fill="#CC0000"></path>
                    <path d="M116.696011,13.4965132 C116.696011,16.1990038 116.696011,16.5431547 118.249637,16.5431547 L118.618623,16.5431547 L118.618623,17.1278491 L113.038517,17.1278491 L113.038517,16.5431547 C114.855396,16.5431547 114.855396,16.4380981 114.855396,13.4965132 L114.855396,10.4991396 C114.855396,7.55610566 114.855396,7.4496 113.038517,7.4496 L113.038517,6.86780377 C114.221718,6.70840755 115.59121,6.28383396 116.013423,6.15196981 L116.197556,6.09835472 C116.328463,6.5229283 116.565104,7.37207547 116.565104,8.88199245 C117.380038,6.91924528 119.274598,6.09835472 120.618917,6.09835472 C121.98697,6.09835472 122.646542,7.08009057 122.646542,7.71405283 C122.646542,8.19369057 122.304169,8.6682566 121.75105,8.6682566 C121.172755,8.6682566 120.882889,8.27338868 120.726088,7.82200755 C120.618917,7.53002264 120.40817,7.02647547 119.803982,7.02647547 C118.75025,7.02647547 116.696011,8.29874717 116.696011,11.0041358 L116.696011,13.4965132" id="Fill-22" fill="#CC0000"></path>
                    <path d="M126.80393,6.09835472 C127.012519,6.70840755 127.121129,7.74086038 127.146303,8.29874717 C128.487025,6.81418868 129.670946,6.09835472 131.197959,6.09835472 C133.619026,6.09835472 134.489344,7.7952 134.489344,9.57101887 L134.489344,13.4965132 C134.489344,16.3859321 134.489344,16.5431547 136.226384,16.5431547 L136.226384,17.1278491 L130.829692,17.1278491 L130.829692,16.5431547 C132.645132,16.5431547 132.645132,16.3859321 132.645132,13.4965132 L132.645132,10.074566 C132.645132,7.66333585 131.802866,6.89243774 130.51537,6.89243774 C129.01497,6.89243774 128.039638,8.16688302 127.146303,9.17470189 L127.146303,13.4965132 C127.146303,16.3605736 127.146303,16.5431547 128.884782,16.5431547 L128.884782,17.1278491 L123.567209,17.1278491 L123.567209,16.5431547 C125.302811,16.5431547 125.302811,16.3859321 125.302811,13.4965132 L125.302811,10.3404679 C125.302811,7.4496 125.302811,7.2909283 123.567209,7.2909283 L123.567209,6.70840755 C124.645397,6.54973585 126.01417,6.28383396 126.460838,6.09835472 L126.80393,6.09835472" id="Fill-23" fill="#CC0000"></path>
                    <path d="M80.0002288,14.9455698 C78.9385844,15.8693434 77.5086731,16.602566 76.5347798,16.602566 C75.4184708,16.602566 74.8732631,15.7889208 74.8732631,14.8093585 C74.8732631,13.3450868 76.2499484,12.0134038 78.4804086,11.2787321 L80.0002288,10.7932981 L80.0002288,14.9455698 Z M83.6757051,15.1933585 C83.4649586,16.4366491 82.9247858,16.5134491 82.6111836,16.5134491 C81.7948107,16.5134491 81.779706,15.9302038 81.779706,14.105117 L81.779706,9.81011321 C81.779706,8.24513208 81.57831,6.09835472 77.94599,6.09835472 C75.3141764,6.09835472 73.7087629,7.4496 73.7087629,8.51103396 C73.7087629,8.98777358 73.99791,9.27975849 74.4208415,9.27975849 C75.1027107,9.27975849 75.3674025,8.77548679 75.5249229,8.19369057 C75.7076178,7.47640755 76.1053748,6.68304906 77.7877504,6.68304906 C79.76215,6.68304906 80.0002288,7.95314717 80.0002288,9.51885283 L80.0002288,10.1796226 L77.9984968,10.8715472 C74.287057,12.1438189 73.1556433,13.6276528 73.1556433,15.1390189 C73.1556433,16.6503849 74.3402831,17.3923019 75.8680153,17.3923019 C77.1303364,17.3923019 78.4458836,16.8641208 80.0002288,15.5353358 C80.1311362,16.1721962 80.4735093,17.3923019 82.0156269,17.3923019 C83.4649586,17.3923019 84.0957595,16.3859321 84.1489856,15.1933585 L83.6757051,15.1933585 Z" id="Fill-24" fill="#D02139"></path>
                </g>
            </g>
        </g>
    </g>
</svg>