<svg version="1.1" id="Layer_1" xmlns="http://www.w3.org/2000/svg" xmlns:xlink="http://www.w3.org/1999/xlink" x="0px" y="0px"
	 viewBox="0 0 229 45" style="enable-background:new 0 0 229 45;" xml:space="preserve">
<path id="Fill-1" class="st0" d="M14.2,30.7l-3.4,0.9c-0.6-1.4-1.4-2.1-2.9-2.1c-2,0-3.3,1.6-3.3,4.4c0,2.8,1.2,4.5,3.4,4.5
	c1.7,0,2.6-0.9,3.2-2.4l3.3,1c-1.1,2.9-3.7,4.3-6.7,4.3c-3.5,0-6.9-2.1-6.9-7.4c0-5.1,3.3-7.3,6.9-7.3
	C10.6,26.5,13.1,27.6,14.2,30.7"/>
<path id="Fill-2" class="st0" d="M18.9,35.5c0,2,0.8,3.1,2.3,3.1c1.4,0,2.2-1,2.2-3.1c0-2.1-0.9-3-2.2-3
	C19.8,32.5,18.9,33.4,18.9,35.5z M26.9,35.5c0,3.4-2.2,5.6-5.8,5.6c-3.7,0-5.8-2.3-5.8-5.6c0-3.3,2.2-5.6,5.8-5.6
	C24.7,29.9,26.9,32.3,26.9,35.5z"/>
<polygon id="Fill-3" class="st0" points="28.3,40.9 31.7,40.9 31.7,26.9 28.3,26.9 "/>
<polygon id="Fill-4" class="st0" points="33.6,40.9 36.9,40.9 36.9,26.9 33.6,26.9 "/>
<path id="Fill-5" class="st0" d="M41.7,34.4h3.9c-0.1-1.5-0.8-2.1-2-2.1C42.6,32.3,41.8,32.9,41.7,34.4z M49.1,35.8v0.6h-7.3
	c0.1,1.5,1,2.3,2.3,2.3c1.1,0,1.8-0.6,2.3-1.3l2.6,1.3c-1,1.6-2.7,2.6-5.1,2.6c-3.5,0-5.6-2.4-5.6-5.6c0-3.3,2-5.6,5.4-5.6
	C47,29.9,49.1,32.1,49.1,35.8z"/>
<path id="Fill-6" class="st0" d="M53.4,33.4c0,0.8,0.6,1.4,1.7,1.4c1.1,0,1.7-0.5,1.7-1.4c0-0.9-0.6-1.4-1.7-1.4
	C54,32,53.4,32.6,53.4,33.4z M53,40.6c-0.4,0.3-0.5,0.6-0.5,0.9c0,0.6,0.4,1,2.4,1c1.7,0,2.3-0.4,2.3-1c0-0.7-0.5-0.9-1.8-0.9H53z
	 M61,31.8c-0.7,0-1.1,0-1.5,0.2c0.4,0.5,0.5,1,0.5,1.6c0,1.9-1.6,3.5-4.8,3.5c-0.8,0-1.5-0.1-2.1-0.3c-0.2,0.2-0.3,0.4-0.3,0.6
	c0,0.4,0.3,0.7,1.3,0.7h1.7c3.2,0,4.7,1.4,4.7,3.3c0,2.1-1.9,3.4-5.6,3.4c-4.1,0-5.3-1.2-5.3-2.7c0-0.9,0.5-1.6,1.5-2.1
	c-0.8-0.4-1.1-1.1-1.1-1.8c0-0.8,0.5-1.5,1.4-2c-0.9-0.6-1.5-1.5-1.5-2.6c0-2,1.6-3.6,4.9-3.6c1.2,0,2.1,0.2,2.9,0.6
	c0.7-0.8,1.7-1.4,3.2-1.4V31.8z"/>
<path id="Fill-7" class="st0" d="M64.7,34.4h3.9c-0.1-1.5-0.8-2.1-2-2.1C65.6,32.3,64.8,32.9,64.7,34.4z M72,35.8v0.6h-7.3
	c0.1,1.5,1,2.3,2.3,2.3c1.1,0,1.8-0.6,2.3-1.3l2.6,1.3c-1,1.6-2.7,2.6-5.1,2.6c-3.5,0-5.6-2.4-5.6-5.6c0-3.3,2-5.6,5.4-5.6
	C70,29.9,72,32.1,72,35.8z"/>
<path id="Fill-8" class="st0" d="M80.4,35.5c0,2,0.8,3.1,2.3,3.1c1.4,0,2.2-1,2.2-3.1c0-2.1-0.9-3-2.2-3
	C81.3,32.5,80.4,33.4,80.4,35.5z M88.4,35.5c0,3.4-2.2,5.6-5.8,5.6c-3.7,0-5.8-2.3-5.8-5.6c0-3.3,2.2-5.6,5.8-5.6
	C86.2,29.9,88.4,32.3,88.4,35.5z"/>
<path id="Fill-9" class="st0" d="M96.6,26.9v2.3C96,29.1,95.3,29,94.7,29c-0.8,0-1.1,0.2-1.1,0.9v0.6h2.5v2.4h-2.5v8.1h-3.4v-8.1
	h-1.4v-2.4h1.4v-0.9c0-1.8,1.1-3.1,3.7-3.1C95,26.5,95.9,26.7,96.6,26.9"/>
<polyline id="Fill-10" class="st0" points="110.9,29.8 104.8,29.8 104.8,32.4 110.5,32.4 110.5,35.1 104.8,35.1 104.8,38 111.1,38
	111.1,40.9 101.2,40.9 101.2,26.9 110.9,26.9 110.9,29.8 "/>
<path id="Fill-11" class="st0" d="M122.8,33.9v7h-3.4v-6c0-1.5-0.4-2.2-1.5-2.2c-1.1,0-1.9,0.9-1.9,2.4v5.8h-3.4V30.2h3.2v1.4
	c0.8-1.2,2-1.7,3.4-1.7C121.5,29.9,122.8,31.3,122.8,33.9"/>
<path id="Fill-12" class="st0" d="M127.6,33.4c0,0.8,0.6,1.4,1.7,1.4c1.1,0,1.7-0.5,1.7-1.4c0-0.9-0.6-1.4-1.7-1.4
	C128.2,32,127.6,32.6,127.6,33.4z M127.3,40.6c-0.4,0.3-0.5,0.6-0.5,0.9c0,0.6,0.4,1,2.4,1c1.7,0,2.3-0.4,2.3-1
	c0-0.7-0.5-0.9-1.8-0.9H127.3z M135.3,31.8c-0.7,0-1.1,0-1.5,0.2c0.4,0.5,0.5,1,0.5,1.6c0,1.9-1.6,3.5-4.8,3.5
	c-0.8,0-1.5-0.1-2.1-0.3c-0.2,0.2-0.3,0.4-0.3,0.6c0,0.4,0.3,0.7,1.3,0.7h1.7c3.2,0,4.7,1.4,4.7,3.3c0,2.1-1.9,3.4-5.6,3.4
	c-4.1,0-5.3-1.2-5.3-2.7c0-0.9,0.5-1.6,1.5-2.1c-0.8-0.4-1.1-1.1-1.1-1.8c0-0.8,0.5-1.5,1.4-2c-0.9-0.6-1.5-1.5-1.5-2.6
	c0-2,1.6-3.6,4.9-3.6c1.2,0,2.1,0.2,2.9,0.6c0.7-0.8,1.7-1.4,3.2-1.4V31.8z"/>
<path id="Fill-13" class="st0" d="M136.2,40.9h3.4V30.2h-3.4V40.9z M139.8,27c0,1-0.9,1.8-1.9,1.8c-1,0-1.9-0.8-1.9-1.8
	s0.9-1.8,1.9-1.8C138.9,25.1,139.8,25.9,139.8,27z"/>
<path id="Fill-14" class="st0" d="M151.6,33.9v7h-3.4v-6c0-1.5-0.4-2.2-1.5-2.2c-1.1,0-1.9,0.9-1.9,2.4v5.8h-3.4V30.2h3.2v1.4
	c0.8-1.2,2-1.7,3.4-1.7C150.3,29.9,151.6,31.3,151.6,33.9"/>
<path id="Fill-15" class="st0" d="M156.3,34.4h3.9c-0.1-1.5-0.8-2.1-2-2.1C157.2,32.3,156.4,32.9,156.3,34.4z M163.7,35.8v0.6h-7.3
	c0.1,1.5,1,2.3,2.3,2.3c1.1,0,1.8-0.6,2.3-1.3l2.6,1.3c-1,1.6-2.7,2.6-5.1,2.6c-3.5,0-5.6-2.4-5.6-5.6c0-3.3,2-5.6,5.4-5.6
	C161.6,29.9,163.7,32.1,163.7,35.8z"/>
<path id="Fill-16" class="st0" d="M167.9,34.4h3.9c-0.1-1.5-0.8-2.1-2-2.1C168.9,32.3,168,32.9,167.9,34.4z M175.3,35.8v0.6H168
	c0.1,1.5,1,2.3,2.3,2.3c1.1,0,1.8-0.6,2.3-1.3l2.6,1.3c-1,1.6-2.7,2.6-5.1,2.6c-3.5,0-5.6-2.4-5.6-5.6c0-3.3,2-5.6,5.4-5.6
	C173.2,29.9,175.3,32.1,175.3,35.8z"/>
<path id="Fill-17" class="st0" d="M183.6,30v3.2c-0.4,0-0.5,0-0.7,0c-1.6,0-2.9,0.7-2.9,3.6v4.2h-3.4V30.2h3.2v1.7
	c0.7-1.5,1.8-2,2.9-2C183,29.9,183.3,29.9,183.6,30"/>
<path id="Fill-18" class="st0" d="M184.4,40.9h3.4V30.2h-3.4V40.9z M188.1,27c0,1-0.9,1.8-1.9,1.8c-1,0-1.9-0.8-1.9-1.8
	s0.9-1.8,1.9-1.8C187.2,25.1,188.1,25.9,188.1,27z"/>
<path id="Fill-19" class="st0" d="M199.8,33.9v7h-3.4v-6c0-1.5-0.4-2.2-1.5-2.2c-1.1,0-1.9,0.9-1.9,2.4v5.8h-3.4V30.2h3.2v1.4
	c0.8-1.2,2-1.7,3.4-1.7C198.5,29.9,199.8,31.3,199.8,33.9"/>
<path id="Fill-20" class="st0" d="M204.6,33.4c0,0.8,0.6,1.4,1.7,1.4c1.1,0,1.7-0.5,1.7-1.4c0-0.9-0.6-1.4-1.7-1.4
	C205.2,32,204.6,32.6,204.6,33.4z M204.3,40.6c-0.4,0.3-0.5,0.6-0.5,0.9c0,0.6,0.4,1,2.4,1c1.7,0,2.3-0.4,2.3-1
	c0-0.7-0.5-0.9-1.8-0.9H204.3z M212.2,31.8c-0.7,0-1.1,0-1.5,0.2c0.4,0.5,0.5,1,0.5,1.6c0,1.9-1.6,3.5-4.8,3.5
	c-0.8,0-1.5-0.1-2.1-0.3c-0.2,0.2-0.3,0.4-0.3,0.6c0,0.4,0.3,0.7,1.3,0.7h1.7c3.2,0,4.7,1.4,4.7,3.3c0,2.1-1.9,3.4-5.6,3.4
	c-4.1,0-5.3-1.2-5.3-2.7c0-0.9,0.5-1.6,1.5-2.1c-0.8-0.4-1.1-1.1-1.1-1.8c0-0.8,0.5-1.5,1.4-2c-0.9-0.6-1.5-1.5-1.5-2.6
	c0-2,1.6-3.6,4.9-3.6c1.2,0,2.1,0.2,2.9,0.6c0.7-0.8,1.7-1.4,3.2-1.4V31.8z"/>
<path id="Fill-21" class="st0" d="M133,4.2l0,5.9c0,3.8,2,6.5,7.1,6.5c5.1,0,7.1-2.7,7-6.5l0-4.8c0-2.3,0.6-2.9,1.8-3.2l0-0.6
	l-4.8,0l0,0.6c1.1,0.3,1.8,0.9,1.8,3.2l0,4.8c0,3.4-1.8,4.9-5.1,4.9c-3.3,0-5.1-1.5-5.1-4.9l0-6c0-1.5,0.4-1.8,1.7-1.9l0-0.7l-6,0
	l0,0.7C132.6,2.4,133,2.7,133,4.2z M154.7,15.8c-1.1-0.2-1.3-0.4-1.3-1.5l0-4.6c1-0.9,1.8-1.3,2.5-1.3c1,0,1.2,0.5,1.3,1.4l0,4.5
	c0,1.1-0.2,1.4-1.3,1.5l0,0.6l5.1,0l0-0.6c-1.1-0.2-1.3-0.4-1.3-1.5l0-4.7c0-1.6-0.7-2.7-2.7-2.7c-1.2,0-2.4,0.8-3.6,1.8l0-1.9
	l-0.9,0l-2.9,1.9V9l1.4,0l0,5.3c0,1.1-0.2,1.4-1.3,1.5l0,0.6l5.1,0L154.7,15.8z M164.7,5.2c0.8,0,1.5-0.7,1.5-1.5
	c0-0.8-0.6-1.4-1.3-1.4c-0.9,0-1.5,0.7-1.5,1.5C163.3,4.5,163.9,5.2,164.7,5.2z M167.5,15.8c-1.2-0.2-1.4-0.4-1.4-1.5l0-7.6l-1,0
	l-2.9,1.9l0,0.4l1.4,0l0,5.3c0,1.1-0.2,1.3-1.4,1.5l0,0.6l5.3,0L167.5,15.8z M176.5,9.7c0.7-1.6,1-2,1.7-2.2l0-0.6l-3.9,0l0,0.6
	c1.3,0.3,1.4,0.9,0.8,2.3l-1.5,3.6l-1.9-4.2c-0.4-0.9-0.3-1.5,1-1.6l0-0.6l-5.2,0l0,0.6c0.6,0.2,0.9,0.4,1.4,1.5l3.4,7.3l1,0
	L176.5,9.7z M186.9,14.6l-0.5-0.4c-0.5,0.6-1.3,1-2.3,1c-1.8,0-2.9-1.4-3.2-3.2l5.9-2c-0.1-2.1-1.7-3.2-3.6-3.2
	c-2.8,0-4.8,2.2-4.8,5c0,2.7,1.8,4.8,4.8,4.8C185.1,16.5,186.3,15.7,186.9,14.6z M180.7,10.3c0-1.6,0.7-2.6,2-2.6
	c0.9,0,1.5,0.7,1.7,1.9l-3.7,1.3C180.7,10.8,180.7,10.6,180.7,10.3z M193.1,15.7c-1.3-0.2-1.5-0.5-1.5-1.7l0-4.1
	c0.4-0.7,0.8-1.2,1.2-1.6c0,0.8,0.5,1.3,1.2,1.3c0.7,0,1.3-0.5,1.3-1.6c0-0.9-0.5-1.4-1.4-1.4c-1,0-1.7,0.8-2.4,2l0-2l-0.9,0
	l-2.9,1.9l0,0.4l1.4,0l0,5.3c0,1.1-0.2,1.4-1.3,1.5l0,0.6l5.3,0L193.1,15.7z M203.5,13.4c0-1.8-1.5-2.4-3-2.9
	c-1.4-0.5-2.4-0.7-2.4-1.8c0-0.6,0.4-1.1,1.2-1.1c1,0,1.9,0.6,3,1.8l0.5-0.2l-0.8-2.5l-0.3,0l-0.4,0.3c-0.6-0.2-1.2-0.4-1.9-0.4
	c-2.1,0-3.5,1.2-3.5,3c0,1.8,1.5,2.4,3,2.8c1.4,0.5,2.4,0.8,2.4,1.8c0,0.7-0.5,1.1-1.4,1.2c-1.3,0-2.3-0.9-3.6-2.4l-0.5,0.2l0.8,3.1
	l0.3,0l0.6-0.4c0.7,0.3,1.4,0.5,2.2,0.5C201.8,16.5,203.5,15.3,203.5,13.4z M206.9,5.1c0.8,0,1.5-0.7,1.5-1.5c0-0.8-0.6-1.4-1.4-1.4
	c-0.9,0-1.5,0.7-1.5,1.5C205.5,4.5,206.1,5.1,206.9,5.1z M209.8,15.7c-1.2-0.2-1.4-0.4-1.4-1.5l0-7.6l-1,0l-2.9,1.9l0,0.4l1.4,0
	l0,5.3c0,1.1-0.2,1.3-1.4,1.5l0,0.6l5.3,0L209.8,15.7z M217.3,15.4l-0.3-0.6c-0.5,0.2-1,0.4-1.4,0.4c-0.9,0-1.2-0.5-1.2-1.1l0-6
	l2.5,0l0-1.1l-2.5,0l0-1.8H214l-3.6,2.3l0,0.6l1.4,0l0,6.5c0,1.3,0.7,2,2.2,2C215.2,16.5,216.3,16.1,217.3,15.4z M222.6,17.9
	l3.7-8.3c0.7-1.6,1-2,1.7-2.2l0-0.6l-3.9,0l0,0.6c1.3,0.3,1.4,0.9,0.8,2.3l-1.5,3.6l-1.9-4.2c-0.4-0.9-0.3-1.5,1-1.6l0-0.6l-5.2,0
	l0,0.6c0.6,0.2,0.9,0.4,1.4,1.5l3.3,7.1l-0.6,1.2c-0.3,0.7-0.6,1.2-0.9,1.5c-0.2-0.8-0.7-1.2-1.4-1.2c-0.7,0-1.3,0.5-1.3,1.4
	c0,0.9,0.8,1.6,1.6,1.6C220.8,20.6,221.6,20,222.6,17.9z"/>
<path id="Fill-22" class="st0" d="M16.8,5.6c0-2.3,0.6-2.9,1.8-3.2l0-0.6l-4.8,0l0,0.6c1.1,0.3,1.8,0.9,1.8,3.2l0,7L5.5,2.4
	C4.9,1.9,4.7,1.8,4.3,1.8l-3.7,0l0,0.6c0.8,0.1,1.3,0.4,2.2,1.3C3.1,4,3.4,4.3,3.4,4.9l0,7.9c0,2.3-0.7,2.9-1.8,3.2l0,0.6l4.8,0
	l0-0.6c-1.1-0.3-1.8-0.9-1.8-3.2l0-7.5L16,16.7l0.8,0L16.8,5.6z M29.7,11.8C29.7,9.2,28,7,24.8,7c-3.2,0-5.1,2.3-5.1,5
	c0,2.6,1.8,4.8,4.9,4.8C27.8,16.8,29.7,14.5,29.7,11.8z M22.1,10.9c0-1.8,0.8-2.9,2.4-2.9c2.1,0,2.7,2.6,2.7,4.9
	c0,1.8-0.8,2.9-2.4,2.9C22.8,15.9,22.2,13.3,22.1,10.9z M36.5,16c-1.3-0.2-1.5-0.5-1.5-1.7l0-4.1c0.4-0.7,0.8-1.2,1.2-1.6
	c0,0.8,0.5,1.3,1.2,1.3c0.7,0,1.3-0.5,1.3-1.6c0-0.9-0.5-1.4-1.4-1.4c-1,0-1.7,0.8-2.4,2l0-2l-0.9,0l-2.9,1.9l0,0.4l1.4,0l0,5.3
	c0,1.1-0.2,1.4-1.3,1.5l0,0.6l5.3,0L36.5,16z M46.2,15.7l-0.3-0.6c-0.5,0.2-1,0.4-1.4,0.4c-0.9,0-1.2-0.5-1.2-1.1l0-6l2.5,0l0-1.1
	l-2.5,0l0-1.8l-0.4,0l-3.6,2.3l0,0.6l1.4,0l0,6.5c0,1.3,0.7,2,2.2,2C44.1,16.8,45.2,16.4,46.2,15.7z M51.9,16
	c-1.1-0.2-1.3-0.4-1.3-1.5l0-4.6c0.9-0.9,1.7-1.3,2.5-1.3c1,0,1.2,0.5,1.3,1.4l0,4.5c0,1.1-0.2,1.4-1.3,1.5l0,0.6l5.1,0l0-0.6
	c-1.1-0.2-1.3-0.4-1.3-1.5l0-4.7c0-1.6-0.7-2.7-2.7-2.7c-1.2,0-2.4,0.7-3.6,1.7l0-7.9l-0.7,0l-3.2,2.1v0.4l1.4,0l0,11.1
	c0,1.1-0.2,1.4-1.3,1.5l0,0.6l5.1,0L51.9,16z M67.7,14.8l-0.5-0.4c-0.5,0.6-1.3,1-2.3,1c-1.8,0-2.9-1.4-3.2-3.2l5.9-2
	C67.4,8.1,65.9,7,63.9,7c-2.8,0-4.8,2.2-4.8,5c0,2.7,1.8,4.8,4.8,4.8C65.9,16.8,67,15.9,67.7,14.8z M61.4,10.6c0-1.6,0.7-2.6,2-2.6
	c0.9,0,1.5,0.7,1.7,1.9l-3.7,1.3C61.4,11,61.4,10.8,61.4,10.6z M75.5,16.7c0.9,0,1.8-0.4,2.4-0.8l-0.2-0.6c-1,0.2-1.3,0-1.3-0.6
	l0-5.3c0-1.6-0.7-2.4-2.9-2.4C70.9,7,69,8.3,69,9.6c0,0.6,0.4,1.1,1.1,1.1c0.8,0,1.2-0.5,1.3-1.1c0.1-0.6-0.1-1.1-0.4-1.3
	c0.5-0.2,1-0.4,1.5-0.4c0.9,0,1.3,0.3,1.3,1.1l0,2c-3.5,0.9-5.2,1.7-5.2,3.5c0,1.4,0.9,2.2,2.4,2.2c0.9,0,2-0.4,2.9-1.1
	C74.2,16.3,74.7,16.7,75.5,16.7z M71.1,14c0-1,0.5-1.5,2.8-2.1l0,2.9c-0.6,0.4-1.1,0.6-1.5,0.6C71.6,15.4,71.1,15,71.1,14z
	 M86.4,13.6c0-1.8-1.5-2.4-3-2.9C82,10.3,81.1,10,81.1,9c0-0.6,0.4-1.1,1.2-1.1c1,0,1.9,0.6,3,1.8l0.5-0.2L85,7l-0.3,0l-0.4,0.3
	c-0.6-0.2-1.2-0.4-1.9-0.4c-2.1,0-3.5,1.2-3.5,3c0,1.8,1.5,2.4,3,2.8c1.4,0.5,2.4,0.7,2.4,1.8c0,0.7-0.5,1.1-1.4,1.2
	c-1.3,0-2.3-0.9-3.6-2.4l-0.5,0.2l0.8,3.1l0.3,0l0.6-0.4c0.7,0.3,1.4,0.5,2.2,0.5C84.7,16.7,86.4,15.5,86.4,13.6z M93.9,15.6
	L93.6,15c-0.5,0.2-1,0.4-1.4,0.4c-0.9,0-1.2-0.5-1.2-1.1l0-6l2.5,0l0-1.1l-2.5,0l0-1.8l-0.4,0l-3.6,2.3l0,0.6l1.4,0l0,6.5
	c0,1.3,0.7,2,2.2,2C91.8,16.7,92.9,16.3,93.9,15.6z M103.1,14.7l-0.5-0.4c-0.5,0.6-1.3,1-2.3,1c-1.8,0-2.9-1.4-3.2-3.2l5.9-2
	c-0.1-2.1-1.7-3.2-3.6-3.2c-2.8,0-4.8,2.2-4.8,5c0,2.7,1.8,4.8,4.8,4.8C101.3,16.7,102.4,15.9,103.1,14.7z M96.8,10.5
	c0-1.6,0.7-2.6,2-2.6c0.9,0,1.5,0.7,1.7,1.9l-3.7,1.3C96.8,10.9,96.8,10.7,96.8,10.5z M109.3,15.9c-1.3-0.2-1.5-0.5-1.5-1.7l0-4.1
	c0.4-0.7,0.8-1.2,1.2-1.6c0,0.8,0.5,1.3,1.2,1.3c0.7,0,1.3-0.5,1.3-1.6c0-0.9-0.5-1.4-1.4-1.4c-1,0-1.7,0.8-2.4,2l0-2l-0.9,0
	l-2.9,1.9v0.4l1.4,0l0,5.3c0,1.1-0.2,1.4-1.3,1.5l0,0.6l5.3,0L109.3,15.9z M117.2,15.9c-1.1-0.2-1.3-0.4-1.3-1.5l0-4.6
	c1-0.9,1.8-1.3,2.5-1.3c1,0,1.2,0.5,1.3,1.4l0,4.5c0,1.1-0.2,1.4-1.3,1.5l0,0.6l5.1,0l0-0.6c-1.1-0.2-1.3-0.4-1.3-1.5l0-4.7
	c0-1.6-0.7-2.7-2.7-2.7c-1.2,0-2.4,0.8-3.6,1.8l0-1.9l-0.9,0L112,8.6l0,0.4l1.4,0l0,5.3c0,1.1-0.2,1.4-1.3,1.5l0,0.6l5.1,0
	L117.2,15.9z"/>
</svg>
