<svg id="Layer_1" data-name="Layer 1" xmlns="http://www.w3.org/2000/svg" viewBox="0 0 256.01 256"><defs><style>.cls-1{}</style></defs><title>Engage with us on SnapChat</title><path class="cls-1" d="M128.51,0a128,128,0,1,0,128,128A128,128,0,0,0,128.51,0ZM208.1,169.92c-.95,2.23-5.24,5.39-20.25,7.7-1.22.19-1.7,1.79-2.43,5.14-.27,1.22-.54,2.42-.91,3.68a2,2,0,0,1-2.14,1.6h-.19a18.77,18.77,0,0,1-3.36-.42,44.54,44.54,0,0,0-9-1,40.48,40.48,0,0,0-6.51.55c-4.5.75-8.32,3.45-12.37,6.31-5.88,4.16-12,8.45-21.41,8.45-.41,0-.82,0-1.22,0h0c-.26,0-.53,0-.8,0-9.46,0-15.53-4.29-21.4-8.44-4-2.86-7.88-5.57-12.38-6.32a40.48,40.48,0,0,0-6.51-.55,44.33,44.33,0,0,0-9,1,19.77,19.77,0,0,1-3.36.48,2.11,2.11,0,0,1-2.33-1.66c-.38-1.28-.65-2.51-.91-3.7-.67-3.07-1.14-5-2.43-5.16-15-2.32-19.3-5.48-20.25-7.72a2.59,2.59,0,0,1-.23-1,1.69,1.69,0,0,1,1.41-1.76c23.06-3.8,33.4-27.37,33.83-28.37a.3.3,0,0,1,0-.08c1.41-2.86,1.68-5.34.82-7.38-1.58-3.73-6.74-5.37-10.16-6.45-.84-.26-1.63-.51-2.25-.76-6.82-2.7-7.39-5.46-7.12-6.87.46-2.41,3.67-4.08,6.26-4.08a4.49,4.49,0,0,1,1.87.37,19.84,19.84,0,0,0,8.22,2.17c3.29,0,4.73-1.39,4.91-1.57-.09-1.56-.19-3.19-.3-4.87-.68-10.9-1.54-24.45,1.91-32.18,10.34-23.18,32.26-25,38.74-25l2.83,0h.39c6.48,0,28.45,1.8,38.8,25,3.45,7.74,2.6,21.3,1.91,32.19l0,.48c-.1,1.51-.19,3-.27,4.4a6.57,6.57,0,0,0,4.48,1.55h0a20.51,20.51,0,0,0,7.75-2.15,5.84,5.84,0,0,1,2.4-.47,7.39,7.39,0,0,1,2.77.53l0,0c2.31.82,3.83,2.44,3.86,4.14s-1.19,4-7.17,6.36c-.62.24-1.41.49-2.25.76-3.42,1.09-8.58,2.72-10.16,6.45-.86,2-.59,4.52.82,7.38a.3.3,0,0,1,0,.08c.43,1,10.76,24.57,33.83,28.37a1.7,1.7,0,0,1,1.42,1.76A2.77,2.77,0,0,1,208.1,169.92Z" transform="translate(-0.51)"></path></svg>