<svg id="Layer_1" data-name="Layer 1" xmlns="http://www.w3.org/2000/svg" viewBox="0 0 510.57 510.57"><defs><style>.cls-1{}</style></defs><title>Follow us on Twitter</title><path class="cls-1" d="M255.29,1.43C114.3,1.43,0,115.75,0,256.73S114.3,512,255.29,512,510.57,397.72,510.57,256.73,396.28,1.43,255.29,1.43Zm128.6,203.82c.13,2.76.19,5.53.19,8.33,0,85-64.72,183-183,183a182.12,182.12,0,0,1-98.62-28.89,131.78,131.78,0,0,0,15.34.89,129.07,129.07,0,0,0,79.9-27.53,64.43,64.43,0,0,1-60.09-44.7,62.61,62.61,0,0,0,12.1,1.15,63.61,63.61,0,0,0,17-2.25A64.39,64.39,0,0,1,115,232.22c0-.28,0-.55,0-.83a64.25,64.25,0,0,0,29.15,8.06,64.42,64.42,0,0,1-19.92-85.91,182.61,182.61,0,0,0,132.62,67.21,64.38,64.38,0,0,1,109.62-58.68,128.49,128.49,0,0,0,40.86-15.61A64.52,64.52,0,0,1,379,182.05a128.53,128.53,0,0,0,37-10.13A130.11,130.11,0,0,1,383.89,205.25Z" transform="translate(0 -1.43)"></path></svg>