<svg version="1.1" id="Layer_1" xmlns="http://www.w3.org/2000/svg" xmlns:xlink="http://www.w3.org/1999/xlink" x="0px" y="0px"
	 viewBox="0 0 47.4 25.1" style="enable-background:new 0 0 47.4 25.1;" xml:space="preserve">
<path class="st0" d="M0,22.3V2.8C0,1.2,1.3,0,2.8,0h25.4C29.7,0,31,1.2,31,2.8v19.5c0,1.5-1.3,2.8-2.8,2.8H2.8
	C1.3,25.1,0,23.8,0,22.3z M45.5,1.9L34.6,6.3v12.6l10.8,4.4c0.4,0.2,0.9,0.1,1.3-0.1c0.4-0.3,0.6-0.7,0.6-1.2V3.3
	c0-0.5-0.2-0.9-0.6-1.2C46.4,1.8,45.9,1.7,45.5,1.9z"/>
</svg>
