<svg version="1.1" xmlns="http://www.w3.org/2000/svg" xmlns:xlink="http://www.w3.org/1999/xlink" x="0px" y="0px"
	 viewBox="0 0 26 21" xml:space="preserve">
<path d="M20.9,10.8c-0.4-0.3-0.9-0.5-1.5-0.7c-0.1,0-0.2-0.1-0.2-0.1c0,0-0.1-0.1-0.2-0.1c-0.1-0.1-0.1-0.1-0.1-0.2
	c0-0.1,0-0.2,0.1-0.3c0.4-1.1,0.4-2,0-2.6C18.5,6.3,17.8,6,16.8,6c-1,0-2.2,0.3-3.5,0.9l-0.1,0c-0.1,0-0.1,0-0.2,0.1
	c-0.1,0-0.1,0-0.2,0c-0.1,0-0.1,0-0.1-0.1c0-0.1,0-0.2,0-0.3c0.4-1.4,0.3-2.4-0.3-3c-0.7-0.7-1.9-0.7-3.6-0.1
	C7.1,4.1,5.5,5.2,3.8,6.8C2.6,8.1,1.7,9.3,1,10.5c-0.7,1.2-1,2.4-1,3.5c0,1,0.3,2,0.9,2.9c0.6,0.9,1.4,1.6,2.5,2.2
	c1,0.6,2.2,1,3.5,1.3c1.3,0.3,2.6,0.5,4,0.5c1.4,0,2.7-0.1,3.9-0.4c1.2-0.3,2.3-0.7,3.3-1.2c0.9-0.5,1.7-1.1,2.4-1.7
	c0.7-0.6,1.2-1.3,1.6-2c0.4-0.7,0.5-1.4,0.5-2c0-0.6-0.2-1.2-0.5-1.7C21.7,11.5,21.3,11.1,20.9,10.8z M16.2,17.4
	c-1.4,1.1-3.2,1.8-5.3,2c-1.4,0.1-2.7,0-4-0.3c-1.2-0.3-2.2-0.9-3-1.6c-0.8-0.7-1.2-1.5-1.3-2.5c-0.1-1.4,0.5-2.7,1.9-3.8
	c1.4-1.1,3.2-1.8,5.3-2c1.4-0.1,2.7,0,4,0.3c1.2,0.3,2.2,0.9,3,1.6c0.8,0.7,1.2,1.5,1.3,2.5C18.2,15,17.6,16.3,16.2,17.4z"/>
<path d="M11.3,11.4c-1-0.3-2-0.2-3,0.3c-1,0.4-1.7,1.1-2.2,2c-0.5,0.9-0.5,1.8-0.1,2.7c0.4,0.9,1.1,1.5,2.1,1.8
	c1.1,0.3,2.1,0.3,3.2-0.2c1.1-0.5,1.8-1.2,2.3-2.2c0.4-1,0.4-1.9,0-2.7C13.1,12.3,12.3,11.7,11.3,11.4z M9.7,16.1
	c-0.2,0.3-0.5,0.6-0.9,0.7c-0.4,0.1-0.7,0.1-1.1,0c-0.3-0.2-0.5-0.4-0.6-0.7c-0.1-0.3,0-0.7,0.2-1c0.2-0.3,0.5-0.5,0.9-0.7
	c0.4-0.1,0.7-0.1,1.1,0c0.3,0.1,0.6,0.4,0.6,0.7C10,15.4,9.9,15.8,9.7,16.1z M11.1,14.3c-0.1,0.1-0.2,0.2-0.3,0.3
	c-0.1,0.1-0.3,0.1-0.4,0c-0.3-0.1-0.4-0.4-0.2-0.6c0.1-0.1,0.2-0.2,0.3-0.3c0.1-0.1,0.3-0.1,0.4,0c0.1,0,0.2,0.1,0.3,0.3
	C11.2,14.1,11.2,14.2,11.1,14.3z"/>
<path d="M20.6,8c0.1,0.2,0.3,0.3,0.5,0.4c0.2,0.1,0.4,0,0.6-0.1c0.2-0.1,0.3-0.3,0.4-0.5c0.2-0.5,0.2-1.1,0.1-1.7
	c-0.1-0.6-0.4-1.1-0.8-1.6c-0.4-0.5-0.9-0.8-1.5-0.9c-0.6-0.2-1.1-0.2-1.7-0.1c-0.2,0-0.4,0.2-0.5,0.4c-0.1,0.2-0.2,0.4-0.1,0.6
	c0,0.2,0.2,0.4,0.4,0.5c0.2,0.1,0.4,0.2,0.6,0.1c0.6-0.1,1.1,0,1.5,0.5c0.4,0.5,0.5,1,0.3,1.6C20.5,7.6,20.5,7.8,20.6,8z"/>
<path d="M25.7,5.5c-0.2-1.2-0.8-2.3-1.6-3.2c-0.8-0.9-1.8-1.6-3-1.9c-1.2-0.4-2.3-0.4-3.5-0.2
	c-0.3,0.1-0.5,0.2-0.6,0.4c-0.1,0.2-0.2,0.5-0.1,0.7C16.8,1.6,17,1.8,17.2,2c0.2,0.1,0.5,0.2,0.7,0.1c0.8-0.2,1.7-0.1,2.5,0.1
	C21.3,2.5,22,3,22.6,3.6c0.6,0.7,1,1.4,1.2,2.3c0.2,0.9,0.1,1.7-0.1,2.5c-0.1,0.3-0.1,0.5,0.1,0.7c0.1,0.2,0.3,0.4,0.6,0.5
	c0.3,0.1,0.5,0.1,0.7-0.1c0.2-0.1,0.4-0.3,0.5-0.6C25.9,7.9,25.9,6.7,25.7,5.5z"/>
</svg>
