<svg xmlns="http://www.w3.org/2000/svg" viewBox="0 0 512 512"><title>Check us out on YouTube</title><g id="Layer_1" data-name="Layer 1"><polygon class="cls-1" points="221.28 308.14 308.19 256 221.28 203.86 221.28 308.14"></polygon><path class="cls-1" d="M256,0C114.62,0,0,114.61,0,256S114.62,512,256,512,512,397.38,512,256,397.38,0,256,0ZM395,267.22a476.39,476.39,0,0,1-2.79,48s-2.72,20.44-11,29.42c-10.57,11.81-22.41,11.87-27.85,12.58-38.91,3-97.33,3.07-97.33,3.07s-72.29-.71-94.53-3c-6.19-1.23-20.06-.88-30.65-12.67-8.34-9-11-29.42-11-29.42a476.12,476.12,0,0,1-2.79-48v-22.5a475.73,475.73,0,0,1,2.79-48s2.72-20.45,11-29.46c10.57-11.82,22.41-11.89,27.85-12.56,38.9-3,97.27-3,97.27-3h.12s58.37,0,97.27,3c5.42.67,17.28.74,27.85,12.54,8.34,9,11,29.46,11,29.46a476.39,476.39,0,0,1,2.79,48Z"></path></g></svg>